<svg width="188" height="50" viewBox="0 0 188 50" fill="none" xmlns="http://www.w3.org/2000/svg">
<path d="M24.3947 35.1588C25.2699 35.1588 26.0826 34.9725 26.8327 34.5999C27.5829 34.2273 28.208 33.7926 28.7081 33.1717C29.2082 32.5507 29.6458 31.8676 29.8959 31.0604C30.1459 30.2531 30.3334 29.3837 30.3334 28.4523C30.3334 27.2104 29.9584 26.1547 29.2082 25.2853C28.4581 24.416 27.3953 23.9813 26.0826 23.9813C25.2699 23.9813 24.4572 24.1676 23.7071 24.5402C22.9569 24.9128 22.3318 25.4095 21.7692 26.0305C21.2065 26.6515 20.8315 27.3966 20.5189 28.2039C20.2063 29.0112 20.0188 29.8805 20.0188 30.812C20.0188 32.116 20.3939 33.1717 21.2065 34.041C21.9567 34.7241 23.0819 35.1588 24.3947 35.1588Z" fill="white"/>
<path d="M46.775 23.6707C46.0249 23.6707 45.3372 23.7949 44.7746 24.0433C44.1495 24.2917 43.6494 24.6643 43.2118 25.0368C42.7742 25.4715 42.3991 25.9062 42.0865 26.403C41.774 26.8998 41.5864 27.3965 41.5239 27.8312H50.4633C50.4633 27.6449 50.5258 27.5207 50.5258 27.3344C50.5258 27.2102 50.5258 27.024 50.5258 26.8998C50.5258 25.9683 50.2132 25.161 49.5256 24.5401C48.9005 23.9812 47.9628 23.6707 46.775 23.6707Z" fill="white"/>
<path d="M54.2765 28.9496C54.214 29.6327 54.089 30.2536 53.9639 30.8746H41.0863C41.0863 30.9988 41.0237 31.123 41.0237 31.2472C41.0237 31.8061 41.1488 32.3649 41.3363 32.7996C41.5864 33.2964 41.8989 33.669 42.274 34.0416C42.7116 34.4142 43.1492 34.6625 43.7118 34.8488C44.2744 35.0351 44.837 35.1593 45.5247 35.1593C46.6499 35.1593 47.5876 34.973 48.3378 34.5383C49.0879 34.1037 49.8381 33.6069 50.4632 32.8617L52.9012 35.0972C50.7758 37.3948 48.1502 38.5126 45.0871 38.5126C43.8993 38.5126 42.8366 38.3263 41.8364 38.0158C40.8362 37.6432 40.0235 37.1464 39.2734 36.5255C38.5232 35.9045 37.9606 35.0972 37.5855 34.1658C37.1479 33.2343 36.9604 32.1166 36.9604 30.9367C36.9604 29.4464 37.2105 28.0802 37.7106 26.7762C38.2107 25.4722 38.8983 24.3544 39.836 23.423C40.7112 22.4915 41.7739 21.7463 43.0242 21.1875C44.2744 20.6286 45.5872 20.3802 47.0875 20.3802C48.0877 20.3802 49.0879 20.5044 49.9631 20.8149C50.8383 21.1254 51.5884 21.5601 52.2761 22.1189C52.9012 22.6778 53.4013 23.423 53.7764 24.2923C54.1515 25.1617 54.339 26.1552 54.339 27.273C54.339 27.7698 54.339 28.2665 54.2765 28.9496ZM81.4696 8.33337C77.4688 -1.04329 58.965 -2.9062 33.6472 7.6503C29.7714 9.26483 26.2707 10.9415 23.0825 12.7423L21.0196 23.6714H21.0821C21.7697 22.6778 22.6449 21.8705 23.7702 21.3117C24.8329 20.7528 26.0206 20.4423 27.3334 20.4423C28.4586 20.4423 29.4588 20.6286 30.334 21.0012C31.2092 21.3738 32.0219 21.8705 32.647 22.4915C33.2721 23.1746 33.7722 23.9197 34.1473 24.8512C34.5224 25.7827 34.6474 26.7762 34.6474 27.8319C34.6474 29.3222 34.3974 30.6883 33.9598 31.9924C33.4597 33.2964 32.8345 34.4142 32.0219 35.3456C31.2092 36.3392 30.209 37.0843 29.0212 37.6432C27.8335 38.2021 26.5832 38.5126 25.208 38.5126C23.8952 38.5126 22.7074 38.2021 21.5822 37.6432C20.457 37.0843 19.5818 36.215 19.0192 35.1593H18.9567L18.4566 38.0779H14.4557L18.4566 15.5366C4.14108 24.727 -1.36007 34.9109 1.70307 42.0521C5.7039 51.4288 26.8333 51.5529 48.8379 42.2384C52.4011 40.7481 55.7768 39.0714 58.965 37.2706C58.2773 36.5876 57.9023 35.6561 57.9023 34.5383C57.9023 34.2279 57.9023 33.8553 57.9648 33.4206C58.0273 33.048 58.0273 32.6754 58.1523 32.3029L59.6526 24.3544H56.527L57.1521 20.9391H60.1527L61.0279 15.9092H65.2163L64.3411 20.9391H68.2169L67.5918 24.3544H63.7785L62.2782 32.3649C62.2156 32.7996 62.1531 33.1101 62.1531 33.4206C62.1531 34.0416 62.3407 34.4762 62.7158 34.7246C62.7783 34.7867 62.9033 34.8488 62.9658 34.8488C76.7187 26.0931 84.5328 15.5366 81.4696 8.33337Z" fill="white"/>
<path d="M85.0955 30.5636C85.0955 31.8056 85.4706 32.8612 86.2207 33.7306C86.9709 34.5999 87.9711 35.0346 89.3464 35.0346C90.1591 35.0346 90.9717 34.8483 91.7219 34.4757C92.472 34.1032 93.0972 33.6064 93.6598 32.9854C94.2224 32.3644 94.5975 31.6814 94.9101 30.8741C95.2226 30.0669 95.4102 29.1975 95.4102 28.3281C95.4102 27.0241 95.0351 25.9684 94.2224 25.0991C93.4097 24.2918 92.347 23.8571 91.0342 23.8571C90.1591 23.8571 89.3464 24.0434 88.5962 24.416C87.8461 24.7886 87.221 25.2854 86.7208 25.8443C86.2207 26.4652 85.7831 27.1483 85.5331 27.9556C85.283 28.7628 85.0955 29.6322 85.0955 30.5636ZM96.3479 23.6088L96.7854 21.0007H100.849L98.0982 36.7112C97.8482 38.2016 97.4731 39.5677 96.973 40.8097C96.4729 42.0516 95.7852 43.1072 94.9726 43.9766C94.1599 44.846 93.0972 45.529 91.8469 46.0258C90.5967 46.5226 89.0963 46.771 87.346 46.771C86.5958 46.771 85.9082 46.7089 85.0955 46.5847C84.3453 46.4605 83.5952 46.2742 82.845 46.0258C82.0949 45.7774 81.4072 45.4669 80.7196 45.0323C80.0319 44.6597 79.4693 44.225 79.0317 43.7282L81.8448 40.6855C82.5325 41.4927 83.3451 42.0516 84.3453 42.4863C85.3456 42.921 86.3458 43.1072 87.471 43.1072C88.5337 43.1072 89.4089 42.9831 90.1591 42.6726C90.9092 42.3621 91.5344 41.9895 92.0345 41.4306C92.5346 40.9338 92.9096 40.2508 93.2222 39.5677C93.5348 38.8225 93.7223 38.0153 93.9724 37.208L94.2849 35.8419H94.0349C93.4097 36.6491 92.5971 37.3322 91.5969 37.829C90.5967 38.3258 89.4089 38.5742 88.0961 38.5742C86.9709 38.5742 85.9707 38.3879 85.0955 38.0153C84.2203 37.6427 83.4077 37.1459 82.7825 36.525C82.1574 35.904 81.6573 35.0967 81.2822 34.2274C80.9071 33.2959 80.7821 32.3024 80.7821 31.2467C80.7821 29.8185 81.0322 28.3902 81.4697 27.1483C81.9698 25.8443 82.595 24.7265 83.4077 23.795C84.2203 22.8015 85.2205 22.0563 86.4083 21.4975C87.596 20.9386 88.8463 20.6902 90.2216 20.6902C91.7844 20.6902 93.0972 21.0007 94.0349 21.5596C94.9726 22.1184 95.7227 22.8636 96.1603 23.795H96.3479V23.6088Z" fill="white"/>
<path d="M113.789 30.2532C112.977 30.2532 112.101 30.2532 111.226 30.3153C110.351 30.3774 109.538 30.5016 108.788 30.7499C108.038 30.9362 107.475 31.2467 106.975 31.6814C106.475 32.054 106.288 32.6129 106.288 33.2959C106.288 33.7306 106.35 34.0411 106.538 34.2895C106.663 34.5379 106.913 34.7863 107.163 34.9725C107.413 35.1588 107.726 35.283 108.038 35.3451C108.351 35.4072 108.726 35.4693 109.101 35.4693C109.726 35.4693 110.351 35.3451 110.914 35.1588C111.476 34.9725 111.976 34.6621 112.414 34.2895C112.852 33.9169 113.164 33.4822 113.477 32.9854C113.727 32.4887 113.977 31.9919 114.102 31.3709L114.289 30.3153H113.789V30.2532ZM114.664 27.2725C114.727 26.962 114.727 26.7757 114.727 26.5894C114.727 26.4652 114.727 26.279 114.727 26.1548C114.727 25.3475 114.477 24.7265 113.914 24.3539C113.352 23.9814 112.602 23.7951 111.539 23.7951C110.726 23.7951 109.851 23.9814 108.913 24.2919C108.038 24.6023 107.225 25.037 106.538 25.5338L104.912 22.7394C105.913 22.0564 107.038 21.4975 108.288 21.1249C109.538 20.7523 110.851 20.5039 112.164 20.5039C112.977 20.5039 113.789 20.566 114.602 20.7523C115.415 20.9386 116.102 21.2491 116.79 21.6217C117.415 22.0564 117.915 22.5531 118.29 23.2362C118.665 23.9193 118.853 24.7265 118.853 25.658C118.853 25.8443 118.853 26.1548 118.79 26.4652C118.79 26.7757 118.728 27.0241 118.665 27.2725L117.415 34.2274C117.29 34.9104 117.165 35.5935 117.102 36.2766C117.04 37.0218 116.977 37.5806 116.977 38.0774H113.102C113.102 37.4564 113.164 36.7734 113.289 36.0282H113.227C111.851 37.6427 110.038 38.45 107.6 38.45C106.975 38.45 106.35 38.3879 105.725 38.2637C105.1 38.1395 104.475 37.8911 103.975 37.5185C103.475 37.1459 103.037 36.7113 102.662 36.1524C102.349 35.5935 102.162 34.8484 102.162 33.979C102.162 32.5508 102.537 31.433 103.287 30.5637C104.037 29.6943 105.037 29.0112 106.225 28.5145C107.413 28.0177 108.788 27.7072 110.226 27.5209C111.851 27.3346 113.289 27.2725 114.664 27.2725Z" fill="white"/>
<path d="M124.166 22.9257C124.291 22.1805 124.353 21.5596 124.416 21.0007H128.354C128.354 21.2491 128.291 21.6838 128.229 22.2426C128.166 22.8015 128.104 23.2983 128.041 23.6709H128.104C128.604 22.8636 129.354 22.1185 130.167 21.4975C131.042 20.8765 132.105 20.5039 133.417 20.5039C134.855 20.5039 136.043 20.8144 136.918 21.4354C137.793 22.0564 138.356 22.8636 138.606 23.8572C139.356 22.8015 140.231 21.9943 141.232 21.3733C142.232 20.7523 143.42 20.5039 144.732 20.5039C145.733 20.5039 146.608 20.6281 147.295 20.9386C148.046 21.2491 148.608 21.6217 149.108 22.0564C149.608 22.5531 149.921 23.112 150.171 23.733C150.421 24.416 150.484 25.0991 150.484 25.7822C150.484 26.4032 150.421 26.8999 150.358 27.3967L148.421 38.0774H144.232L145.92 28.6386C145.983 28.3282 145.983 28.0798 146.045 27.7693C146.108 27.4588 146.108 27.2104 146.108 26.8999C146.108 26.5273 146.045 26.1548 145.983 25.7822C145.858 25.4096 145.733 25.0991 145.482 24.8507C145.295 24.6023 144.982 24.3539 144.607 24.2298C144.232 24.0435 143.795 23.9814 143.232 23.9814C142.544 23.9814 141.982 24.1056 141.419 24.416C140.919 24.7265 140.419 25.0991 140.044 25.5338C139.669 25.9685 139.356 26.4653 139.106 27.0241C138.856 27.583 138.669 28.1419 138.606 28.7007L136.981 38.0774H132.73L134.543 27.7072C134.605 27.3346 134.668 27.0241 134.668 26.7136C134.668 25.9064 134.48 25.2233 134.043 24.7265C133.605 24.2298 132.917 23.9814 132.042 23.9814C131.417 23.9814 130.792 24.1056 130.292 24.416C129.792 24.6644 129.354 25.037 128.917 25.4717C128.541 25.9064 128.229 26.4032 127.979 26.962C127.729 27.5209 127.541 28.0798 127.479 28.6386L125.791 38.0774H121.603L123.978 24.6023C123.978 24.2298 124.103 23.6088 124.166 22.9257Z" fill="white"/>
<path d="M166.862 27.8935C166.862 27.7072 166.924 27.583 166.924 27.3967C166.924 27.2725 166.924 27.0862 166.924 26.962C166.924 26.0306 166.612 25.2233 165.924 24.6024C165.237 23.9814 164.361 23.6088 163.111 23.6088C162.361 23.6088 161.673 23.733 161.111 23.9814C160.486 24.2298 159.986 24.6024 159.548 24.9749C159.11 25.4096 158.735 25.8443 158.423 26.3411C158.11 26.8379 157.923 27.3346 157.86 27.7693H166.862V27.8935ZM157.485 30.8742C157.485 30.9984 157.422 31.1226 157.422 31.2467C157.422 31.8056 157.547 32.3645 157.735 32.7992C157.985 33.296 158.298 33.6685 158.673 34.0411C159.11 34.4137 159.548 34.6621 160.111 34.8484C160.673 35.0347 161.236 35.1589 161.923 35.1589C163.049 35.1589 163.986 34.9726 164.736 34.5379C165.487 34.1032 166.237 33.6064 166.862 32.8613L169.3 35.0968C167.174 37.3944 164.549 38.5121 161.486 38.5121C160.298 38.5121 159.235 38.3258 158.235 38.0153C157.235 37.6427 156.422 37.146 155.672 36.525C154.922 35.904 154.359 35.0968 153.984 34.1653C153.547 33.2339 153.359 32.1161 153.359 30.9363C153.359 29.4459 153.609 28.0798 154.109 26.7758C154.609 25.4717 155.297 24.354 156.235 23.4225C157.11 22.4911 158.173 21.7459 159.423 21.187C160.673 20.6281 161.986 20.3798 163.486 20.3798C164.486 20.3798 165.487 20.5039 166.362 20.8144C167.237 21.1249 167.987 21.5596 168.675 22.1185C169.3 22.6773 169.8 23.4225 170.175 24.2919C170.55 25.1612 170.738 26.1548 170.738 27.2725C170.738 27.6451 170.675 28.204 170.613 28.8871C170.55 29.5701 170.425 30.1911 170.3 30.8121H157.485V30.8742Z" fill="white"/>
<path d="M174.676 33.2337C175.051 33.9167 175.551 34.4756 176.301 34.8482C176.989 35.2208 177.802 35.4071 178.677 35.4071C179.677 35.4071 180.427 35.2208 181.052 34.8482C181.615 34.4756 181.927 33.9167 181.927 33.2958C181.927 32.6748 181.677 32.2401 181.24 31.9296C180.802 31.6191 180.052 31.3087 178.989 30.9982C178.177 30.7498 177.489 30.4393 176.864 30.1909C176.239 29.9425 175.739 29.5699 175.364 29.1974C174.926 28.8248 174.676 28.3901 174.426 27.9554C174.238 27.4586 174.113 26.8998 174.113 26.2788C174.113 25.4715 174.301 24.6643 174.676 23.9812C175.051 23.2981 175.614 22.6772 176.239 22.1804C176.926 21.6836 177.677 21.311 178.614 21.0005C179.552 20.7521 180.552 20.5659 181.615 20.5659C182.99 20.5659 184.178 20.8142 185.303 21.311C186.366 21.8078 187.241 22.553 187.866 23.5465L184.616 25.4715C184.303 24.9748 183.865 24.6022 183.365 24.2917C182.865 23.9812 182.178 23.7949 181.302 23.7949C180.927 23.7949 180.552 23.857 180.177 23.9191C179.802 23.9812 179.489 24.1054 179.177 24.2296C178.864 24.4159 178.677 24.6022 178.489 24.8506C178.302 25.0989 178.239 25.4094 178.239 25.8441C178.239 26.403 178.489 26.7756 178.927 27.0861C179.427 27.3344 180.115 27.5828 180.99 27.8933C182.615 28.328 183.865 28.949 184.741 29.7562C185.616 30.5014 186.053 31.6191 186.053 33.0474C186.053 33.9788 185.866 34.8482 185.428 35.5934C184.991 36.3385 184.49 36.9595 183.803 37.4563C183.115 37.9531 182.303 38.3256 181.427 38.574C180.552 38.8224 179.552 38.9466 178.552 38.9466C176.676 38.9466 175.176 38.6361 174.051 37.9531C172.926 37.27 172.05 36.4627 171.425 35.5313L174.676 33.2337Z" fill="white"/>
</svg>
