<svg width="73" height="73" viewBox="0 0 73 73" fill="none" xmlns="http://www.w3.org/2000/svg">
<g clip-path="url(#clip0)">
<path d="M36.4929 72.972C56.6474 72.972 72.9858 56.6399 72.9858 36.4933C72.9858 16.3466 56.6474 0.0145264 36.4929 0.0145264C16.3384 0.0145264 0 16.3466 0 36.4933C0 56.6399 16.3384 72.972 36.4929 72.972Z" fill="url(#paint0_linear)"/>
<path d="M36.4929 72.5465C56.4124 72.5465 72.5605 56.4047 72.5605 36.4929C72.5605 16.581 56.4124 0.439301 36.4929 0.439301C16.5733 0.439301 0.425293 16.581 0.425293 36.4929C0.425293 56.4047 16.5733 72.5465 36.4929 72.5465Z" fill="url(#paint1_linear)"/>
<path opacity="0.21" d="M61.5729 10.9974C47.4805 -3.08958 24.6547 -3.08958 10.5623 10.9974C-3.53019 25.0844 -3.53019 47.9013 10.5623 61.9883L61.5729 10.9974Z" fill="white"/>
<path d="M36.4929 8.63071C21.0961 8.63071 8.61987 21.1021 8.61987 36.4929C8.61987 51.8837 21.0961 64.355 36.4929 64.355C51.8896 64.355 64.3658 51.8837 64.3658 36.4929C64.3658 21.1021 51.8896 8.63071 36.4929 8.63071ZM36.4929 59.9617C23.5346 59.9617 13.0149 49.4603 13.0149 36.4929C13.0149 23.5255 23.5204 13.024 36.4929 13.024C49.4653 13.024 59.9708 23.5255 59.9708 36.4929C59.9708 49.4603 49.4653 59.9617 36.4929 59.9617Z" fill="url(#paint2_linear)"/>
<path d="M36.493 64.6385C20.9686 64.6385 8.33643 52.0112 8.33643 36.4929C8.33643 20.9745 20.9686 8.34726 36.493 8.34726C52.0173 8.34726 64.6495 20.9745 64.6495 36.4929C64.6495 52.0112 52.0173 64.6385 36.493 64.6385ZM36.493 8.91414C21.2805 8.91414 8.90353 21.2863 8.90353 36.4929C8.90353 51.6994 21.2805 64.0716 36.493 64.0716C51.7054 64.0716 64.0824 51.6994 64.0824 36.4929C64.0824 21.2863 51.7054 8.91414 36.493 8.91414Z" fill="#808080"/>
<path d="M36.493 63.1079C21.8051 63.1079 9.86768 51.1609 9.86768 36.4929C9.86768 21.8107 21.8193 9.87787 36.493 9.87787C51.1809 9.87787 63.1184 21.8249 63.1184 36.4929C63.1184 51.1751 51.1809 63.1079 36.493 63.1079ZM36.493 10.4447C22.117 10.4447 10.4348 22.1367 10.4348 36.4929C10.4348 50.8633 22.1312 62.541 36.493 62.541C50.869 62.541 62.5513 50.8491 62.5513 36.4929C62.5513 22.1367 50.869 10.4447 36.493 10.4447Z" fill="#808080"/>
<path d="M38.6196 4.25155H34.3805C33.4448 4.25155 32.6792 3.48626 32.6792 2.55091V0.212525C35.2312 -0.0850867 37.698 -0.0709147 40.3067 0.212525V2.55091C40.3067 3.48626 39.5411 4.25155 38.6196 4.25155Z" fill="#076920"/>
<path opacity="0.44" d="M36.3086 0C37.542 0 38.7897 0.07086 40.0656 0.21258V2.55096C40.0656 3.48631 39.3142 4.2516 38.3927 4.2516H38.4778C39.4135 4.2516 40.1791 3.48631 40.1791 2.55096V0.21258C38.8464 0.07086 37.5704 0 36.3086 0Z" fill="#F2F2F2"/>
<path d="M15.0992 12.2588L12.1077 15.2491C11.4414 15.9151 10.3639 15.9151 9.71173 15.2491L8.06714 13.6193C9.6692 11.6068 11.3989 9.86369 13.4404 8.20557L15.0992 9.86369C15.7655 10.5298 15.7655 11.6068 15.0992 12.2588Z" fill="#076920"/>
<path opacity="0.51" d="M14.9572 10.0054L13.2985 8.34726C12.2635 9.18341 11.2994 10.0479 10.4062 10.9549C11.2427 10.1188 12.1359 9.32513 13.1 8.54567L14.7587 10.2038C15.4251 10.8699 15.4393 11.9186 14.8013 12.5563L14.9572 12.4005C15.6236 11.7485 15.6236 10.6715 14.9572 10.0054Z" fill="#DEDEDE"/>
<path d="M57.7734 60.7695L60.7648 57.7792C61.4312 57.1131 62.5087 57.1131 63.1608 57.7792L64.848 59.4657C63.2459 61.4781 61.4879 63.2071 59.4463 64.8652L57.7592 63.1788C57.1212 62.4985 57.1212 61.4214 57.7734 60.7695Z" fill="#076920"/>
<path d="M34.3804 68.7342H38.6195C39.5552 68.7342 40.3208 69.4995 40.3208 70.4348V72.7732C37.7689 73.0708 35.302 73.0567 32.6933 72.7732V70.4348C32.6791 69.4995 33.4447 68.7342 34.3804 68.7342Z" fill="#076920"/>
<path d="M12.6464 58.1902L15.6379 61.1805C16.3042 61.8466 16.3042 62.9236 15.6379 63.5755L13.9933 65.2195C11.9801 63.6181 10.1654 61.9599 8.50659 59.9192L10.2362 58.176C10.9026 57.5241 11.9943 57.5241 12.6464 58.1902Z" fill="#076920"/>
<path d="M61.1336 15.7026L58.1421 12.7123C57.4757 12.0462 57.4757 10.9691 58.1421 10.3172L59.9143 8.53152C61.9275 10.133 63.5721 11.9753 65.2309 14.0161L63.5296 15.7167C62.8774 16.3686 61.7999 16.3686 61.1336 15.7026Z" fill="#076920"/>
<path opacity="0.47" d="M58.5105 10.6856L60.2827 8.89997C60.9916 9.46685 61.6579 10.0479 62.2959 10.6856C61.587 9.97704 60.8498 9.31096 60.0559 8.67322L58.2837 10.4589C57.6174 11.125 57.6174 12.202 58.2837 12.854L58.468 13.0382C57.83 12.4005 57.8584 11.3517 58.5105 10.6856Z" fill="#C2C2C2"/>
<path d="M68.7327 38.6187V34.3813C68.7327 33.4459 69.4983 32.6806 70.434 32.6806H72.8016C73.0993 35.2316 73.0852 37.6975 72.8016 40.3052H70.434C69.4983 40.3052 68.7327 39.5541 68.7327 38.6187Z" fill="#076920"/>
<path d="M4.26741 34.3812V38.6187C4.26741 39.554 3.50182 40.3193 2.56611 40.3193H0.212641C-0.0850872 37.7683 -0.0709097 35.3024 0.212641 32.6948H2.58029C3.516 32.6806 4.26741 33.4459 4.26741 34.3812Z" fill="#076920"/>
<path opacity="0.49" d="M2.58031 32.9641H0.212663C0.0708875 34.2962 0 35.6 0 36.8897C0 35.6992 0.0708875 34.5088 0.212663 33.2758H2.58031C3.51602 33.2758 4.28161 34.0128 4.28161 34.9056V34.6647C4.26743 33.7293 3.51602 32.9641 2.58031 32.9641Z" fill="#D6D6D6"/>
<path d="M46.8825 40.848L45.7305 47.328H43.2105L42.5625 51H35.5065L36.1545 47.328H25.5705L26.7225 40.848L36.1545 25.8H44.4705L34.8945 40.848H37.3065L37.9185 37.32H44.9745L44.3625 40.848H46.8825Z" fill="#076920"/>
</g>
<defs>
<linearGradient id="paint0_linear" x1="10.6888" y1="62.2928" x2="62.2791" y2="10.6825" gradientUnits="userSpaceOnUse">
<stop stop-color="#0A9F30"/>
<stop offset="0.307292" stop-color="#59EB7E"/>
<stop offset="0.3788" stop-color="#B8FFCA"/>
<stop offset="0.453125" stop-color="#C0FFD0"/>
<stop offset="0.5232" stop-color="#0FD842"/>
<stop offset="1" stop-color="#0A9F30"/>
</linearGradient>
<linearGradient id="paint1_linear" x1="10.9896" y1="61.9917" x2="61.9786" y2="10.9829" gradientUnits="userSpaceOnUse">
<stop stop-color="#0A9F30"/>
<stop offset="0.307292" stop-color="#59EB7E"/>
<stop offset="0.3788" stop-color="#B8FFCA"/>
<stop offset="0.453125" stop-color="#C0FFD0"/>
<stop offset="0.5232" stop-color="#0FD842"/>
<stop offset="1" stop-color="#0A9F30"/>
</linearGradient>
<linearGradient id="paint2_linear" x1="16.7839" y1="56.1983" x2="56.1882" y2="16.7788" gradientUnits="userSpaceOnUse">
<stop stop-color="#0A9F30"/>
<stop offset="0.307292" stop-color="#59EB7E"/>
<stop offset="0.3788" stop-color="#B8FFCA"/>
<stop offset="0.453125" stop-color="#C0FFD0"/>
<stop offset="0.5232" stop-color="#0FD842"/>
<stop offset="1" stop-color="#0A9F30"/>
</linearGradient>
<clipPath id="clip0">
<rect width="73" height="73" fill="white"/>
</clipPath>
</defs>
</svg>
