<svg width="163" height="50" viewBox="0 0 163 50" fill="none" xmlns="http://www.w3.org/2000/svg">
<path d="M161.894 43.4887C161.894 46.6139 159.114 49.2211 155.591 49.2211H6.81671C3.29373 49.2214 0.512738 46.6141 0.512738 43.4887V7.13646C0.512738 4.01171 3.29368 1.40458 6.81671 1.40458H155.591C159.113 1.40458 161.893 4.01159 161.893 7.13646L161.894 43.4887Z" stroke="white" stroke-width="0.996178"/>
<path d="M65.269 32.6835H62.8118L61.4658 28.6657H56.7873L55.5051 32.6835H53.1128L57.7481 19.0049H60.611L65.269 32.6835ZM61.0601 26.98L59.8428 23.4082C59.7141 23.0433 59.4728 22.184 59.1168 20.8314H59.0735C58.9318 21.4131 58.7035 22.2724 58.3897 23.4082L57.1941 26.98H61.0601Z" fill="white"/>
<path d="M77.1894 27.6306C77.1894 29.3081 76.7122 30.634 75.7579 31.6074C74.9032 32.4739 73.8417 32.9066 72.5747 32.9066C71.207 32.9066 70.2246 32.4399 69.6262 31.5066H69.583V36.7024H67.2761V26.0673C67.2761 25.0127 67.2469 23.9303 67.1907 22.8203H69.2194L69.3482 24.3836H69.3915C70.1608 23.2057 71.3282 22.6178 72.895 22.6178C74.1198 22.6178 75.1423 23.0772 75.9603 23.9972C76.7804 24.9181 77.1894 26.1289 77.1894 27.6306ZM74.8393 27.7108C74.8393 26.7508 74.6121 25.9593 74.1555 25.3364C73.6567 24.6868 72.9869 24.362 72.1473 24.362C71.5782 24.362 71.061 24.5429 70.599 24.8996C70.1359 25.2594 69.8329 25.7291 69.6912 26.3109C69.6198 26.5822 69.584 26.8042 69.584 26.979V28.6235C69.584 29.341 69.8156 29.9464 70.2787 30.4408C70.7418 30.9352 71.3434 31.1818 72.0835 31.1818C72.9523 31.1818 73.6286 30.8632 74.1122 30.228C74.5969 29.5918 74.8393 28.753 74.8393 27.7108Z" fill="white"/>
<path d="M89.1314 27.6306C89.1314 29.3081 88.6543 30.634 87.6989 31.6074C86.8452 32.4739 85.7837 32.9066 84.5167 32.9066C83.1491 32.9066 82.1666 32.4399 81.5693 31.5066H81.5261V36.7024H79.2192V26.0673C79.2192 25.0127 79.19 23.9303 79.1338 22.8203H81.1625L81.2913 24.3836H81.3345C82.1028 23.2057 83.2702 22.6178 84.8381 22.6178C86.0618 22.6178 87.0843 23.0772 87.9044 23.9972C88.7213 24.9181 89.1314 26.1289 89.1314 27.6306ZM86.7813 27.7108C86.7813 26.7508 86.553 25.9593 86.0964 25.3364C85.5976 24.6868 84.93 24.362 84.0893 24.362C83.5191 24.362 83.003 24.5429 82.5399 24.8996C82.0768 25.2594 81.7749 25.7291 81.6332 26.3109C81.5628 26.5822 81.5261 26.8042 81.5261 26.979V28.6235C81.5261 29.341 81.7576 29.9464 82.2185 30.4408C82.6816 30.9341 83.2832 31.1818 84.0255 31.1818C84.8943 31.1818 85.5706 30.8632 86.0542 30.228C86.539 29.5918 86.7813 28.753 86.7813 27.7108Z" fill="white"/>
<path d="M102.483 28.8476C102.483 30.0111 102.058 30.9578 101.204 31.6886C100.266 32.4872 98.9603 32.886 97.2821 32.886C95.7327 32.886 94.4906 32.6023 93.5503 32.0339L94.0848 30.2074C95.0976 30.7892 96.2088 31.0811 97.4195 31.0811C98.2884 31.0811 98.9646 30.894 99.4504 30.522C99.9341 30.1499 100.175 29.6503 100.175 29.0275C100.175 28.4724 99.9763 28.0048 99.577 27.6255C99.1799 27.2462 98.5167 26.8936 97.5905 26.5678C95.0694 25.6746 93.81 24.3662 93.81 22.6455C93.81 21.5211 94.2514 20.5991 95.1354 19.8816C96.0162 19.1632 97.1912 18.8044 98.6606 18.8044C99.9709 18.8044 101.059 19.0213 101.928 19.454L101.352 21.2405C100.54 20.8211 99.6225 20.6114 98.5957 20.6114C97.7842 20.6114 97.1501 20.8016 96.6957 21.1798C96.3116 21.518 96.119 21.9301 96.119 22.4184C96.119 22.959 96.3386 23.4061 96.7801 23.7577C97.1642 24.0825 97.8621 24.434 98.8748 24.8133C100.114 25.2871 101.024 25.8411 101.609 26.4763C102.192 27.1095 102.483 27.902 102.483 28.8476Z" fill="white"/>
<path d="M110.11 24.4648H107.568V29.2536C107.568 30.4716 108.016 31.0801 108.914 31.0801C109.326 31.0801 109.668 31.0462 109.938 30.9783L110.002 32.6424C109.548 32.8038 108.949 32.885 108.208 32.885C107.297 32.885 106.585 32.6208 106.071 32.0936C105.559 31.5652 105.302 30.6792 105.302 29.4345V24.4628H103.787V22.8182H105.302V21.0123L107.568 20.3627V22.8182H110.11V24.4648Z" fill="white"/>
<path d="M121.583 27.6707C121.583 29.1868 121.126 30.4315 120.215 31.4049C119.26 32.407 117.992 32.9066 116.411 32.9066C114.887 32.9066 113.674 32.4266 112.77 31.4666C111.865 30.5065 111.413 29.2947 111.413 27.8341C111.413 26.3057 111.878 25.0538 112.812 24.0804C113.744 23.106 115.001 22.6188 116.582 22.6188C118.105 22.6188 119.331 23.0988 120.256 24.0599C121.141 24.9921 121.583 26.1957 121.583 27.6707ZM119.189 27.7416C119.189 26.832 118.985 26.0518 118.57 25.4012C118.087 24.6139 117.395 24.2212 116.499 24.2212C115.572 24.2212 114.868 24.6149 114.384 25.4012C113.97 26.0529 113.765 26.8453 113.765 27.7827C113.765 28.6924 113.97 29.4725 114.384 30.1221C114.883 30.9095 115.58 31.3021 116.479 31.3021C117.36 31.3021 118.051 30.9012 118.55 30.1016C118.975 29.4386 119.189 28.6502 119.189 27.7416Z" fill="white"/>
<path d="M129.081 24.7475C128.853 24.7074 128.609 24.6868 128.354 24.6868C127.542 24.6868 126.915 24.9777 126.473 25.5605C126.089 26.0744 125.897 26.7241 125.897 27.5083V32.6835H123.591L123.613 25.9264C123.613 24.7896 123.583 23.7546 123.526 22.8213H125.535L125.62 24.7084H125.683C125.927 24.0599 126.311 23.5377 126.837 23.1461C127.351 22.7935 127.906 22.6178 128.504 22.6178C128.717 22.6178 128.91 22.6322 129.081 22.6579V24.7475Z" fill="white"/>
<path d="M139.398 27.2853C139.398 27.6779 139.371 28.0089 139.313 28.2792H132.393C132.42 29.2536 132.754 29.9988 133.397 30.5127C133.98 30.9722 134.734 31.2024 135.661 31.2024C136.685 31.2024 137.62 31.0472 138.461 30.7358L138.822 32.257C137.84 32.664 136.68 32.8665 135.341 32.8665C133.731 32.8665 132.468 32.4163 131.548 31.5169C130.63 30.6176 130.171 29.4098 130.171 27.8948C130.171 26.4075 130.598 25.1689 131.454 24.1811C132.35 23.1266 133.56 22.5993 135.084 22.5993C136.58 22.5993 137.713 23.1266 138.482 24.1811C139.092 25.0188 139.398 26.0549 139.398 27.2853ZM137.198 26.7169C137.213 26.0673 137.063 25.506 136.75 25.0322C136.351 24.4227 135.737 24.1184 134.912 24.1184C134.158 24.1184 133.544 24.4155 133.076 25.0116C132.692 25.4855 132.463 26.0539 132.393 26.7158L137.198 26.7169Z" fill="white"/>
<path d="M33.2404 25.2754C33.2126 22.192 35.7721 20.692 35.8891 20.6221C34.4396 18.5146 32.1928 18.2266 31.4033 18.2036C29.5163 18.0056 27.6859 19.3296 26.7246 19.3296C25.7442 19.3296 24.264 18.2228 22.6686 18.2553C20.6156 18.2869 18.695 19.4722 17.6417 21.3128C15.4679 25.0659 17.0891 30.5811 19.1718 33.6148C20.2137 35.1005 21.4311 36.7594 23.0245 36.701C24.5834 36.6369 25.1657 35.7099 27.047 35.7099C28.9109 35.7099 29.4578 36.701 31.0829 36.6637C32.7559 36.6369 33.8093 35.1713 34.8147 33.6722C36.0186 31.9693 36.5021 30.2922 36.5213 30.2061C36.482 30.1927 33.2721 28.9711 33.2404 25.2754Z" fill="white"/>
<path d="M30.1705 16.208C31.009 15.1624 31.5827 13.7398 31.4234 12.2961C30.2099 12.3497 28.6922 13.1332 27.8183 14.1559C27.0451 15.0571 26.3543 16.5342 26.5328 17.9233C27.896 18.0247 29.2956 17.2374 30.1705 16.208Z" fill="white"/>
</svg>
