<svg width="164" height="50" viewBox="0 0 164 50" fill="none" xmlns="http://www.w3.org/2000/svg">
<path d="M162.812 43.5583C162.812 46.6513 159.743 49.3127 155.752 49.3127H7.87317C3.88086 49.313 0.811523 46.6515 0.811523 43.5583V7.06661C0.811523 3.97409 3.88081 1.31274 7.87317 1.31274H155.751C159.743 1.31274 162.811 3.97398 162.811 7.06661L162.812 43.5583Z" stroke="white"/>
<path d="M76.79 32.8127L75.501 29.0042H70.1299L68.8408 32.8127H66.5654L71.6533 18.7209H74.0166L79.1045 32.8127H76.79ZM72.7861 21.0647L70.6865 27.2463H74.9443L72.8447 21.0647H72.7861ZM80.4033 32.8127V22.5393H82.415V24.2581H82.4639C82.7503 23.6591 83.167 23.1936 83.7139 22.8616C84.2607 22.5295 84.9215 22.3635 85.6963 22.3635C86.8226 22.3635 87.6982 22.7021 88.3232 23.3792C88.9482 24.0497 89.2607 24.9775 89.2607 26.1624V32.8127H87.1416V26.5725C87.1416 25.7913 86.9561 25.1988 86.585 24.7952C86.2204 24.385 85.6768 24.1799 84.9541 24.1799C84.2119 24.1799 83.6195 24.4208 83.1768 24.9026C82.734 25.3844 82.5127 26.0256 82.5127 26.8264V32.8127H80.4033ZM95.1592 32.9885C93.8571 32.9885 92.8122 32.5068 92.0244 31.5432C91.2367 30.5797 90.8428 29.2906 90.8428 27.676C90.8428 26.0614 91.2334 24.7756 92.0146 23.8186C92.8024 22.8551 93.8441 22.3733 95.1396 22.3733C95.8623 22.3733 96.5068 22.5426 97.0732 22.8811C97.6396 23.2131 98.0693 23.6689 98.3623 24.2483H98.4014V18.7209H100.521V32.8127H98.4697V31.0647H98.4307C98.1247 31.6637 97.6852 32.1357 97.1123 32.4807C96.5459 32.8193 95.8949 32.9885 95.1592 32.9885ZM95.7158 24.1506C94.8825 24.1506 94.2217 24.4696 93.7334 25.1077C93.2451 25.7392 93.001 26.5953 93.001 27.676C93.001 28.7633 93.2451 29.6226 93.7334 30.2542C94.2217 30.8857 94.8825 31.2014 95.7158 31.2014C96.5296 31.2014 97.1839 30.8824 97.6787 30.2444C98.1735 29.5999 98.4209 28.7437 98.4209 27.676C98.4209 26.6148 98.1735 25.762 97.6787 25.1174C97.1839 24.4729 96.5296 24.1506 95.7158 24.1506ZM102.688 32.8127V22.5393H104.7V24.2874H104.749C104.918 23.6884 105.221 23.2196 105.657 22.8811C106.093 22.5426 106.614 22.3733 107.22 22.3733C107.422 22.3733 107.662 22.3993 107.942 22.4514V24.4143C107.754 24.3362 107.438 24.2971 106.995 24.2971C106.318 24.2971 105.781 24.5087 105.384 24.9319C104.993 25.3551 104.798 25.9312 104.798 26.6604V32.8127H102.688ZM116.761 31.5823C115.875 32.5328 114.694 33.0081 113.216 33.0081C111.738 33.0081 110.556 32.5328 109.671 31.5823C108.785 30.6252 108.343 29.3232 108.343 27.676C108.343 26.0354 108.785 24.7398 109.671 23.7893C110.556 22.8323 111.738 22.3538 113.216 22.3538C114.694 22.3538 115.875 22.8323 116.761 23.7893C117.646 24.7398 118.089 26.0354 118.089 27.676C118.089 29.3232 117.646 30.6252 116.761 31.5823ZM113.216 31.2698C114.056 31.2698 114.72 30.954 115.208 30.3225C115.696 29.691 115.94 28.8088 115.94 27.676C115.94 26.5497 115.693 25.6708 115.198 25.0393C114.71 24.4078 114.049 24.092 113.216 24.092C112.382 24.092 111.718 24.4078 111.224 25.0393C110.735 25.6708 110.491 26.5497 110.491 27.676C110.491 28.8088 110.735 29.691 111.224 30.3225C111.718 30.954 112.382 31.2698 113.216 31.2698ZM119.788 32.8127V22.5393H121.897V32.8127H119.788ZM121.712 20.6838C121.471 20.9182 121.181 21.0354 120.843 21.0354C120.504 21.0354 120.215 20.9182 119.974 20.6838C119.739 20.4495 119.622 20.1663 119.622 19.8342C119.622 19.4957 119.739 19.2092 119.974 18.9749C120.215 18.7405 120.504 18.6233 120.843 18.6233C121.188 18.6233 121.478 18.7405 121.712 18.9749C121.953 19.2092 122.073 19.4957 122.073 19.8342C122.073 20.1663 121.953 20.4495 121.712 20.6838ZM127.913 32.9885C126.611 32.9885 125.566 32.5068 124.778 31.5432C123.991 30.5797 123.597 29.2906 123.597 27.676C123.597 26.0614 123.987 24.7756 124.769 23.8186C125.556 22.8551 126.598 22.3733 127.894 22.3733C128.616 22.3733 129.261 22.5426 129.827 22.8811C130.394 23.2131 130.823 23.6689 131.116 24.2483H131.155V18.7209H133.274V32.8127H131.224V31.0647H131.185C130.879 31.6637 130.439 32.1357 129.866 32.4807C129.3 32.8193 128.649 32.9885 127.913 32.9885ZM128.47 24.1506C127.636 24.1506 126.976 24.4696 126.487 25.1077C125.999 25.7392 125.755 26.5953 125.755 27.676C125.755 28.7633 125.999 29.6226 126.487 30.2542C126.976 30.8857 127.636 31.2014 128.47 31.2014C129.284 31.2014 129.938 30.8824 130.433 30.2444C130.927 29.5999 131.175 28.7437 131.175 27.676C131.175 26.6148 130.927 25.762 130.433 25.1174C129.938 24.4729 129.284 24.1506 128.47 24.1506Z" fill="white"/>
<g clip-path="url(#clip0)">
<path d="M34.1177 27.9578C34.1177 28.9198 33.4474 29.7074 32.6286 29.7074C31.8097 29.7074 31.1387 28.9206 31.1387 27.9578V22.2321C31.1387 21.2702 31.8089 20.4826 32.6286 20.4826C33.4482 20.4826 34.1177 21.2702 34.1177 22.2321V27.9578ZM51.484 27.9578C51.484 28.9198 50.8137 29.7074 49.9941 29.7074C49.1745 29.7074 48.5042 28.9206 48.5042 27.9578V22.2321C48.5042 21.2702 49.1745 20.4826 49.9941 20.4826C50.8137 20.4826 51.484 21.2702 51.484 22.2321V27.9578ZM44.5679 14.9485L45.5237 13.2334C45.6019 13.0934 45.5784 12.93 45.4728 12.8713C45.3672 12.8127 45.2155 12.8784 45.1381 13.0183L44.1605 14.7734C43.242 14.4162 42.2647 14.2347 41.2793 14.2384C40.2391 14.2384 39.2552 14.4339 38.3777 14.782L37.3954 13.0191C37.3172 12.8791 37.1662 12.8127 37.0607 12.8721C36.9551 12.9315 36.9316 13.0942 37.0098 13.2342L37.9702 14.9579C35.972 15.8964 34.626 17.6585 34.626 19.6778C34.626 19.8828 34.6409 20.0853 34.6675 20.2847H47.8918C47.9192 20.0853 47.9333 19.8835 47.9333 19.6778C47.9333 17.6522 46.5787 15.8855 44.5695 14.9493L44.5679 14.9485ZM38.2588 17.9424C38.1824 17.9424 38.1067 17.9273 38.0361 17.8981C37.9656 17.8689 37.9014 17.826 37.8474 17.772C37.7933 17.7179 37.7505 17.6538 37.7212 17.5832C37.692 17.5126 37.6769 17.4369 37.6769 17.3605C37.6769 17.2841 37.692 17.2084 37.7212 17.1378C37.7505 17.0672 37.7933 17.0031 37.8474 16.9491C37.9014 16.895 37.9656 16.8522 38.0361 16.8229C38.1067 16.7937 38.1824 16.7786 38.2588 16.7786C38.4131 16.7786 38.5611 16.8399 38.6703 16.9491C38.7794 17.0582 38.8407 17.2062 38.8407 17.3605C38.8407 17.5148 38.7794 17.6628 38.6703 17.772C38.5611 17.8811 38.4131 17.9424 38.2588 17.9424ZM44.331 17.9424C44.2546 17.9424 44.1789 17.9273 44.1083 17.8981C44.0377 17.8689 43.9736 17.826 43.9195 17.772C43.8655 17.7179 43.8226 17.6538 43.7934 17.5832C43.7641 17.5126 43.7491 17.4369 43.7491 17.3605C43.7491 17.2841 43.7641 17.2084 43.7934 17.1378C43.8226 17.0672 43.8655 17.0031 43.9195 16.9491C43.9736 16.895 44.0377 16.8522 44.1083 16.8229C44.1789 16.7937 44.2546 16.7786 44.331 16.7786C44.4853 16.7786 44.6333 16.8399 44.7424 16.9491C44.8515 17.0582 44.9128 17.2062 44.9128 17.3605C44.9128 17.5148 44.8515 17.6628 44.7424 17.772C44.6333 17.8811 44.4853 17.9424 44.331 17.9424ZM34.6244 20.8627V30.6162H34.6299C34.698 31.4397 35.4558 32.0943 36.374 32.0943H46.1822C47.0996 32.0943 47.8574 31.4397 47.9262 30.6162H47.9317V20.8627H34.6252H34.6244ZM40.3259 32.0458V35.0631C40.3259 36.0251 39.6556 36.8127 38.836 36.8127C38.0164 36.8127 37.3469 36.0251 37.3469 35.0631V32.0482L40.3259 32.0458ZM45.2906 32.0443V35.0631C45.2906 36.0251 44.6203 36.8127 43.8007 36.8127C42.9811 36.8127 42.3108 36.0251 42.3108 35.0631V32.0443H45.2906Z" fill="white"/>
</g>
<defs>
<clipPath id="clip0">
<rect width="24" height="24" fill="white" transform="translate(29.3115 12.8127)"/>
</clipPath>
</defs>
</svg>
