<svg width="168" height="56" viewBox="0 0 168 56" fill="none" xmlns="http://www.w3.org/2000/svg">
<g clip-path="url(#clip0)">
<path d="M11.7137 26.6762L12.4712 29.9994H18.0168L19.8834 26.9063L18.3685 35.0353H25.7266L29.8385 13H22.1016L16.6913 21.7681L14.5542 13H6.8985L2.78662 35.0353H10.1447L11.7137 26.6762Z" fill="white"/>
<path d="M49.4512 35.0353H50.425H52.7785H58.5947L62.7877 29.9994L65.6282 35.0353H73.5003L67.4136 24.35L76.9629 13H67.8194L63.7886 17.8314L61.0835 13H53.2114L59.1087 23.4553L52.2375 31.6866L49.4512 35.0353Z" fill="white"/>
<path d="M35.2216 35.0353L37.521 29.9994H41.2L41.6599 35.0353H46.7727H49.1262L48.6123 31.6866L45.6636 13H39.2253L27.5659 35.0353H35.2216ZM39.1712 26.0116L40.6861 22.714L40.9295 26.0116H39.1712Z" fill="white"/>
<path d="M82.9684 37.4386L85.9441 21.6406H78.586L74.4741 43.6248H91.084L92.2472 37.4386H82.9684Z" fill="white"/>
<path d="M97.711 21.6406L93.5991 43.6248H100.957L105.069 21.6406H97.711Z" fill="white"/>
<path d="M120.218 21.6406L118.487 30.9711L113.212 21.6406H107.585L103.473 43.6248H110.831L112.563 34.3966L117.784 43.6248H123.464L127.576 21.6406H120.218Z" fill="white"/>
<path d="M144.944 27.8269L146.08 21.6406H130.092L125.98 43.6248H142.022L143.158 37.4386H134.502L134.881 35.368H141.048L142.157 29.5396H135.99L136.287 27.8269H144.944Z" fill="white"/>
<path d="M2.29941 37.4387L0 43.625H71.9038L73.067 37.4387H2.29941Z" fill="white"/>
<path d="M79.0186 19.237L80.1818 13.0508L149.083 13.0508L146.54 19.237H79.0186Z" fill="white"/>
<path d="M154.071 13.6804C154.387 13.6804 154.703 13.7427 155.019 13.8672C155.303 13.9918 155.556 14.1475 155.809 14.3654C156.03 14.5834 156.22 14.8325 156.315 15.1438C156.441 15.4241 156.504 15.7354 156.504 16.0779C156.504 16.5138 156.409 16.9186 156.188 17.2611C155.967 17.6348 155.683 17.915 155.303 18.1329C154.924 18.3509 154.513 18.4443 154.102 18.4443C153.66 18.4443 153.249 18.3509 152.902 18.1329C152.522 17.915 152.238 17.6348 152.017 17.2611C151.795 16.8875 151.701 16.4827 151.701 16.0779C151.701 15.6732 151.795 15.2372 152.017 14.8947C152.238 14.5211 152.522 14.2409 152.902 14.0229C153.218 13.7738 153.628 13.6804 154.071 13.6804ZM154.071 14.1475C153.723 14.1475 153.407 14.2409 153.091 14.3966C152.807 14.5522 152.554 14.8013 152.396 15.0816C152.206 15.3618 152.143 15.7043 152.143 16.0468C152.143 16.3893 152.238 16.7007 152.396 17.012C152.586 17.2923 152.807 17.5414 153.123 17.697C153.407 17.8527 153.755 17.9461 154.102 17.9461C154.45 17.9461 154.798 17.8527 155.082 17.697C155.367 17.5414 155.619 17.2923 155.777 17.012C155.935 16.7318 156.03 16.3893 156.03 16.0468C156.03 15.7043 155.935 15.3618 155.777 15.0816C155.619 14.8013 155.367 14.5522 155.082 14.3966C154.735 14.2409 154.418 14.1475 154.071 14.1475ZM153.502 17.3234H152.965V14.8013H154.166C154.355 14.8013 154.513 14.8325 154.64 14.8947C154.766 14.957 154.861 15.0504 154.924 15.1438C154.987 15.2372 155.019 15.3929 155.019 15.5175C155.019 15.7043 154.956 15.86 154.829 15.9845C154.703 16.1091 154.545 16.2025 154.324 16.2336C154.45 16.2648 154.513 16.327 154.608 16.4204C154.671 16.5138 154.766 16.6384 154.893 16.8252L155.209 17.3234H154.576L154.355 16.9186C154.26 16.7318 154.166 16.6073 154.102 16.5138C154.039 16.4204 153.976 16.3582 153.881 16.327C153.818 16.2959 153.723 16.2648 153.628 16.2648H153.502V17.3234ZM153.502 15.2061V15.8911H153.913C154.102 15.8911 154.26 15.86 154.355 15.8288C154.45 15.7666 154.513 15.6732 154.513 15.5486C154.513 15.4552 154.482 15.3618 154.387 15.2995C154.292 15.2372 154.166 15.2061 153.976 15.2061H153.502Z" fill="white"/>
</g>
<defs>
<clipPath id="clip0">
<rect width="168" height="55.082" fill="white"/>
</clipPath>
</defs>
</svg>
