<svg width="25" height="25" fill="none" xmlns="http://www.w3.org/2000/svg"><g clip-path="url(#clip0)" fill="#11EC48"><path d="M22.159 8.922l-.009-.117a6.324 6.324 0 00-.062-.513l-.014-.077a7.43 7.43 0 00-.097-.477c-.006-.024-.01-.047-.017-.07a7.527 7.527 0 00-.15-.518l-.019-.054a7.384 7.384 0 00-13.993 0l-.019.054c-.056.17-.106.343-.15.519-.006.022-.01.045-.017.069-.037.156-.07.315-.097.477l-.014.077a7.079 7.079 0 00-.07.63 7.376 7.376 0 00-.02.59 7.366 7.366 0 00.806 3.298H2.373a.336.336 0 00-.336.336v7.381c0 .186.15.336.336.336H3.38v1.006c0 .186.15.336.336.336h15.443c.185 0 .336-.15.336-.335v-6.724a7.34 7.34 0 002.664-6.224zm-1.623-2.925a6.651 6.651 0 01.21.363 6.012 6.012 0 01.268.578c.065.158.125.318.178.483l.033.12c.052.173.099.349.137.528l.01.046c.04.195.067.393.091.593l.011.101c.003.024 0 .05.004.074l-1.503-1.11.561-1.776zm-.481-.7l-.741 2.343-2.118.768-2.066-1.474v-2.34l1.996-1.424a6.736 6.736 0 012.929 2.127zm-4.15 5.836h-2.22l-.836-2.226 1.945-1.388 1.946 1.388-.835 2.226zm.07.67l.79 1.007h-3.94l.79-1.006h2.36zM13.31 2.916a6.718 6.718 0 01.744-.128l.151-.013a6.88 6.88 0 01.558-.028h.061c.188 0 .373.012.558.028l.152.013a6.706 6.706 0 01.743.128l.037.01-1.52 1.085-1.52-1.086.036-.009zm-.848.255l1.996 1.424v2.34l-2.066 1.474-2.118-.768-.74-2.343a6.735 6.735 0 012.928-2.127zM8.112 8.81l.012-.101a6.67 6.67 0 01.09-.593l.011-.047a6.76 6.76 0 01.137-.528c.012-.04.022-.08.035-.12a6.576 6.576 0 01.258-.672 6.314 6.314 0 01.339-.658l.057-.094.561 1.776-1.503 1.11c.001-.024 0-.05.004-.073zm-.024.922h.001l1.97-1.454 2.125.771.887 2.363-1.101 1.4H8.983a6.686 6.686 0 01-.894-3.08zm-5.38 10.46v-6.71H17.48v6.71H2.71zm16.114 1.343H4.051v-.671h13.765c.185 0 .336-.15.336-.336v-5.704h.671v6.711zm.607-7.232a.33.33 0 00-.271-.15h-1.007v-.293l1.714-.014a6.674 6.674 0 01-.436.457zm.957-1.132l-2.235.018v-.042a.336.336 0 00-.336-.336h-.198l-1.1-1.4.887-2.363 2.124-.772L21.5 9.73a6.665 6.665 0 01-1.114 3.439z"/><path d="M16.474 15.495a1.007 1.007 0 01-1.008-1.007.336.336 0 00-.335-.336H11.9a2.763 2.763 0 00-3.61 0H5.059a.336.336 0 00-.336.336c0 .556-.45 1.007-1.007 1.007a.336.336 0 00-.336.335v2.013c0 .186.15.336.336.336.556 0 1.007.45 1.007 1.006 0 .186.15.336.336.336h3.23a2.764 2.764 0 003.611 0h3.23c.186 0 .336-.15.336-.336 0-.556.451-1.006 1.008-1.006.185 0 .335-.15.335-.336V15.83a.336.336 0 00-.335-.335zm-8.79 3.355H5.36a1.683 1.683 0 00-1.31-1.309v-1.409a1.682 1.682 0 001.31-1.309h2.323a3.627 3.627 0 000 4.027zm2.41.67c-1.295 0-2.35-1.203-2.35-2.683 0-1.48 1.055-2.685 2.35-2.685 1.297 0 2.35 1.205 2.35 2.685s-1.053 2.684-2.35 2.684zm6.044-1.979a1.682 1.682 0 00-1.31 1.309h-2.322a3.627 3.627 0 000-4.027h2.322c.136.659.65 1.173 1.31 1.309v1.41z"/><path d="M10.095 16.501a.336.336 0 11.336-.335h.671a1.007 1.007 0 00-.671-.945v-.398h-.672v.398a1.004 1.004 0 00.336 1.951.336.336 0 11-.336.336h-.671c.002.425.27.803.671.945v.397h.672v-.398a1.004 1.004 0 00-.336-1.951z"/></g><defs><clipPath id="clip0"><path fill="#fff" transform="translate(2.037 2.071)" d="M0 0h20.145v20.134H0z"/></clipPath></defs></svg>