<svg width="25" height="25" fill="none" xmlns="http://www.w3.org/2000/svg"><path d="M10.808 18.082c-1.94 0-3.903.558-3.903 1.625v1.3c0 1.067 1.963 1.626 3.903 1.626s3.903-.559 3.903-1.625v-1.3c0-1.068-1.964-1.626-3.903-1.626zm0 3.9c-1.956 0-3.253-.586-3.253-.974v-.364c.737.454 1.998.689 3.253.689 1.254 0 2.516-.235 3.252-.69v.364c0 .389-1.297.976-3.252.976zm0-1.3c-1.956 0-3.253-.587-3.253-.975s1.297-.975 3.253-.975c1.955 0 3.252.587 3.252.975s-1.297.975-3.252.975z" fill="#11EC48"/><path d="M18.289 15.481c-1.94 0-3.903.559-3.903 1.626v1.3c0 1.067 1.963 1.625 3.903 1.625s3.903-.558 3.903-1.625v-1.3c0-1.067-1.964-1.626-3.903-1.626zm0 .65c1.955 0 3.252.587 3.252.976 0 .388-1.297.975-3.252.975-1.956 0-3.253-.587-3.253-.975 0-.389 1.297-.976 3.253-.976zm0 3.251c-1.956 0-3.253-.587-3.253-.975v-.364c.737.454 1.998.689 3.253.689 1.254 0 2.516-.235 3.252-.689v.364c0 .388-1.297.975-3.252.975zm-8.457-2.6V7.029c0-1.067-1.963-1.625-3.903-1.625s-3.903.558-3.903 1.625v9.753c0 1.066 1.963 1.625 3.903 1.625s3.903-.559 3.903-1.625zM5.93 6.054c1.955 0 3.253.587 3.253.975s-1.298.976-3.253.976-3.253-.588-3.253-.976 1.298-.975 3.253-.975zM2.676 7.966c.737.454 1.998.689 3.253.689 1.255 0 2.516-.235 3.253-.69V8.98c0 .388-1.298.975-3.253.975s-3.253-.587-3.253-.975V7.966zm0 1.95c.737.454 1.998.69 3.253.69 1.255 0 2.516-.236 3.253-.69v1.014c0 .388-1.298.975-3.253.975s-3.253-.587-3.253-.975V9.916zm0 1.95c.737.454 1.998.69 3.253.69 1.255 0 2.516-.236 3.253-.69v1.015c0 .388-1.298.975-3.253.975s-3.253-.587-3.253-.975v-1.014zm0 1.951c.737.454 1.998.689 3.253.689 1.255 0 2.516-.235 3.253-.689v1.014c0 .388-1.298.975-3.253.975s-3.253-.587-3.253-.975v-1.014zm3.253 3.94c-1.955 0-3.253-.587-3.253-.976v-1.013c.737.453 1.998.688 3.253.688 1.255 0 2.516-.235 3.253-.688v1.014c0 .388-1.298.975-3.253.975zm8.457-2.276c1.94 0 3.903-.558 3.903-1.625V4.104c0-1.067-1.964-1.626-3.904-1.626-1.939 0-3.903.559-3.903 1.626v9.752c0 1.067 1.964 1.625 3.904 1.625zm0-.65c-1.956 0-3.253-.587-3.253-.975v-1.014c.737.454 1.998.689 3.253.689 1.254 0 2.515-.235 3.252-.689v1.014c0 .388-1.297.975-3.253.975zm0-11.703c1.955 0 3.252.587 3.252.976 0 .388-1.297.975-3.253.975-1.955 0-3.252-.587-3.252-.975 0-.389 1.297-.976 3.253-.976zM11.133 5.04c.737.454 1.998.689 3.253.689 1.254 0 2.515-.235 3.252-.689v1.014c0 .388-1.297.975-3.253.975-1.955 0-3.252-.587-3.252-.975V5.04zm0 1.95c.737.454 1.998.69 3.253.69 1.254 0 2.515-.236 3.252-.69v1.015c0 .388-1.297.975-3.253.975-1.955 0-3.252-.587-3.252-.975V6.99zm0 1.951c.737.454 1.998.689 3.253.689 1.254 0 2.515-.235 3.252-.689v1.014c0 .388-1.297.975-3.253.975-1.955 0-3.252-.587-3.252-.975V8.941zm0 1.95c.737.454 1.998.69 3.253.69 1.254 0 2.515-.236 3.252-.69v1.014c0 .389-1.297.976-3.253.976-1.955 0-3.252-.587-3.252-.976v-1.013z" fill="#11EC48"/></svg>