<svg width="25" height="25" fill="none" xmlns="http://www.w3.org/2000/svg"><g clip-path="url(#clip0)" fill="#11EC48"><path d="M9.02 23.417c-4.672 0-8.476-3.803-8.476-8.473 0-4.67 3.804-8.474 8.476-8.474 4.67 0 8.475 3.804 8.475 8.474s-3.804 8.473-8.475 8.473zm0-16.159c-4.24 0-7.688 3.446-7.688 7.686s3.447 7.685 7.688 7.685c4.24 0 7.687-3.446 7.687-7.685 0-4.24-3.452-7.686-7.687-7.686z"/><path d="M9.02 19.456a4.516 4.516 0 01-4.514-4.512A4.516 4.516 0 019.02 10.43a4.516 4.516 0 014.513 4.513 4.52 4.52 0 01-4.513 4.512zm0-8.237a3.729 3.729 0 00-3.726 3.725 3.729 3.729 0 003.726 3.724 3.729 3.729 0 003.725-3.724 3.729 3.729 0 00-3.725-3.725z"/><path d="M9.004 11.124a.397.397 0 01-.394-.394V6.948c0-.215.179-.394.394-.394.215 0 .394.179.394.394v3.782a.393.393 0 01-.394.394zm0 12.241a.397.397 0 01-.394-.394v-3.835c0-.216.179-.394.394-.394.215 0 .394.178.394.394v3.835c0 .22-.179.394-.394.394zm-4.997-1.739a.393.393 0 01-.31-.636l2.37-2.978a.393.393 0 01.614.488l-2.37 2.979a.373.373 0 01-.304.147zm7.603-9.551a.393.393 0 01-.31-.636l2.37-2.978a.393.393 0 01.614.489l-2.37 2.978a.388.388 0 01-.304.147zm-6.815 3.136h-.01l-3.81-.094a.394.394 0 11.021-.788l3.81.095a.394.394 0 01-.01.787zm12.206.295h-.01l-3.81-.095a.394.394 0 11.021-.788l3.81.095a.394.394 0 01-.01.788zm-1.833 4.964a.41.41 0 01-.253-.09l-2.921-2.442a.393.393 0 01-.047-.557.393.393 0 01.557-.047l2.921 2.443c.168.142.19.388.047.556a.42.42 0 01-.304.137zm-9.375-7.827a.41.41 0 01-.252-.09l-2.922-2.442a.393.393 0 01-.047-.557.393.393 0 01.557-.047l2.922 2.442a.393.393 0 01-.258.694z"/><path d="M18.142 17.633a.388.388 0 01-.384-.315.4.4 0 01.305-.467 7.717 7.717 0 004.36-2.648 7.702 7.702 0 001.746-4.875c0-4.234-3.448-7.68-7.688-7.68-1.345 0-2.67.352-3.825 1.019A7.731 7.731 0 009.908 5.35a.393.393 0 11-.673-.41A8.468 8.468 0 0116.481.86c4.671 0 8.476 3.804 8.476 8.474a8.5 8.5 0 01-1.924 5.38 8.494 8.494 0 01-4.807 2.915c-.027.005-.058.005-.084.005z"/><path d="M18.362 13.394a.397.397 0 01-.184-.746 3.707 3.707 0 002.023-3.315 3.724 3.724 0 00-6.573-2.4.393.393 0 01-.557.047.393.393 0 01-.047-.557A4.535 4.535 0 0116.48 4.82a4.516 4.516 0 014.514 4.512c0 1.702-.94 3.242-2.454 4.014a.364.364 0 01-.179.047z"/><path d="M16.518 5.556a.397.397 0 01-.395-.394V1.327c0-.215.18-.394.395-.394.215 0 .394.179.394.394v3.835c0 .22-.179.394-.394.394zm2.554.909a.393.393 0 01-.31-.636l2.37-2.978a.393.393 0 01.614.488l-2.37 2.979a.389.389 0 01-.304.147zm5.396 3.43h-.01l-3.81-.094a.394.394 0 11.02-.788l3.81.094a.394.394 0 01-.01.788zm-1.839 4.965a.41.41 0 01-.252-.09l-2.922-2.442a.393.393 0 01-.047-.557.393.393 0 01.557-.048l2.922 2.443a.393.393 0 01-.258.694zM13.26 7.032a.41.41 0 01-.252-.089L10.086 4.5a.393.393 0 01-.047-.557.393.393 0 01.557-.047l2.921 2.443c.168.142.19.389.048.557a.412.412 0 01-.305.136zM9.296 14.68c.286.084.517.233.695.446.18.21.272.463.272.761 0 .435-.147.776-.442 1.021-.29.246-.646.369-1.07.369-.33 0-.626-.075-.888-.224a1.322 1.322 0 01-.562-.67l.713-.411c.105.326.35.49.738.49.213 0 .378-.051.495-.152a.53.53 0 00.182-.423.524.524 0 00-.182-.416c-.117-.105-.282-.157-.495-.157H8.57l-.32-.484.834-1.087H7.428v-.779h2.66v.689l-.792 1.026z"/></g><defs><clipPath id="clip0"><path fill="#fff" transform="translate(.544 .058)" d="M0 0h24.174v24.16H0z"/></clipPath></defs></svg>