<svg width="25" height="25" fill="none" xmlns="http://www.w3.org/2000/svg"><g clip-path="url(#clip0)" fill="#11EC48"><path d="M9.02 24.184c-4.672 0-8.476-3.803-8.476-8.473 0-4.67 3.804-8.474 8.476-8.474 4.67 0 8.475 3.804 8.475 8.474s-3.804 8.473-8.475 8.473zm0-16.159c-4.24 0-7.688 3.446-7.688 7.686s3.447 7.685 7.688 7.685c4.24 0 7.687-3.446 7.687-7.685 0-4.24-3.452-7.686-7.687-7.686z"/><path d="M9.02 20.223a4.516 4.516 0 01-4.514-4.512 4.516 4.516 0 014.514-4.513 4.516 4.516 0 014.513 4.513 4.52 4.52 0 01-4.513 4.512zm0-8.237a3.729 3.729 0 00-3.726 3.725 3.729 3.729 0 003.726 3.724 3.729 3.729 0 003.725-3.724 3.729 3.729 0 00-3.725-3.725z"/><path d="M9.004 11.892a.397.397 0 01-.394-.394V7.715c0-.215.179-.394.394-.394.215 0 .394.179.394.394v3.783c0 .22-.179.394-.394.394zm0 12.24a.397.397 0 01-.394-.394v-3.835c0-.216.179-.394.394-.394.215 0 .394.178.394.394v3.835c0 .22-.179.394-.394.394zm-4.997-1.739a.393.393 0 01-.31-.636l2.37-2.978a.393.393 0 01.614.488l-2.37 2.979a.373.373 0 01-.304.147zm7.603-9.551a.393.393 0 01-.31-.636l2.37-2.978a.393.393 0 01.614.489l-2.37 2.978a.388.388 0 01-.304.147zm-6.815 3.137h-.01l-3.81-.095a.394.394 0 11.021-.788l3.81.095a.394.394 0 01-.01.788zm12.206.294h-.01l-3.81-.095a.394.394 0 11.021-.788l3.81.095a.394.394 0 01-.01.788zm-1.833 4.964a.41.41 0 01-.253-.09l-2.921-2.442a.393.393 0 01-.047-.557.393.393 0 01.557-.047l2.921 2.443c.168.142.19.388.047.557a.42.42 0 01-.304.136zM5.793 13.41a.41.41 0 01-.252-.09l-2.922-2.442a.393.393 0 01-.047-.557.393.393 0 01.557-.047l2.922 2.442c.168.142.189.39.047.557a.403.403 0 01-.305.137z"/><path d="M18.142 18.4a.388.388 0 01-.384-.315.4.4 0 01.305-.467 7.718 7.718 0 004.36-2.648 7.702 7.702 0 001.746-4.875c0-4.234-3.448-7.68-7.688-7.68-1.345 0-2.67.352-3.825 1.019a7.731 7.731 0 00-2.748 2.684.393.393 0 11-.673-.41 8.469 8.469 0 017.246-4.082c4.671 0 8.476 3.804 8.476 8.474a8.5 8.5 0 01-1.924 5.38 8.495 8.495 0 01-4.807 2.915c-.027.005-.058.005-.084.005z"/><path d="M18.362 14.161a.397.397 0 01-.184-.746 3.707 3.707 0 002.023-3.315 3.724 3.724 0 00-6.573-2.4.393.393 0 01-.557.047.393.393 0 01-.047-.557 4.535 4.535 0 013.457-1.602 4.516 4.516 0 014.514 4.512c0 1.702-.94 3.242-2.454 4.014a.364.364 0 01-.179.047z"/><path d="M16.518 6.323a.397.397 0 01-.395-.394V2.094c0-.215.18-.394.395-.394.215 0 .394.179.394.394V5.93c0 .22-.179.394-.394.394zm2.554.909a.393.393 0 01-.31-.636l2.37-2.978a.393.393 0 01.614.488l-2.37 2.979a.389.389 0 01-.304.147zm5.396 3.43h-.01l-3.81-.094a.394.394 0 11.02-.788l3.81.094a.394.394 0 01-.01.788zm-1.839 4.965a.411.411 0 01-.252-.09l-2.922-2.442a.393.393 0 01-.047-.557.393.393 0 01.557-.047l2.922 2.442a.393.393 0 01-.258.694zM13.26 7.8a.41.41 0 01-.252-.09l-2.922-2.443a.393.393 0 01-.047-.557.393.393 0 01.557-.047l2.921 2.443c.168.142.19.389.048.557a.412.412 0 01-.305.136zm-4.405 7.572c.407 0 .749.123 1.027.368.278.242.417.58.417 1.015 0 .435-.147.775-.441 1.02-.29.247-.647.37-1.07.37-.342 0-.645-.077-.906-.23a1.312 1.312 0 01-.569-.677l.714-.416c.104.338.358.507.761.507.214 0 .379-.05.496-.151a.531.531 0 00.181-.423.532.532 0 00-.175-.417c-.117-.104-.276-.157-.478-.157H7.531l.17-2.35H10.1v.78H8.474l-.055.76h.436z"/></g><defs><clipPath id="clip0"><path fill="#fff" transform="translate(.544 .825)" d="M0 0h24.174v24.16H0z"/></clipPath></defs></svg>