<svg width="437" height="61" fill="none" xmlns="http://www.w3.org/2000/svg"><path d="M8.373.216h428.58l-8.372 60H0l8.373-60z" fill="url(#paint0_linear)"/><path d="M284.892 37.56a4.22 4.22 0 001.903-.437c.585-.29 1.073-.63 1.463-1.115.391-.484.732-1.017.928-1.648.195-.63.341-1.308.341-2.035 0-.97-.293-1.794-.878-2.472-.586-.679-1.415-1.018-2.44-1.018a4.16 4.16 0 00-1.854.436 5.036 5.036 0 00-1.513 1.163c-.439.485-.732 1.067-.976 1.697a5.6 5.6 0 00-.39 2.036c0 1.017.293 1.841.927 2.52.586.533 1.464.873 2.489.873zm17.468-8.967c-.585 0-1.122.096-1.561.29-.488.194-.878.485-1.22.776-.341.34-.634.678-.878 1.066s-.39.776-.439 1.115h6.977c0-.145.049-.242.049-.388v-.34c0-.726-.244-1.356-.781-1.84-.488-.437-1.22-.68-2.147-.68z" fill="#fff"/><path d="M308.216 32.713c-.049.533-.147 1.018-.244 1.502H297.92c0 .097-.049.194-.049.291 0 .437.098.873.244 1.212.195.388.439.679.732.97a3.2 3.2 0 001.122.63c.44.145.879.242 1.415.242.879 0 1.611-.146 2.196-.485.586-.34 1.171-.727 1.659-1.309l1.903 1.745c-1.659 1.794-3.708 2.666-6.099 2.666a8.43 8.43 0 01-2.537-.388 6.771 6.771 0 01-2.001-1.163 4.567 4.567 0 01-1.317-1.842c-.342-.727-.488-1.6-.488-2.52 0-1.163.195-2.23.585-3.248.39-1.017.927-1.89 1.659-2.617a7.653 7.653 0 012.489-1.745c.976-.436 2-.63 3.171-.63.781 0 1.562.097 2.245.34a5.995 5.995 0 011.805 1.017c.488.436.878 1.018 1.171 1.697.293.678.439 1.454.439 2.326 0 .388 0 .776-.048 1.309zm21.225-16.092c-3.123-7.319-17.566-8.773-37.327-.533-3.026 1.26-5.758 2.569-8.247 3.974l-1.61 8.531h.049c.537-.776 1.22-1.406 2.098-1.842a5.9 5.9 0 012.781-.678c.879 0 1.659.145 2.342.436.684.29 1.318.678 1.806 1.163a5.96 5.96 0 011.171 1.842c.293.727.39 1.503.39 2.326 0 1.164-.195 2.23-.536 3.248-.391 1.018-.879 1.89-1.513 2.617-.634.776-1.415 1.357-2.342 1.794a6.87 6.87 0 01-2.977.678 6.248 6.248 0 01-2.83-.678 4.538 4.538 0 01-2-1.94h-.049l-.39 2.279h-3.123l3.123-17.595c-11.174 7.174-15.468 15.123-13.077 20.697 3.123 7.319 19.615 7.416 36.79.145a74.52 74.52 0 007.905-3.877c-.537-.533-.829-1.26-.829-2.133 0-.242 0-.533.048-.872.049-.291.049-.582.147-.873l1.171-6.204h-2.44l.488-2.666h2.342l.683-3.926h3.27l-.684 3.926h3.026l-.488 2.666h-2.977l-1.171 6.253c-.049.339-.097.581-.097.824 0 .484.146.824.439 1.018a.37.37 0 00.195.097c10.735-6.835 16.834-15.074 14.443-20.697zm2.83 17.352c0 .97.293 1.793.878 2.472.586.678 1.367 1.017 2.44 1.017a4.16 4.16 0 001.854-.436 5.037 5.037 0 001.513-1.163c.439-.485.732-1.018.976-1.648.244-.63.39-1.309.39-1.987 0-1.018-.293-1.842-.927-2.52-.634-.63-1.464-.97-2.488-.97-.684 0-1.318.146-1.903.436a4.854 4.854 0 00-1.464 1.115c-.391.485-.732 1.018-.927 1.648-.196.63-.342 1.309-.342 2.036zm8.783-5.429l.342-2.035h3.171L342.42 38.77a15.355 15.355 0 01-.878 3.2 7.94 7.94 0 01-1.561 2.471c-.635.679-1.464 1.212-2.44 1.6-.976.387-2.147.581-3.513.581-.586 0-1.123-.048-1.757-.145a11.609 11.609 0 01-1.756-.436 7.34 7.34 0 01-1.659-.776 4.747 4.747 0 01-1.318-1.018l2.196-2.375c.537.63 1.171 1.067 1.952 1.406.78.34 1.561.485 2.439.485.83 0 1.513-.097 2.098-.34.586-.242 1.074-.533 1.464-.97.391-.387.683-.92.927-1.453.244-.582.391-1.212.586-1.842l.244-1.066h-.195a5.464 5.464 0 01-1.903 1.55c-.781.388-1.708.582-2.733.582-.878 0-1.659-.145-2.342-.436-.683-.29-1.317-.678-1.805-1.163s-.879-1.115-1.171-1.794c-.293-.727-.391-1.502-.391-2.326 0-1.115.195-2.23.537-3.2.39-1.017.878-1.89 1.513-2.616.634-.776 1.415-1.358 2.342-1.794.927-.436 1.903-.63 2.976-.63 1.22 0 2.245.243 2.977.679.732.436 1.317 1.017 1.659 1.745h.146v-.146zm13.614 5.186c-.635 0-1.318 0-2.001.049-.683.048-1.317.145-1.903.34a3.275 3.275 0 00-1.415.726c-.39.291-.537.727-.537 1.26 0 .34.049.582.196.776.097.194.292.388.488.533.195.145.439.242.683.29.244.05.536.098.829.098a4.56 4.56 0 001.415-.242c.439-.146.83-.388 1.171-.68.342-.29.586-.63.83-1.017.195-.388.39-.775.488-1.26l.146-.824h-.39v-.049zm.683-2.326c.049-.242.049-.388.049-.533v-.34c0-.63-.196-1.114-.635-1.405-.439-.291-1.024-.436-1.854-.436-.634 0-1.317.145-2.049.387a7.44 7.44 0 00-1.854.97l-1.269-2.181a9.448 9.448 0 012.635-1.26c.976-.291 2-.485 3.025-.485.634 0 1.269.048 1.903.194.634.145 1.171.387 1.708.678.488.34.878.727 1.171 1.26.293.534.439 1.164.439 1.89 0 .146 0 .388-.049.63 0 .243-.049.437-.097.63l-.976 5.43a18.022 18.022 0 00-.244 1.599c-.049.582-.098 1.018-.098 1.406h-3.025c0-.485.049-1.018.146-1.6h-.048c-1.074 1.26-2.489 1.89-4.392 1.89a7.5 7.5 0 01-1.464-.145c-.488-.097-.976-.29-1.366-.582a4.29 4.29 0 01-1.025-1.066c-.244-.436-.39-1.018-.39-1.696 0-1.115.293-1.988.878-2.666.586-.679 1.367-1.212 2.294-1.6.927-.387 2-.63 3.122-.775a29.866 29.866 0 013.465-.194zm7.416-3.393c.097-.582.146-1.066.195-1.502h3.074c0 .193-.049.533-.097.969-.049.436-.098.824-.147 1.115h.049c.39-.63.976-1.212 1.61-1.697.683-.485 1.513-.775 2.537-.775 1.123 0 2.05.242 2.733.727.683.485 1.122 1.115 1.317 1.89a7.042 7.042 0 012.05-1.939c.78-.484 1.707-.678 2.732-.678.781 0 1.464.097 2.001.339a5.02 5.02 0 011.415.872c.39.388.634.824.829 1.31.195.532.244 1.066.244 1.599 0 .484-.049.872-.097 1.26l-1.513 8.337h-3.269l1.317-7.368c.049-.242.049-.436.098-.678.049-.243.049-.437.049-.679 0-.29-.049-.582-.098-.872-.098-.291-.195-.534-.39-.727a1.46 1.46 0 00-.683-.485c-.293-.145-.635-.194-1.074-.194-.537 0-.976.097-1.415.34-.39.242-.781.532-1.073.872a4.7 4.7 0 00-.732 1.163c-.196.436-.342.873-.391 1.309l-1.268 7.319h-3.318l1.415-8.095c.049-.29.097-.533.097-.775 0-.63-.146-1.164-.488-1.551-.341-.388-.878-.582-1.561-.582-.488 0-.976.097-1.366.34-.391.193-.732.484-1.074.823-.293.34-.536.727-.732 1.163-.195.437-.341.873-.39 1.31l-1.317 7.367h-3.27l1.855-10.518c0-.291.097-.776.146-1.309zm33.326 3.878c0-.146.049-.243.049-.388v-.34c0-.727-.244-1.357-.781-1.841-.536-.485-1.22-.776-2.195-.776-.586 0-1.123.097-1.562.291-.488.194-.878.485-1.22.775-.341.34-.634.68-.878 1.067-.244.388-.39.775-.439 1.115h7.026v.097zm-7.319 2.326c0 .097-.049.194-.049.29 0 .437.098.873.244 1.213.195.387.439.678.732.97a3.2 3.2 0 001.122.63c.44.145.879.242 1.415.242.879 0 1.611-.146 2.196-.485.586-.34 1.171-.727 1.659-1.309l1.903 1.745c-1.659 1.793-3.708 2.666-6.099 2.666a8.426 8.426 0 01-2.537-.388 6.769 6.769 0 01-2.001-1.163 4.575 4.575 0 01-1.317-1.842c-.342-.727-.488-1.6-.488-2.52 0-1.164.195-2.23.585-3.248.391-1.018.927-1.89 1.659-2.617a7.654 7.654 0 012.489-1.745c.976-.436 2-.63 3.171-.63.781 0 1.562.097 2.245.34a5.98 5.98 0 011.805 1.017c.488.436.879 1.018 1.171 1.696.293.679.439 1.454.439 2.327 0 .29-.048.727-.097 1.26s-.147 1.018-.244 1.503h-10.003v.048zm13.418 1.842c.293.533.683.97 1.269 1.26.537.29 1.171.436 1.854.436.781 0 1.366-.145 1.854-.436.439-.29.683-.727.683-1.212 0-.484-.195-.824-.536-1.066-.342-.242-.927-.485-1.757-.727-.634-.194-1.171-.436-1.659-.63a3.513 3.513 0 01-1.171-.776c-.342-.29-.537-.63-.732-.97a3.762 3.762 0 01.195-3.102c.293-.532.732-1.017 1.22-1.405.537-.387 1.122-.678 1.854-.92.732-.195 1.513-.34 2.342-.34 1.074 0 2.001.194 2.879.582a4.64 4.64 0 012.001 1.745l-2.537 1.502c-.244-.388-.586-.678-.976-.92-.391-.243-.927-.389-1.611-.389-.292 0-.585.049-.878.097a3.672 3.672 0 00-.781.243 1.74 1.74 0 00-.536.485c-.147.193-.195.436-.195.775 0 .436.195.727.536.97.391.193.927.387 1.611.63 1.268.339 2.244.823 2.927 1.454.683.581 1.025 1.454 1.025 2.568 0 .727-.147 1.406-.488 1.988-.342.581-.732 1.066-1.269 1.454a5.922 5.922 0 01-1.854.872 8.369 8.369 0 01-2.244.291c-1.464 0-2.635-.242-3.514-.776-.878-.533-1.561-1.163-2.049-1.89l2.537-1.793zM128.655 13.49l-1.215 6.93h-8.1l-4.32 24.57h-7.2l4.32-24.57h-8.1l1.215-6.93h23.4zm17.732 0h7.47l-12.555 22.23c-1.38 2.43-2.865 4.365-4.455 5.805-1.59 1.41-3.21 2.37-4.86 2.88-1.65.51-3.495.705-5.535.585l1.17-6.75c2.88.27 5.13-.81 6.75-3.24l-6.615-21.51h6.93l4.05 13.77 7.65-13.77zm19.771 0c3.24 0 5.76 1.08 7.56 3.24 1.8 2.13 2.475 4.8 2.025 8.01-.45 3.09-1.83 5.595-4.14 7.515-2.28 1.89-5.205 2.835-8.775 2.835h-4.635l-1.755 9.9h-7.2l5.535-31.5h11.385zm2.385 10.8c.24-1.23.06-2.205-.54-2.925-.57-.75-1.575-1.125-3.015-1.125h-4.185l-1.44 8.1h4.185c1.35 0 2.46-.36 3.33-1.08.87-.72 1.425-1.71 1.665-2.97zm27.623-10.8h7.2l-5.535 31.5h-7.2l2.205-12.51h-9.9l-2.205 12.51h-7.2l5.535-31.5h7.2l-2.115 12.06h9.9l2.115-12.06zm4.822 31.5l5.535-31.5h7.2l-2.925 16.605 15.075-16.605h5.4l-5.535 31.5h-7.2l2.925-16.605-15.075 16.605h-5.4zm44.817-31.5c3.24 0 5.76 1.08 7.56 3.24 1.8 2.13 2.475 4.8 2.025 8.01-.45 3.09-1.83 5.595-4.14 7.515-2.28 1.89-5.205 2.835-8.775 2.835h-4.635l-1.755 9.9h-7.2l5.535-31.5h11.385zm2.385 10.8c.24-1.23.06-2.205-.54-2.925-.57-.75-1.575-1.125-3.015-1.125h-4.185l-1.44 8.1h4.185c1.35 0 2.46-.36 3.33-1.08.87-.72 1.425-1.71 1.665-2.97z" fill="#fff"/><defs><linearGradient id="paint0_linear" x1="41.903" y1="30.216" x2="778.173" y2="21.115" gradientUnits="userSpaceOnUse"><stop stop-color="#0A9F30" stop-opacity="0"/><stop offset="1" stop-color="#0A9F30"/></linearGradient></defs></svg>