<svg width="120" height="36" viewBox="0 0 120 36" fill="none" xmlns="http://www.w3.org/2000/svg">
<path d="M119.078 31.3838C119.078 33.5965 117.105 35.464 114.578 35.464H5.2108C2.6836 35.4642 0.710449 33.5966 0.710449 31.3838V4.66048C0.710449 2.44815 2.68355 0.580688 5.2108 0.580688H114.578C117.105 0.580688 119.077 2.44803 119.077 4.66048L119.078 31.3838Z" fill="black" stroke="white"/>
<path d="M48.1807 23.4408H46.3744L45.3849 20.4871H41.9456L41.003 23.4408H39.2444L42.6519 13.3853H44.7565L48.1807 23.4408ZM45.0866 19.2479L44.1918 16.6222C44.0971 16.354 43.9198 15.7223 43.6581 14.728H43.6262C43.5221 15.1556 43.3542 15.7873 43.1236 16.6222L42.2446 19.2479H45.0866Z" fill="white"/>
<path d="M56.9437 19.7262C56.9437 20.9594 56.5929 21.9341 55.8913 22.6496C55.263 23.2866 54.4827 23.6047 53.5513 23.6047C52.5459 23.6047 51.8237 23.2617 51.3838 22.5756H51.352V26.3951H49.6562V18.577C49.6562 17.8017 49.6347 17.0061 49.5934 16.19H51.0847L51.1794 17.3393H51.2112C51.7767 16.4734 52.635 16.0412 53.7867 16.0412C54.6871 16.0412 55.4388 16.3789 56.0401 17.0552C56.643 17.7322 56.9437 18.6223 56.9437 19.7262ZM55.216 19.7852C55.216 19.0794 55.049 18.4976 54.7134 18.0397C54.3467 17.5622 53.8543 17.3234 53.2371 17.3234C52.8187 17.3234 52.4385 17.4564 52.0989 17.7186C51.7584 17.9831 51.5357 18.3284 51.4315 18.756C51.379 18.9555 51.3528 19.1187 51.3528 19.2472V20.4561C51.3528 20.9836 51.523 21.4286 51.8634 21.792C52.2039 22.1555 52.6461 22.3368 53.1902 22.3368C53.8289 22.3368 54.326 22.1026 54.6815 21.6356C55.0379 21.1679 55.216 20.5513 55.216 19.7852Z" fill="white"/>
<path d="M65.7225 19.7262C65.7225 20.9594 65.3717 21.9341 64.6694 22.6496C64.0418 23.2866 63.2615 23.6047 62.3301 23.6047C61.3247 23.6047 60.6025 23.2617 60.1634 22.5756H60.1316V26.3951H58.4358V18.577C58.4358 17.8017 58.4144 17.0061 58.373 16.19H59.8644L59.959 17.3393H59.9908C60.5556 16.4734 61.4138 16.0412 62.5664 16.0412C63.466 16.0412 64.2176 16.3789 64.8205 17.0552C65.421 17.7322 65.7225 18.6223 65.7225 19.7262ZM63.9949 19.7852C63.9949 19.0794 63.8271 18.4976 63.4914 18.0397C63.1247 17.5622 62.634 17.3234 62.0159 17.3234C61.5968 17.3234 61.2174 17.4564 60.8769 17.7186C60.5365 17.9831 60.3146 18.3284 60.2104 18.756C60.1587 18.9555 60.1316 19.1187 60.1316 19.2472V20.4561C60.1316 20.9836 60.3018 21.4286 60.6407 21.792C60.9811 22.1547 61.4234 22.3368 61.969 22.3368C62.6077 22.3368 63.1048 22.1026 63.4604 21.6356C63.8167 21.1679 63.9949 20.5513 63.9949 19.7852Z" fill="white"/>
<path d="M75.5378 20.6209C75.5378 21.4762 75.2252 22.1721 74.5976 22.7093C73.908 23.2964 72.9479 23.5896 71.7143 23.5896C70.5753 23.5896 69.6621 23.3811 68.9709 22.9632L69.3639 21.6205C70.1083 22.0482 70.9252 22.2628 71.8153 22.2628C72.454 22.2628 72.9511 22.1253 73.3083 21.8517C73.6638 21.5782 73.8412 21.211 73.8412 20.7531C73.8412 20.3451 73.6948 20.0013 73.4013 19.7225C73.1094 19.4436 72.6218 19.1845 71.941 18.9449C70.0877 18.2883 69.1618 17.3265 69.1618 16.0616C69.1618 15.235 69.4863 14.5572 70.1362 14.0298C70.7836 13.5016 71.6474 13.2379 72.7276 13.2379C73.6908 13.2379 74.491 13.3973 75.1297 13.7155L74.7058 15.0287C74.1092 14.7204 73.4347 14.5663 72.6799 14.5663C72.0833 14.5663 71.6172 14.706 71.2832 14.9841C71.0008 15.2327 70.8592 15.5357 70.8592 15.8946C70.8592 16.292 71.0207 16.6207 71.3452 16.8791C71.6276 17.1179 72.1406 17.3763 72.8851 17.6551C73.7958 18.0035 74.4648 18.4107 74.8951 18.8777C75.3238 19.3431 75.5378 19.9257 75.5378 20.6209Z" fill="white"/>
<path d="M81.1445 17.399H79.2753V20.9193C79.2753 21.8147 79.6046 22.262 80.2648 22.262C80.5679 22.262 80.8192 22.2371 81.0181 22.1872L81.065 23.4105C80.7309 23.5292 80.2911 23.5889 79.7462 23.5889C79.0765 23.5889 78.5531 23.3947 78.1753 23.007C77.7991 22.6187 77.6098 21.9673 77.6098 21.0523V17.3975H76.4962V16.1885H77.6098V14.8609L79.2753 14.3834V16.1885H81.1445V17.399Z" fill="white"/>
<path d="M89.5782 19.7557C89.5782 20.8702 89.2425 21.7852 88.5728 22.5008C87.8705 23.2375 86.9382 23.6047 85.7762 23.6047C84.6562 23.6047 83.7646 23.2519 83.0996 22.5461C82.4347 21.8404 82.1022 20.9495 82.1022 19.8758C82.1022 18.7523 82.4442 17.832 83.1307 17.1164C83.8155 16.4001 84.7398 16.0419 85.9018 16.0419C87.0218 16.0419 87.923 16.3948 88.603 17.1013C89.2537 17.7866 89.5782 18.6714 89.5782 19.7557ZM87.8187 19.8078C87.8187 19.1391 87.6684 18.5656 87.3638 18.0873C87.0082 17.5086 86.5 17.2199 85.8414 17.2199C85.1597 17.2199 84.6419 17.5093 84.2864 18.0873C83.9817 18.5664 83.8314 19.149 83.8314 19.8381C83.8314 20.5068 83.9817 21.0803 84.2864 21.5578C84.6531 22.1366 85.1653 22.4252 85.8263 22.4252C86.4737 22.4252 86.982 22.1306 87.3487 21.5427C87.6613 21.0553 87.8187 20.4758 87.8187 19.8078Z" fill="white"/>
<path d="M95.0903 17.6068C94.9225 17.5773 94.7435 17.5622 94.5558 17.5622C93.9593 17.5622 93.4979 17.776 93.1734 18.2045C92.891 18.5823 92.7494 19.0598 92.7494 19.6363V23.4408H91.0544L91.0704 18.4735C91.0704 17.6378 91.0489 16.8769 91.0067 16.1908H92.4838L92.5458 17.5781H92.5928C92.7717 17.1013 93.0541 16.7174 93.4407 16.4296C93.8185 16.1704 94.2265 16.0412 94.6664 16.0412C94.8231 16.0412 94.9646 16.0518 95.0903 16.0707V17.6068Z" fill="white"/>
<path d="M102.674 19.4724C102.674 19.761 102.655 20.0043 102.612 20.203H97.525C97.5449 20.9193 97.7907 21.4671 98.2632 21.8449C98.6919 22.1827 99.2463 22.3519 99.9272 22.3519C100.68 22.3519 101.368 22.2378 101.986 22.0089L102.251 23.1272C101.529 23.4264 100.676 23.5753 99.6925 23.5753C98.509 23.5753 97.5799 23.2443 96.9038 22.5832C96.2293 21.922 95.8913 21.0342 95.8913 19.9204C95.8913 18.8271 96.2055 17.9166 96.8346 17.1904C97.4932 16.4152 98.3833 16.0276 99.5032 16.0276C100.603 16.0276 101.436 16.4152 102.002 17.1904C102.449 17.8063 102.674 18.5679 102.674 19.4724ZM101.057 19.0545C101.069 18.577 100.958 18.1644 100.728 17.8161C100.435 17.368 99.9836 17.1444 99.3767 17.1444C98.8223 17.1444 98.3714 17.3627 98.027 17.801C97.7446 18.1493 97.5767 18.5671 97.525 19.0538L101.057 19.0545Z" fill="white"/>
<path d="M24.6343 17.9948C24.6138 15.7282 26.4954 14.6254 26.5814 14.5741C25.5158 13.0248 23.8642 12.8131 23.2838 12.7962C21.8966 12.6506 20.551 13.624 19.8444 13.624C19.1237 13.624 18.0355 12.8103 16.8627 12.8342C15.3535 12.8574 13.9417 13.7288 13.1673 15.0819C11.5693 17.8408 12.7611 21.8952 14.2922 24.1253C15.058 25.2175 15.953 26.437 17.1244 26.3941C18.2703 26.3469 18.6984 25.6655 20.0814 25.6655C21.4516 25.6655 21.8536 26.3941 23.0482 26.3666C24.2782 26.347 25.0525 25.2695 25.7916 24.1675C26.6766 22.9157 27.0321 21.6828 27.0462 21.6195C27.0173 21.6097 24.6576 20.7116 24.6343 17.9948Z" fill="white"/>
<path d="M22.3776 11.3292C22.9939 10.5605 23.4157 9.51474 23.2986 8.45349C22.4065 8.49287 21.2908 9.06886 20.6484 9.82066C20.08 10.4831 19.5722 11.569 19.7034 12.5902C20.7055 12.6647 21.7344 12.0859 22.3776 11.3292Z" fill="white"/>
</svg>
