<svg width="120" height="36" viewBox="0 0 120 36" fill="none" xmlns="http://www.w3.org/2000/svg">
<path d="M119.5 31.3838C119.5 33.5523 117.338 35.464 114.464 35.464H6.17055C3.29596 35.4642 1.13306 33.5524 1.13306 31.3838V4.66048C1.13306 2.49236 3.2959 0.580688 6.17055 0.580688H114.464C117.338 0.580688 119.5 2.49225 119.5 4.66048L119.5 31.3838Z" fill="black" stroke="white"/>
<path d="M56.6392 23.5147L55.6952 20.7256H51.7619L50.8179 23.5147H49.1516L52.8775 13.1951H54.6082L58.3341 23.5147H56.6392ZM53.7071 14.9114L52.1695 19.4383H55.2876L53.75 14.9114H53.7071Z" fill="white"/>
<path d="M59.2853 23.5147V15.9913H60.7585V17.2499H60.7943C61.004 16.8113 61.3092 16.4704 61.7096 16.2273C62.1101 15.9841 62.594 15.8626 63.1614 15.8626C63.9862 15.8626 64.6275 16.1105 65.0851 16.6063C65.5428 17.0974 65.7717 17.7768 65.7717 18.6445V23.5147H64.2198V18.9449C64.2198 18.3727 64.0839 17.9389 63.8122 17.6433C63.5452 17.3429 63.1471 17.1927 62.6179 17.1927C62.0744 17.1927 61.6405 17.3691 61.3163 17.7219C60.9921 18.0748 60.83 18.5444 60.83 19.1308V23.5147H59.2853Z" fill="white"/>
<path d="M70.0912 23.6434C69.1377 23.6434 68.3725 23.2906 67.7956 22.585C67.2187 21.8794 66.9302 20.9354 66.9302 19.753C66.9302 18.5706 67.2163 17.629 67.7884 16.9281C68.3653 16.2225 69.1281 15.8697 70.0769 15.8697C70.6061 15.8697 71.0781 15.9937 71.4929 16.2416C71.9077 16.4847 72.2223 16.8185 72.4369 17.2428H72.4655V13.1951H74.0174V23.5147H72.5156V22.2345H72.4869C72.2629 22.6732 71.9411 23.0188 71.5215 23.2715C71.1067 23.5194 70.6299 23.6434 70.0912 23.6434ZM70.4988 17.1713C69.8886 17.1713 69.4047 17.4049 69.0471 17.8721C68.6895 18.3346 68.5107 18.9615 68.5107 19.753C68.5107 20.5492 68.6895 21.1785 69.0471 21.641C69.4047 22.1034 69.8886 22.3347 70.4988 22.3347C71.0948 22.3347 71.5739 22.101 71.9363 21.6338C72.2986 21.1618 72.4798 20.5349 72.4798 19.753C72.4798 18.9758 72.2986 18.3513 71.9363 17.8793C71.5739 17.4073 71.0948 17.1713 70.4988 17.1713Z" fill="white"/>
<path d="M75.605 23.5147V15.9913H77.0782V17.2714H77.114C77.2379 16.8328 77.4596 16.4895 77.7791 16.2416C78.0985 15.9937 78.4799 15.8697 78.9233 15.8697C79.0711 15.8697 79.2475 15.8888 79.4525 15.9269V17.3644C79.3142 17.3072 79.083 17.2786 78.7588 17.2786C78.263 17.2786 77.8696 17.4335 77.5788 17.7434C77.2928 18.0533 77.1497 18.4752 77.1497 19.0092V23.5147H75.605Z" fill="white"/>
<path d="M85.9103 22.6136C85.2619 23.3097 84.3966 23.6577 83.3143 23.6577C82.2321 23.6577 81.3667 23.3097 80.7183 22.6136C80.0699 21.9127 79.7457 20.9592 79.7457 19.753C79.7457 18.5515 80.0699 17.6028 80.7183 16.9067C81.3667 16.2058 82.2321 15.8554 83.3143 15.8554C84.3966 15.8554 85.2619 16.2058 85.9103 16.9067C86.5587 17.6028 86.8829 18.5515 86.8829 19.753C86.8829 20.9592 86.5587 21.9127 85.9103 22.6136ZM83.3143 22.3847C83.9293 22.3847 84.4156 22.1535 84.7732 21.691C85.1308 21.2286 85.3096 20.5825 85.3096 19.753C85.3096 18.9282 85.1284 18.2845 84.7661 17.8221C84.4085 17.3596 83.9246 17.1284 83.3143 17.1284C82.7041 17.1284 82.2178 17.3596 81.8554 17.8221C81.4978 18.2845 81.319 18.9282 81.319 19.753C81.319 20.5825 81.4978 21.2286 81.8554 21.691C82.2178 22.1535 82.7041 22.3847 83.3143 22.3847Z" fill="white"/>
<path d="M88.1273 23.5147V15.9913H89.672V23.5147H88.1273ZM89.5361 14.6325C89.3597 14.8041 89.1476 14.89 88.8996 14.89C88.6517 14.89 88.4396 14.8041 88.2632 14.6325C88.0915 14.4609 88.0057 14.2535 88.0057 14.0103C88.0057 13.7624 88.0915 13.5526 88.2632 13.381C88.4396 13.2094 88.6517 13.1235 88.8996 13.1235C89.1523 13.1235 89.3645 13.2094 89.5361 13.381C89.7125 13.5526 89.8007 13.7624 89.8007 14.0103C89.8007 14.2535 89.7125 14.4609 89.5361 14.6325Z" fill="white"/>
<path d="M94.0773 23.6434C93.1238 23.6434 92.3586 23.2906 91.7817 22.585C91.2048 21.8794 90.9164 20.9354 90.9164 19.753C90.9164 18.5706 91.2024 17.629 91.7745 16.9281C92.3514 16.2225 93.1143 15.8697 94.063 15.8697C94.5922 15.8697 95.0642 15.9937 95.479 16.2416C95.8938 16.4847 96.2085 16.8185 96.423 17.2428H96.4516V13.1951H98.0035V23.5147H96.5017V22.2345H96.4731C96.249 22.6732 95.9272 23.0188 95.5076 23.2715C95.0928 23.5194 94.6161 23.6434 94.0773 23.6434ZM94.485 17.1713C93.8747 17.1713 93.3908 17.4049 93.0332 17.8721C92.6756 18.3346 92.4968 18.9615 92.4968 19.753C92.4968 20.5492 92.6756 21.1785 93.0332 21.641C93.3908 22.1034 93.8747 22.3347 94.485 22.3347C95.0809 22.3347 95.5601 22.101 95.9224 21.6338C96.2848 21.1618 96.4659 20.5349 96.4659 19.753C96.4659 18.9758 96.2848 18.3513 95.9224 17.8793C95.5601 17.4073 95.0809 17.1713 94.485 17.1713Z" fill="white"/>
<g clip-path="url(#clip0)">
<path d="M25.3898 19.9594C25.3898 20.6639 24.899 21.2406 24.2993 21.2406C23.6997 21.2406 23.2083 20.6644 23.2083 19.9594V15.7664C23.2083 15.0619 23.6991 14.4852 24.2993 14.4852C24.8995 14.4852 25.3898 15.0619 25.3898 15.7664V19.9594ZM38.1074 19.9594C38.1074 20.6639 37.6166 21.2406 37.0163 21.2406C36.4161 21.2406 35.9253 20.6644 35.9253 19.9594V15.7664C35.9253 15.0619 36.4161 14.4852 37.0163 14.4852C37.6166 14.4852 38.1074 15.0619 38.1074 15.7664V19.9594ZM33.0427 10.4325L33.7426 9.17652C33.7998 9.074 33.7827 8.9543 33.7053 8.91135C33.628 8.86839 33.5169 8.9165 33.4602 9.01902L32.7443 10.3042C32.0717 10.0427 31.356 9.90978 30.6343 9.91249C29.8726 9.91249 29.1521 10.0557 28.5095 10.3105L27.7901 9.01959C27.7329 8.91707 27.6223 8.86839 27.545 8.91192C27.4677 8.95545 27.4505 9.07457 27.5078 9.17709L28.2111 10.4394C26.7478 11.1267 25.7621 12.4171 25.7621 13.8959C25.7621 14.0459 25.773 14.1943 25.7924 14.3403H35.4768C35.4969 14.1943 35.5072 14.0465 35.5072 13.8959C35.5072 12.4125 34.5152 11.1187 33.0438 10.4331L33.0427 10.4325ZM28.4224 12.625C28.3665 12.625 28.3111 12.6139 28.2594 12.5925C28.2077 12.5711 28.1607 12.5397 28.1211 12.5002C28.0816 12.4606 28.0502 12.4136 28.0288 12.3619C28.0073 12.3102 27.9963 12.2548 27.9963 12.1988C27.9963 12.1429 28.0073 12.0875 28.0288 12.0358C28.0502 11.9841 28.0816 11.9371 28.1211 11.8975C28.1607 11.858 28.2077 11.8266 28.2594 11.8052C28.3111 11.7838 28.3665 11.7727 28.4224 11.7727C28.5354 11.7727 28.6438 11.8176 28.7237 11.8975C28.8037 11.9774 28.8485 12.0858 28.8485 12.1988C28.8485 12.3119 28.8037 12.4202 28.7237 12.5002C28.6438 12.5801 28.5354 12.625 28.4224 12.625ZM32.8691 12.625C32.8132 12.625 32.7578 12.6139 32.7061 12.5925C32.6544 12.5711 32.6074 12.5397 32.5678 12.5002C32.5283 12.4606 32.4969 12.4136 32.4755 12.3619C32.4541 12.3102 32.443 12.2548 32.443 12.1988C32.443 12.1429 32.4541 12.0875 32.4755 12.0358C32.4969 11.9841 32.5283 11.9371 32.5678 11.8975C32.6074 11.858 32.6544 11.8266 32.7061 11.8052C32.7578 11.7838 32.8132 11.7727 32.8691 11.7727C32.9822 11.7727 33.0905 11.8176 33.1705 11.8975C33.2504 11.9774 33.2953 12.0858 33.2953 12.1988C33.2953 12.3119 33.2504 12.4202 33.1705 12.5002C33.0905 12.5801 32.9822 12.625 32.8691 12.625ZM25.7609 14.7636V21.9061H25.7649C25.8148 22.5092 26.3698 22.9886 27.0421 22.9886H34.2248C34.8966 22.9886 35.4516 22.5092 35.502 21.9061H35.506V14.7636H25.7615H25.7609ZM29.9362 22.9531V25.1627C29.9362 25.8672 29.4453 26.4439 28.8451 26.4439C28.2449 26.4439 27.7546 25.8672 27.7546 25.1627V22.9548L29.9362 22.9531ZM33.5719 22.9519V25.1627C33.5719 25.8672 33.0811 26.4439 32.4808 26.4439C31.8806 26.4439 31.3898 25.8672 31.3898 25.1627V22.9519H33.5719Z" fill="white"/>
</g>
<defs>
<clipPath id="clip0">
<rect width="17.5755" height="17.5755" fill="white" transform="translate(21.8701 8.86841)"/>
</clipPath>
</defs>
</svg>
