<svg width="188" height="50" fill="none" xmlns="http://www.w3.org/2000/svg"><path d="M24.395 35.159a5.4 5.4 0 002.438-.56c.75-.372 1.375-.806 1.875-1.427s.938-1.304 1.188-2.112c.25-.807.437-1.676.437-2.608 0-1.242-.375-2.297-1.125-3.167-.75-.869-1.813-1.304-3.125-1.304-.813 0-1.626.187-2.376.56a6.456 6.456 0 00-1.938 1.49c-.563.62-.938 1.366-1.25 2.173a7.175 7.175 0 00-.5 2.608c0 1.304.375 2.36 1.188 3.229.75.683 1.875 1.118 3.188 1.118zm22.38-11.489c-.75 0-1.438.125-2 .373-.625.249-1.126.621-1.563.994-.438.434-.813.87-1.126 1.366-.312.497-.5.994-.562 1.428h8.94c0-.186.062-.31.062-.497V26.9c0-.932-.313-1.739-1-2.36-.626-.559-1.563-.87-2.751-.87z" fill="#fff"/><path d="M54.276 28.95c-.062.683-.187 1.304-.312 1.925H41.086c0 .124-.062.248-.062.372 0 .56.125 1.118.312 1.553.25.496.563.869.938 1.242.438.372.875.62 1.438.807.562.186 1.125.31 1.813.31 1.125 0 2.063-.186 2.813-.62.75-.435 1.5-.932 2.125-1.677l2.438 2.235c-2.125 2.298-4.75 3.416-7.814 3.416-1.188 0-2.25-.187-3.25-.497-1-.373-1.814-.87-2.564-1.49-.75-.622-1.312-1.429-1.688-2.36-.437-.932-.625-2.05-.625-3.23 0-1.49.25-2.856.75-4.16.5-1.304 1.188-2.422 2.126-3.353.875-.931 1.938-1.677 3.188-2.235 1.25-.56 2.563-.808 4.063-.808 1 0 2 .124 2.876.435.875.31 1.625.745 2.313 1.304.625.559 1.125 1.304 1.5 2.173.375.87.563 1.863.563 2.981 0 .497 0 .994-.063 1.677zM81.47 8.333c-4.001-9.376-22.505-11.24-47.823-.683-3.876 1.615-7.376 3.291-10.564 5.092l-2.063 10.93h.062c.688-.994 1.563-1.802 2.688-2.36a7.555 7.555 0 013.563-.87c1.126 0 2.126.187 3.001.56.875.372 1.688.869 2.313 1.49a7.633 7.633 0 011.5 2.36c.375.93.5 1.924.5 2.98 0 1.49-.25 2.856-.687 4.16-.5 1.304-1.126 2.422-1.938 3.354-.813.993-1.813 1.738-3 2.297a8.801 8.801 0 01-3.814.87c-1.313 0-2.5-.31-3.626-.87a5.814 5.814 0 01-2.563-2.484h-.062l-.5 2.919h-4.001l4-22.541C4.142 24.727-1.36 34.91 1.704 42.052c4 9.377 25.13 9.5 47.135.186a95.607 95.607 0 0010.127-4.967c-.688-.683-1.063-1.615-1.063-2.733 0-.31 0-.683.063-1.117.062-.373.062-.746.187-1.118l1.5-7.949h-3.125l.625-3.415h3l.876-5.03h4.188l-.875 5.03h3.876l-.625 3.415H63.78l-1.5 8.01c-.063.436-.126.746-.126 1.057 0 .62.188 1.055.563 1.304a.475.475 0 00.25.124C76.719 26.093 84.533 15.537 81.47 8.333zm3.626 22.231c0 1.242.375 2.297 1.125 3.167.75.869 1.75 1.304 3.125 1.304.813 0 1.626-.187 2.376-.56a6.458 6.458 0 001.938-1.49c.562-.62.938-1.304 1.25-2.11.313-.808.5-1.677.5-2.547 0-1.304-.375-2.36-1.188-3.229-.812-.807-1.875-1.242-3.188-1.242a5.4 5.4 0 00-2.438.559c-.75.373-1.375.87-1.875 1.428-.5.621-.938 1.304-1.188 2.112-.25.807-.438 1.676-.438 2.608zm11.252-6.955L96.785 21h4.064l-2.75 15.71c-.25 1.49-.626 2.857-1.126 4.099a10.177 10.177 0 01-2 3.167c-.813.869-1.876 1.552-3.126 2.049-1.25.497-2.75.745-4.501.745-.75 0-1.438-.062-2.25-.186-.75-.124-1.5-.31-2.251-.56a9.438 9.438 0 01-2.125-.993c-.688-.372-1.25-.807-1.688-1.304l2.813-3.043c.688.808 1.5 1.367 2.5 1.801 1 .435 2 .621 3.126.621 1.063 0 1.938-.124 2.688-.434.75-.31 1.375-.684 1.875-1.242.5-.497.876-1.18 1.188-1.863.313-.745.5-1.553.75-2.36l.313-1.366h-.25a6.991 6.991 0 01-2.438 1.987c-1 .497-2.188.745-3.5.745-1.126 0-2.126-.186-3.001-.559-.876-.372-1.688-.87-2.314-1.49-.625-.621-1.125-1.428-1.5-2.298-.375-.931-.5-1.925-.5-2.98 0-1.428.25-2.857.688-4.099.5-1.304 1.125-2.421 1.938-3.353.812-.994 1.813-1.739 3-2.298 1.188-.558 2.438-.807 3.814-.807 1.562 0 2.875.31 3.813.87.938.558 1.688 1.304 2.125 2.235h.188v-.186zm17.441 6.644c-.812 0-1.688 0-2.563.062-.875.062-1.688.187-2.438.435a4.188 4.188 0 00-1.813.931c-.5.373-.687.932-.687 1.615 0 .435.062.745.25.993.125.249.375.497.625.683.25.187.563.311.875.373.313.062.688.124 1.063.124.625 0 1.25-.124 1.813-.31a4.527 4.527 0 001.5-.87c.438-.372.75-.807 1.063-1.304.25-.496.5-.993.625-1.614l.187-1.056h-.5v-.062zm.875-2.98c.063-.311.063-.497.063-.684v-.434c0-.808-.25-1.428-.813-1.801-.562-.373-1.312-.559-2.375-.559-.813 0-1.688.186-2.626.497a9.533 9.533 0 00-2.375 1.242l-1.626-2.795a12.117 12.117 0 013.376-1.614c1.25-.373 2.563-.621 3.876-.621.813 0 1.625.062 2.438.248.813.187 1.5.497 2.188.87.625.434 1.125.931 1.5 1.614s.563 1.49.563 2.422c0 .186 0 .497-.063.807 0 .31-.062.56-.125.808l-1.25 6.954c-.125.683-.25 1.367-.313 2.05-.062.745-.125 1.304-.125 1.8h-3.875c0-.62.062-1.304.187-2.049h-.062c-1.376 1.615-3.189 2.422-5.627 2.422-.625 0-1.25-.062-1.875-.186-.625-.125-1.25-.373-1.75-.745a5.498 5.498 0 01-1.313-1.367c-.313-.559-.5-1.304-.5-2.173 0-1.428.375-2.546 1.125-3.415.75-.87 1.75-1.553 2.938-2.05 1.188-.496 2.563-.807 4.001-.993a38.24 38.24 0 014.438-.248zm9.502-4.347c.125-.745.187-1.366.25-1.925h3.938c0 .248-.063.683-.125 1.242a28.196 28.196 0 01-.188 1.428h.063c.5-.807 1.25-1.552 2.063-2.174.875-.62 1.938-.993 3.25-.993 1.438 0 2.626.31 3.501.931s1.438 1.429 1.688 2.422a9.006 9.006 0 012.626-2.484c1-.62 2.188-.87 3.5-.87 1.001 0 1.876.125 2.563.436.751.31 1.313.683 1.813 1.117.5.497.813 1.056 1.063 1.677.25.683.313 1.366.313 2.05 0 .62-.063 1.117-.126 1.614l-1.937 10.68h-4.189l1.688-9.438c.063-.31.063-.56.125-.87.063-.31.063-.559.063-.87 0-.372-.063-.744-.125-1.117-.125-.372-.25-.683-.501-.931a1.86 1.86 0 00-.875-.621c-.375-.186-.812-.249-1.375-.249-.688 0-1.25.125-1.813.435-.5.31-1 .683-1.375 1.118a6.044 6.044 0 00-.938 1.49c-.25.559-.437 1.118-.5 1.677l-1.625 9.376h-4.251l1.813-10.37c.062-.372.125-.683.125-.993 0-.808-.188-1.49-.625-1.987-.438-.497-1.126-.746-2.001-.746-.625 0-1.25.125-1.75.435-.5.248-.938.621-1.375 1.056a6.014 6.014 0 00-.938 1.49c-.25.559-.438 1.118-.5 1.677l-1.688 9.438h-4.188l2.375-13.475c0-.372.125-.993.188-1.676zm42.696 4.967c0-.186.062-.31.062-.496v-.435c0-.931-.312-1.739-1-2.36-.687-.62-1.563-.993-2.813-.993-.75 0-1.438.124-2 .372-.625.249-1.125.621-1.563.994-.438.435-.813.87-1.125 1.366-.313.497-.5.994-.563 1.428h9.002v.125zm-9.377 2.981c0 .124-.063.249-.063.373 0 .559.125 1.117.313 1.552.25.497.563.87.938 1.242.437.373.875.621 1.438.807.562.187 1.125.31 1.812.31 1.126 0 2.063-.185 2.813-.62.751-.435 1.501-.932 2.126-1.677l2.438 2.236c-2.126 2.297-4.751 3.415-7.814 3.415-1.188 0-2.251-.186-3.251-.497a8.653 8.653 0 01-2.563-1.49c-.75-.621-1.313-1.428-1.688-2.36-.437-.931-.625-2.049-.625-3.229 0-1.49.25-2.856.75-4.16.5-1.304 1.188-2.422 2.126-3.354.875-.93 1.938-1.676 3.188-2.235 1.25-.559 2.563-.807 4.063-.807 1 0 2.001.124 2.876.434s1.625.746 2.313 1.305c.625.558 1.125 1.303 1.5 2.173.375.87.563 1.863.563 2.98 0 .373-.063.932-.125 1.615-.063.683-.188 1.304-.313 1.925h-12.815v.062zm17.191 2.36c.375.683.875 1.242 1.625 1.614.688.373 1.501.56 2.376.56 1 0 1.75-.187 2.375-.56.563-.372.875-.931.875-1.552s-.25-1.056-.687-1.366c-.438-.31-1.188-.621-2.251-.932-.812-.248-1.5-.559-2.125-.807a4.498 4.498 0 01-1.5-.994c-.438-.372-.688-.807-.938-1.242a4.703 4.703 0 01-.313-1.676c0-.808.188-1.615.563-2.298.375-.683.938-1.304 1.563-1.8.687-.497 1.438-.87 2.375-1.18.938-.249 1.938-.435 3.001-.435 1.375 0 2.563.248 3.688.745 1.063.497 1.938 1.242 2.563 2.236l-3.25 1.924c-.313-.496-.751-.869-1.251-1.18-.5-.31-1.187-.496-2.063-.496-.375 0-.75.062-1.125.124s-.688.186-1 .31a2.23 2.23 0 00-.688.622c-.187.248-.25.558-.25.993 0 .559.25.932.688 1.242.5.248 1.188.497 2.063.807 1.625.435 2.875 1.056 3.751 1.863.875.745 1.312 1.863 1.312 3.291 0 .932-.187 1.801-.625 2.546-.437.745-.938 1.366-1.625 1.863-.688.497-1.5.87-2.376 1.118-.875.248-1.875.373-2.875.373-1.876 0-3.376-.31-4.501-.994-1.125-.683-2.001-1.49-2.626-2.422l3.251-2.297z" fill="#fff"/></svg>