<svg width="73" height="73" fill="none" xmlns="http://www.w3.org/2000/svg"><g clip-path="url(#clip0)"><path d="M36.493 72.972c20.154 0 36.493-16.332 36.493-36.479C72.986 16.347 56.647.015 36.493.015 16.338.015 0 16.347 0 36.493 0 56.64 16.338 72.972 36.493 72.972z" fill="url(#paint0_linear)"/><path d="M36.493 72.546c19.92 0 36.068-16.141 36.068-36.053S56.412.439 36.493.439C16.573.44.425 16.581.425 36.493c0 19.912 16.148 36.053 36.068 36.053z" fill="url(#paint1_linear)"/><path opacity=".21" d="M61.573 10.997c-14.093-14.087-36.918-14.087-51.01 0-14.093 14.087-14.093 36.904 0 50.991l51.01-50.99z" fill="#fff"/><path d="M36.493 8.63C21.096 8.63 8.62 21.103 8.62 36.494c0 15.39 12.476 27.862 27.873 27.862s27.873-12.471 27.873-27.862c0-15.39-12.476-27.862-27.873-27.862zm0 51.332c-12.958 0-23.478-10.502-23.478-23.47 0-12.966 10.505-23.468 23.478-23.468 12.972 0 23.478 10.502 23.478 23.469S49.465 59.962 36.493 59.962z" fill="url(#paint2_linear)"/><path d="M36.493 64.638c-15.524 0-28.157-12.627-28.157-28.145 0-15.519 12.633-28.146 28.157-28.146 15.524 0 28.157 12.627 28.157 28.146 0 15.518-12.633 28.145-28.157 28.145zm0-55.724c-15.213 0-27.59 12.372-27.59 27.579 0 15.206 12.377 27.579 27.59 27.579 15.212 0 27.59-12.373 27.59-27.58 0-15.206-12.378-27.578-27.59-27.578z" fill="gray"/><path d="M36.493 63.108c-14.688 0-26.625-11.947-26.625-26.615 0-14.682 11.951-26.615 26.625-26.615 14.688 0 26.625 11.947 26.625 26.615 0 14.682-11.937 26.615-26.625 26.615zm0-52.663c-14.376 0-26.058 11.692-26.058 26.048 0 14.37 11.696 26.048 26.058 26.048 14.376 0 26.058-11.692 26.058-26.048 0-14.356-11.682-26.048-26.058-26.048z" fill="gray"/><path d="M38.62 4.252h-4.24a1.706 1.706 0 01-1.7-1.701V.213c2.551-.298 5.018-.284 7.627 0V2.55c0 .935-.766 1.7-1.687 1.7z" fill="#672121"/><path opacity=".44" d="M36.309 0c1.233 0 2.48.07 3.757.213V2.55c0 .935-.752 1.7-1.673 1.7h.085c.935 0 1.701-.765 1.701-1.7V.213A36.413 36.413 0 0036.31 0z" fill="#F2F2F2"/><path d="M15.1 12.259l-2.992 2.99a1.686 1.686 0 01-2.396 0l-1.645-1.63a34.64 34.64 0 015.373-5.413l1.66 1.658a1.685 1.685 0 010 2.395z" fill="#672121"/><path opacity=".51" d="M14.957 10.005l-1.659-1.658a34.204 34.204 0 00-2.892 2.608c.837-.836 1.73-1.63 2.694-2.41l1.659 1.659c.666.666.68 1.715.042 2.352l.156-.155a1.685 1.685 0 000-2.396z" fill="#DEDEDE"/><path d="M57.773 60.77l2.992-2.99a1.686 1.686 0 012.396 0l1.687 1.686c-1.602 2.012-3.36 3.741-5.402 5.4l-1.687-1.687c-.638-.68-.638-1.758.014-2.41zM34.38 68.734h4.24c.935 0 1.7.766 1.7 1.7v2.34c-2.551.297-5.018.283-7.627 0v-2.34a1.685 1.685 0 011.687-1.7zM12.646 58.19l2.992 2.99a1.685 1.685 0 010 2.395l-1.645 1.644c-2.013-1.6-3.828-3.26-5.486-5.3l1.73-1.743c.666-.652 1.757-.652 2.41.014zm48.488-42.487l-2.992-2.99a1.685 1.685 0 010-2.396l1.772-1.785c2.014 1.601 3.658 3.443 5.317 5.484l-1.701 1.7a1.7 1.7 0 01-2.396-.013z" fill="#672121"/><path opacity=".47" d="M58.51 10.686L60.284 8.9a24.15 24.15 0 012.013 1.786 27.625 27.625 0 00-2.24-2.013l-1.772 1.786a1.685 1.685 0 000 2.395l.184.184c-.638-.638-.61-1.686.042-2.352z" fill="#C2C2C2"/><path d="M68.733 38.619V34.38c0-.935.765-1.7 1.701-1.7h2.368c.297 2.55.283 5.017 0 7.624h-2.368a1.694 1.694 0 01-1.701-1.686zM4.267 34.381v4.238c0 .935-.765 1.7-1.7 1.7H.212c-.298-2.55-.284-5.017 0-7.624H2.58c.936-.014 1.687.75 1.687 1.686z" fill="#672121"/><path opacity=".49" d="M2.58 32.964H.213A37.013 37.013 0 000 36.89c0-1.19.07-2.381.213-3.614H2.58c.936 0 1.702.737 1.702 1.63v-.241c-.015-.936-.766-1.7-1.702-1.7z" fill="#D6D6D6"/><path d="M47.067 25.8l-.972 5.544-4.86 4.932c1.464.576 2.58 1.5 3.348 2.772.768 1.272 1.008 2.796.72 4.572-.504 2.688-1.692 4.692-3.564 6.012-1.872 1.296-4.152 1.944-6.84 1.944-2.208 0-4.068-.504-5.58-1.512-1.512-1.008-2.544-2.496-3.096-4.464l6.624-3.42c.456 1.608 1.404 2.412 2.844 2.412 1.464 0 2.304-.624 2.52-1.872.096-.6-.048-1.044-.432-1.332-.36-.312-.84-.468-1.44-.468h-1.476l-2.052-4.176 3.852-3.96h-7.38l1.224-6.984h16.56z" fill="#984F3E"/></g><defs><linearGradient id="paint0_linear" x1="10.689" y1="62.293" x2="62.279" y2="10.682" gradientUnits="userSpaceOnUse"><stop stop-color="#943E39"/><stop offset=".307" stop-color="#DDAA7B"/><stop offset=".379" stop-color="#EEAE8A"/><stop offset=".453" stop-color="#FFCA9A"/><stop offset=".523" stop-color="#D9975A"/><stop offset="1" stop-color="#945A39"/></linearGradient><linearGradient id="paint1_linear" x1="10.99" y1="61.992" x2="61.979" y2="10.983" gradientUnits="userSpaceOnUse"><stop stop-color="#943E39"/><stop offset=".307" stop-color="#DDAA7B"/><stop offset=".379" stop-color="#EEAE8A"/><stop offset=".453" stop-color="#FFCA9A"/><stop offset=".523" stop-color="#D9975A"/><stop offset="1" stop-color="#945A39"/></linearGradient><linearGradient id="paint2_linear" x1="16.784" y1="56.198" x2="56.188" y2="16.779" gradientUnits="userSpaceOnUse"><stop stop-color="#943E39"/><stop offset=".307" stop-color="#DDAA7B"/><stop offset=".379" stop-color="#EEAE8A"/><stop offset=".453" stop-color="#FFCA9A"/><stop offset=".523" stop-color="#D9975A"/><stop offset="1" stop-color="#945A39"/></linearGradient><clipPath id="clip0"><path fill="#fff" d="M0 0h73v73H0z"/></clipPath></defs></svg>