<svg width="23" height="22" fill="none" xmlns="http://www.w3.org/2000/svg"><g clip-path="url(#clip0)"><g clip-path="url(#clip1)" fill="#fff"><path d="M15.43.802H7.485A6.623 6.623 0 00.862 7.424v7.947a6.623 6.623 0 006.622 6.622h7.947a6.623 6.623 0 006.621-6.622V7.424A6.623 6.623 0 0015.431.802zm4.636 14.569a4.64 4.64 0 01-4.635 4.635H7.484a4.64 4.64 0 01-4.635-4.635V7.424A4.64 4.64 0 017.484 2.79h7.947a4.64 4.64 0 014.635 4.635v7.947z"/><path d="M11.457 6.1a5.298 5.298 0 100 10.595 5.298 5.298 0 000-10.595zm0 8.608a3.316 3.316 0 01-3.31-3.31 3.315 3.315 0 013.31-3.312 3.315 3.315 0 013.311 3.311 3.316 3.316 0 01-3.31 3.311zm5.96-8.608a.662.662 0 100-1.325.662.662 0 000 1.325z"/></g></g><defs><clipPath id="clip0"><path fill="#fff" transform="translate(.862 .802)" d="M0 0h21.19v21.19H0z"/></clipPath><clipPath id="clip1"><path fill="#fff" transform="translate(.862 .802)" d="M0 0h21.19v21.19H0z"/></clipPath></defs></svg>