<svg width="24" height="25" fill="none" xmlns="http://www.w3.org/2000/svg"><path d="M1.037 12.34c2.238-1.233 4.736-2.262 7.07-3.296 4.016-1.694 8.048-3.358 12.12-4.908.792-.264 2.216-.522 2.355.652-.076 1.662-.39 3.315-.606 4.967-.548 3.633-1.18 7.254-1.797 10.876-.213 1.206-1.724 1.83-2.69 1.059-2.325-1.57-4.666-3.124-6.96-4.73-.752-.764-.055-1.86.616-2.406 1.914-1.886 3.944-3.488 5.758-5.472.489-1.182-.957-.186-1.434.12-2.62 1.805-5.176 3.72-7.938 5.308-1.411.776-3.056.113-4.466-.32-1.265-.524-3.118-1.052-2.028-1.85z" fill="#fff"/></svg>