<svg width="22" height="22" fill="none" xmlns="http://www.w3.org/2000/svg"><g clip-path="url(#clip0)"><path d="M21.483 15.407c-.057-.094-.41-.849-2.105-2.4-1.775-1.624-1.536-1.36.602-4.17 1.301-1.71 1.822-2.754 1.659-3.201-.155-.426-1.113-.313-1.113-.313l-3.184.018s-.235-.031-.412.072c-.17.102-.28.337-.28.337s-.505 1.324-1.178 2.45c-1.418 2.374-1.987 2.5-2.218 2.352-.54-.343-.404-1.381-.404-2.118 0-2.302.353-3.262-.69-3.51-.347-.082-.602-.137-1.488-.146-1.136-.012-2.1.004-2.644.266-.362.175-.642.566-.471.588.21.028.687.127.94.466.328.438.316 1.422.316 1.422s.188 2.71-.439 3.046c-.43.232-1.02-.24-2.285-2.396-.647-1.103-1.137-2.324-1.137-2.324s-.094-.227-.263-.348c-.204-.148-.49-.195-.49-.195l-3.027.018s-.455.013-.622.208c-.148.174-.012.531-.012.531s2.371 5.468 5.055 8.224c2.462 2.527 5.257 2.36 5.257 2.36h1.266s.383-.041.577-.249c.18-.19.174-.548.174-.548s-.025-1.675.764-1.922c.778-.243 1.776 1.619 2.835 2.336.8.542 1.407.423 1.407.423l2.831-.04s1.48-.09.779-1.237z" fill="#fff"/></g><defs><clipPath id="clip0"><path fill="#fff" transform="translate(.481 .802)" d="M0 0h21.19v21.19H0z"/></clipPath></defs></svg>