<svg width="22" height="22" fill="none" xmlns="http://www.w3.org/2000/svg"><g clip-path="url(#clip0)"><path d="M21.066 6.18c-.575-1.023-1.199-1.211-2.469-1.283-1.269-.086-4.46-.121-7.223-.121-2.77 0-5.961.035-7.229.12-1.267.073-1.892.26-2.472 1.284C1.08 7.2.776 8.96.776 12.056v.01c0 3.084.304 4.856.897 5.866.58 1.023 1.203 1.208 2.47 1.294 1.27.074 4.461.118 7.23.118 2.765 0 5.955-.044 7.225-.117 1.27-.086 1.894-.271 2.469-1.293.597-1.011.9-2.783.9-5.866v-.011c0-3.098-.303-4.856-.901-5.878zM8.722 16.032V8.087l6.622 3.973-6.622 3.973z" fill="#fff"/></g><defs><clipPath id="clip0"><path fill="#fff" transform="translate(.776 .802)" d="M0 0h21.19v21.19H0z"/></clipPath></defs></svg>