<svg width="76" height="61" fill="none" xmlns="http://www.w3.org/2000/svg"><g filter="url(#filter0_d)" fill="#FF2748"><path d="M37.046 54.43c-7.899 0-14.32-6.41-14.32-14.297 0-7.844 6.421-14.255 14.32-14.255s14.32 6.41 14.32 14.297c0 7.845-6.421 14.255-14.32 14.255zm0-26.865c-6.97 0-12.63 5.652-12.63 12.61 0 6.96 5.66 12.61 12.63 12.61 6.97 0 12.63-5.65 12.63-12.61 0-6.958-5.66-12.61-12.63-12.61z"/><path d="M40.326 42.354v1.305H39.05v1.995h-1.395V43.66H32.3v-1.305l3.765-7.2h1.5l-3.765 7.2h3.855v-2.97h1.395v2.97h1.275z"/><path d="M56.983 16.473a2 2 0 00-1.098-1.096l-13.94-5.82a1.988 1.988 0 00-2.618 1.096l-2.281 5.525-2.323-5.525c-.423-1.012-1.605-1.518-2.62-1.096l-13.938 5.82c-1.014.422-1.521 1.603-1.099 2.615l7.012 16.743c.127.337.465.506.76.506.127 0 .212 0 .338-.084a.856.856 0 00.465-1.097l-6.97-16.7c-.084-.17 0-.338.17-.423l5.829-2.446 4.477 9.785a.883.883 0 00.76.506.796.796 0 00.338-.085.851.851 0 00.423-1.096l-4.435-9.742 6.547-2.742c.169-.084.338 0 .422.169l2.957 7.043-3.38 8.098a.856.856 0 00.465 1.096.858.858 0 001.099-.464l3.548-8.435s0-.042.042-.042l3.041-7.338c.085-.169.254-.253.423-.169l6.505 2.7-4.52 9.826a.803.803 0 00.422 1.096c.127.043.254.085.338.085.338 0 .634-.169.76-.506l4.478-9.785 5.83 2.446c.126.043.168.127.168.169 0 .042.043.127 0 .253l-6.927 16.743a.856.856 0 00.465 1.097c.126.042.21.084.338.084.337 0 .633-.21.76-.506l6.97-16.7c.21-.55.21-1.098 0-1.604z"/></g><defs><filter id="filter0_d" x="-3.083" y="-6.598" width="80.225" height="85.028" filterUnits="userSpaceOnUse" color-interpolation-filters="sRGB"><feFlood flood-opacity="0" result="BackgroundImageFix"/><feColorMatrix in="SourceAlpha" values="0 0 0 0 0 0 0 0 0 0 0 0 0 0 0 0 0 0 127 0"/><feOffset dy="4"/><feGaussianBlur stdDeviation="10"/><feColorMatrix values="0 0 0 0 1 0 0 0 0 0.152941 0 0 0 0 0.282353 0 0 0 1 0"/><feBlend in2="BackgroundImageFix" result="effect1_dropShadow"/><feBlend in="SourceGraphic" in2="effect1_dropShadow" result="shape"/></filter></defs></svg>