<svg width="41" height="46" fill="none" xmlns="http://www.w3.org/2000/svg"><path d="M20.388 45.63c-7.9 0-14.32-6.41-14.32-14.297 0-7.845 6.42-14.255 14.32-14.255 7.899 0 14.32 6.41 14.32 14.297 0 7.844-6.421 14.255-14.32 14.255zm0-26.865c-6.97 0-12.63 5.651-12.63 12.61s5.66 12.61 12.63 12.61c6.97 0 12.63-5.651 12.63-12.61s-5.66-12.61-12.63-12.61z" fill="#FF2748"/><path d="M40.325 7.673a2 2 0 00-1.098-1.097L25.287.756a1.988 1.988 0 00-2.618 1.097l-2.281 5.525-2.323-5.525C17.642.84 16.459.335 15.445.756L1.507 6.576C.493 6.998-.014 8.18.408 9.191L7.42 25.934c.127.338.465.506.76.506.127 0 .212 0 .338-.084a.856.856 0 00.465-1.096L2.013 8.559c-.084-.17 0-.338.17-.422L8.01 5.69l4.478 9.784a.883.883 0 00.76.506.797.797 0 00.338-.084.852.852 0 00.423-1.097L9.574 5.058l6.548-2.741c.169-.085.337 0 .422.168l2.957 7.044-3.38 8.097a.856.856 0 00.465 1.097.858.858 0 001.099-.464l3.548-8.435s0-.042.042-.042l3.041-7.339c.085-.168.254-.253.423-.168l6.505 2.699-4.52 9.826a.803.803 0 00.422 1.097c.127.042.254.084.338.084.338 0 .634-.168.76-.506l4.478-9.784 5.83 2.446c.126.042.168.126.168.169 0 .042.042.126 0 .253l-6.927 16.743a.856.856 0 00.464 1.096c.127.043.212.085.338.085a.833.833 0 00.76-.506l6.97-16.701c.211-.549.211-1.097 0-1.603z" fill="#FF2748"/><path d="M21.128 30.659c.8.15 1.455.495 1.965 1.035.51.54.765 1.225.765 2.055 0 1.02-.35 1.825-1.05 2.415-.7.59-1.55.885-2.55.885-.8 0-1.51-.18-2.13-.54-.62-.37-1.06-.9-1.32-1.59l1.17-.69c.31.97 1.07 1.455 2.28 1.455.65 0 1.18-.17 1.59-.51.41-.34.615-.815.615-1.425 0-.61-.205-1.085-.615-1.425-.41-.35-.94-.525-1.59-.525h-.36l-.555-.855 2.43-3.285h-4.665v-1.305h6.3v1.23l-2.28 3.075z" fill="#FF2748"/></svg>