<svg width="42" height="46" fill="none" xmlns="http://www.w3.org/2000/svg"><path d="M20.997 45.168c-7.899 0-14.32-6.41-14.32-14.297 0-7.844 6.421-14.255 14.32-14.255 7.9 0 14.32 6.41 14.32 14.297 0 7.845-6.42 14.255-14.32 14.255zm0-26.865c-6.97 0-12.63 5.652-12.63 12.61 0 6.96 5.66 12.61 12.63 12.61 6.97 0 12.63-5.65 12.63-12.61 0-6.958-5.66-12.61-12.63-12.61z" fill="#FF2748"/><path d="M40.935 7.211a2 2 0 00-1.099-1.096L25.897.295a1.988 1.988 0 00-2.619 1.096l-2.28 5.525-2.324-5.525C18.252.38 17.069-.127 16.055.295l-13.94 5.82C1.103 6.537.596 7.718 1.019 8.73L8.03 25.473c.127.337.465.506.76.506.127 0 .212 0 .339-.084a.856.856 0 00.464-1.097l-6.97-16.7c-.084-.17 0-.338.17-.423L8.62 5.23l4.477 9.785a.883.883 0 00.76.506.798.798 0 00.338-.085c.423-.21.592-.674.423-1.096l-4.435-9.742 6.547-2.742c.169-.084.338 0 .422.169l2.957 7.043-3.38 8.098a.856.856 0 00.466 1.096.858.858 0 001.098-.464l3.548-8.435s0-.042.042-.042l3.042-7.338c.084-.169.253-.253.422-.169l6.505 2.7-4.52 9.826a.803.803 0 00.423 1.096c.126.043.253.085.338.085.337 0 .633-.169.76-.506L33.33 5.23l5.83 2.446c.126.043.169.127.169.17 0 .041.042.126 0 .252L32.402 24.84a.856.856 0 00.465 1.097c.127.042.21.084.338.084.338 0 .633-.21.76-.506l6.97-16.7c.21-.55.21-1.097 0-1.604z" fill="#FF2748"/><path d="M17.537 36.392v-1.14l3.705-3.78c.99-.99 1.485-1.84 1.485-2.55 0-.59-.18-1.05-.54-1.38-.36-.33-.8-.495-1.32-.495-.99 0-1.71.47-2.16 1.41l-1.17-.69c.33-.68.785-1.195 1.365-1.545.59-.35 1.24-.525 1.95-.525.88 0 1.645.29 2.295.87.65.58.975 1.36.975 2.34 0 1.06-.625 2.215-1.875 3.465l-2.685 2.67h4.755v1.35h-6.78z" fill="#FF2748"/></svg>