<svg width="23" height="22" viewBox="0 0 23 22" fill="none" xmlns="http://www.w3.org/2000/svg">
<g clip-path="url(#clip0)">
<g clip-path="url(#clip1)">
<path d="M15.4305 0.802246H7.48407C3.8274 0.802246 0.862061 3.76758 0.862061 7.42426V15.3707C0.862061 19.0273 3.8274 21.9927 7.48407 21.9927H15.4305C19.0872 21.9927 22.0525 19.0273 22.0525 15.3707V7.42426C22.0525 3.76758 19.0872 0.802246 15.4305 0.802246ZM20.0659 15.3707C20.0659 17.9268 17.9866 20.0061 15.4305 20.0061H7.48407C4.92797 20.0061 2.84866 17.9268 2.84866 15.3707V7.42426C2.84866 4.86816 4.92797 2.78885 7.48407 2.78885H15.4305C17.9866 2.78885 20.0659 4.86816 20.0659 7.42426V15.3707Z" fill="white"/>
<path d="M11.4573 6.09973C8.53167 6.09973 6.15967 8.47174 6.15967 11.3973C6.15967 14.3229 8.53167 16.6949 11.4573 16.6949C14.3829 16.6949 16.7549 14.3229 16.7549 11.3973C16.7549 8.47174 14.3829 6.09973 11.4573 6.09973ZM11.4573 14.7083C9.63225 14.7083 8.14627 13.2224 8.14627 11.3973C8.14627 9.57099 9.63225 8.08633 11.4573 8.08633C13.2823 8.08633 14.7683 9.57099 14.7683 11.3973C14.7683 13.2224 13.2823 14.7083 11.4573 14.7083Z" fill="white"/>
<path d="M17.4171 6.09979C17.7828 6.09979 18.0793 5.80332 18.0793 5.43759C18.0793 5.07187 17.7828 4.77539 17.4171 4.77539C17.0514 4.77539 16.7549 5.07187 16.7549 5.43759C16.7549 5.80332 17.0514 6.09979 17.4171 6.09979Z" fill="white"/>
</g>
</g>
<defs>
<clipPath id="clip0">
<rect width="21.1904" height="21.1904" fill="white" transform="translate(0.862061 0.802246)"/>
</clipPath>
<clipPath id="clip1">
<rect width="21.1904" height="21.1904" fill="white" transform="translate(0.862061 0.802246)"/>
</clipPath>
</defs>
</svg>
