<svg width="24" height="25" viewBox="0 0 24 25" fill="none" xmlns="http://www.w3.org/2000/svg">
<path d="M1.03743 12.3396C3.27533 11.1069 5.77345 10.0781 8.10757 9.04402C12.1232 7.35027 16.1547 5.68586 20.2269 4.13632C21.0192 3.8723 22.4428 3.6141 22.5824 4.78825C22.5059 6.45026 22.1916 8.10254 21.9759 9.75482C21.4284 13.3883 20.7957 17.0094 20.1787 20.6309C19.9662 21.8372 18.455 22.4617 17.4881 21.6898C15.1643 20.1201 12.8227 18.5658 10.5286 16.9598C9.77715 16.1962 10.474 15.0996 11.1451 14.5543C13.0591 12.6682 15.0888 11.0657 16.9027 9.08207C17.392 7.90049 15.9463 8.89629 15.4694 9.2014C12.8493 11.007 10.2932 12.9228 7.53078 14.5097C6.11971 15.2864 4.47509 14.6226 3.06467 14.1892C1.80004 13.6656 -0.0531058 13.1381 1.0373 12.3397L1.03743 12.3396Z" fill="white"/>
</svg>
