<svg width="22" height="22" viewBox="0 0 22 22" fill="none" xmlns="http://www.w3.org/2000/svg">
<g clip-path="url(#clip0)">
<path d="M21.4828 15.4069C21.4258 15.3129 21.0735 14.5582 19.3781 13.007C17.6033 11.3826 17.8417 11.6464 19.9795 8.8377C21.2814 7.12716 21.802 6.08256 21.639 5.63599C21.4841 5.21032 20.5265 5.32261 20.5265 5.32261L17.3424 5.34089C17.3424 5.34089 17.1066 5.30955 16.9305 5.41271C16.7596 5.51456 16.6497 5.74959 16.6497 5.74959C16.6497 5.74959 16.145 7.07363 15.4722 8.19918C14.0536 10.5743 13.4854 10.6997 13.2536 10.5521C12.7146 10.2087 12.8497 9.17066 12.8497 8.43422C12.8497 6.13218 13.2033 5.17245 12.1596 4.92436C11.8126 4.84209 11.5583 4.78725 10.6722 4.77811C9.53577 4.76636 8.57286 4.78203 8.02849 5.04449C7.66558 5.21946 7.38611 5.60988 7.55697 5.63208C7.76757 5.6595 8.24439 5.75873 8.49737 6.09823C8.82452 6.53566 8.8126 7.52019 8.8126 7.52019C8.8126 7.52019 9.00068 10.2296 8.37419 10.5665C7.94373 10.7976 7.35432 10.3263 6.08943 8.17046C5.44175 7.0671 4.95168 5.84622 4.95168 5.84622C4.95168 5.84622 4.85764 5.61902 4.68943 5.49758C4.48546 5.35003 4.19937 5.30303 4.19937 5.30303L1.17156 5.32131C1.17156 5.32131 0.717258 5.33436 0.550371 5.52892C0.402027 5.70259 0.53845 6.06036 0.53845 6.06036C0.53845 6.06036 2.9093 11.5275 5.59274 14.284C8.05498 16.8106 10.8497 16.6448 10.8497 16.6448H12.1159C12.1159 16.6448 12.4987 16.603 12.6934 16.3954C12.8735 16.2048 12.8669 15.847 12.8669 15.847C12.8669 15.847 12.8417 14.1717 13.6311 13.9249C14.4086 13.682 15.4073 15.544 16.4656 16.2609C17.2656 16.8028 17.8735 16.684 17.8735 16.684L20.704 16.6448C20.704 16.6448 22.1847 16.5547 21.4828 15.4069Z" fill="white"/>
</g>
<defs>
<clipPath id="clip0">
<rect width="21.1904" height="21.1904" fill="white" transform="translate(0.481201 0.802246)"/>
</clipPath>
</defs>
</svg>
