<svg width="22" height="22" viewBox="0 0 22 22" fill="none" xmlns="http://www.w3.org/2000/svg">
<g clip-path="url(#clip0)">
<path d="M21.0657 6.1795C20.4909 5.15706 19.8671 4.969 18.597 4.89748C17.3283 4.81139 14.1378 4.77563 11.3737 4.77563C8.60442 4.77563 5.41261 4.81139 4.14516 4.89616C2.8777 4.969 2.25259 5.15574 1.6725 6.1795C1.08049 7.20061 0.775879 8.95942 0.775879 12.0559C0.775879 12.0585 0.775879 12.0598 0.775879 12.0598C0.775879 12.0625 0.775879 12.0638 0.775879 12.0638V12.0665C0.775879 15.1497 1.08049 16.9217 1.6725 17.9322C2.25259 18.9547 2.87638 19.1401 4.14383 19.2262C5.41261 19.3003 8.60442 19.3441 11.3737 19.3441C14.1378 19.3441 17.3283 19.3003 18.5984 19.2275C19.8685 19.1414 20.4922 18.956 21.067 17.9336C21.6643 16.923 21.9663 15.151 21.9663 12.0678C21.9663 12.0678 21.9663 12.0638 21.9663 12.0612C21.9663 12.0612 21.9663 12.0585 21.9663 12.0572C21.9663 8.95942 21.6643 7.20061 21.0657 6.1795ZM8.72229 16.033V8.08664L15.3443 12.0598L8.72229 16.033Z" fill="white"/>
</g>
<defs>
<clipPath id="clip0">
<rect width="21.1904" height="21.1904" fill="white" transform="translate(0.775879 0.80249)"/>
</clipPath>
</defs>
</svg>
