<svg width="927" height="303" fill="none" xmlns="http://www.w3.org/2000/svg"><path d="M102.517 194.713l-.739-.127-.151.877h.89v-.75zm2.7-15.66l-.494-.563-.2.175-.045.261.739.127zm37.53-32.94l.495.564.001-.001-.496-.563zm12.555-16.74l-.738-.134v.002l.738.132zm-1.35-7.155l-.596.455.005.007.006.007.585-.469zm-21.87 7.83l-.404.632.641.41.401-.646-.638-.396zm-17.28-11.07l-.638-.394-.388.628.622.398.404-.632zm15.525-15.39l.366.655.003-.002-.369-.653zm40.905 3.645l-.55.509.003.005.547-.514zm5.805 22.545l.738.136.001-.005-.739-.131zm-5.94 14.715l.618.425.004-.006-.622-.419zm-12.69 13.635l.489.569.003-.002-.492-.567zm-18.36 15.795l-.489-.568-1.533 1.318h2.022v-.75zm30.375 0l.739.13.154-.88h-.893v.75zm-3.645 20.79v.75h.63l.109-.62-.739-.13zm-63.521.128l2.7-15.66-1.478-.255-2.7 15.66 1.478.255zm2.456-15.224l37.53-32.94-.989-1.127-37.53 32.94.989 1.127zm37.531-32.941c3.803-3.35 6.779-6.448 8.913-9.293 2.129-2.838 3.451-5.467 3.884-7.877l-1.476-.265c-.376 2.09-1.552 4.501-3.608 7.242-2.051 2.736-4.948 5.758-8.704 9.068l.991 1.125zm12.797-17.168c.566-3.114.113-5.74-1.502-7.758l-1.171.937c1.265 1.582 1.711 3.725 1.197 6.552l1.476.269zm-1.491-7.744c-1.613-2.116-4.018-3.131-7.077-3.131v1.5c2.702 0 4.616.876 5.884 2.54l1.193-.909zm-7.077-3.131c-6.211 0-11.545 3.793-16.027 11.02l1.275.791c4.337-6.994 9.264-10.311 14.752-10.311v-1.5zm-14.985 10.784l-17.28-11.07-.809 1.263 17.28 11.07.809-1.263zm-17.047-10.044c4.173-6.748 9.26-11.781 15.253-15.13l-.732-1.309c-6.246 3.491-11.509 8.718-15.797 15.65l1.276.789zm15.256-15.132c6.098-3.446 12.631-5.168 19.611-5.168v-1.5c-7.239 0-14.027 1.789-20.349 5.362l.738 1.306zm19.611-5.168c8.262 0 15.034 2.891 20.375 8.669l1.101-1.018c-5.639-6.101-12.817-9.15-21.476-9.15v1.5zm20.378 8.674c5.301 5.648 7.2 12.911 5.614 21.901l1.477.261c1.653-9.37-.317-17.137-5.997-23.189l-1.094 1.027zm5.615 21.896c-.972 5.302-2.914 10.11-5.825 14.431l1.244.838c3.03-4.498 5.048-9.5 6.056-14.998l-1.475-.271zm-5.821 14.425c-2.923 4.253-7.104 8.751-12.564 13.494l.984 1.133c5.521-4.797 9.8-9.389 12.816-13.777l-1.236-.85zm-12.561 13.492l-18.36 15.795.978 1.137 18.36-15.795-.978-1.137zm-17.871 17.113h30.375v-1.5h-30.375v1.5zm29.637-.879l-3.645 20.79 1.477.259 3.645-20.79-1.477-.259zm-2.907 20.169h-64.26v1.5h64.26v-1.5zm35.125-11.4l-.649.377.004.007.645-.384zm-4.32-36.45l-.739-.13v.001l.739.129zm15.93-34.965l.547.513-.547-.513zm56.295 1.35l-.649.377.002.003.647-.38zm4.32 36.315l.738.131v-.001l-.738-.13zm-15.93 34.965l-.548-.512-.003.003.551.509zm-5.67-36.315l-.739-.131.739.131zm-33.345 0l-.739-.131.739.131zm9.45 48.39c-12.015 0-20.66-4.572-26.086-13.674l-1.289.768c5.734 9.619 14.909 14.406 27.375 14.406v-1.5zm-26.082-13.666c-5.372-9.248-6.821-21.202-4.23-35.944l-1.477-.259c-2.629 14.958-1.197 27.304 4.41 36.956l1.297-.753zm-4.23-35.943c2.592-14.656 7.853-26.165 15.739-34.583l-1.095-1.025c-8.134 8.682-13.493 20.483-16.121 35.347l1.477.261zm15.739-34.583c7.867-8.397 17.568-12.588 29.153-12.588v-1.5c-11.996 0-22.095 4.36-30.248 13.063l1.095 1.025zm29.153-12.588c12.011 0 20.609 4.615 25.946 13.802l1.297-.753c-5.643-9.713-14.775-14.549-27.243-14.549v1.5zm25.948 13.805c5.37 9.156 6.819 21.063 4.228 35.806l1.477.259c2.629-14.957 1.198-27.26-4.412-36.824l-1.293.759zm4.228 35.805c-2.592 14.656-7.853 26.165-15.739 34.583l1.095 1.025c8.134-8.682 13.493-20.483 16.121-35.347l-1.477-.261zm-15.742 34.586c-7.776 8.394-17.431 12.584-29.014 12.584v1.5c11.996 0 22.051-4.36 30.115-13.065l-1.101-1.019zm-26.719-6.976c5.785 0 10.566-2.462 14.297-7.312 3.705-4.817 6.366-11.972 8.041-21.386l-1.477-.263c-1.655 9.306-4.259 16.191-7.753 20.734-3.469 4.51-7.824 6.727-13.108 6.727v1.5zm22.338-28.698c1.671-9.397 1.558-16.595-.485-21.481-1.03-2.463-2.556-4.349-4.591-5.613-2.031-1.26-4.513-1.868-7.407-1.868v1.5c2.686 0 4.877.563 6.616 1.643 1.733 1.076 3.07 2.699 3.998 4.917 1.871 4.474 2.051 11.316.392 20.639l1.477.263zm-12.483-28.962c-5.786 0-10.566 2.463-14.297 7.313-3.706 4.817-6.367 11.972-8.042 21.386l1.477.263c1.655-9.306 4.259-16.191 7.754-20.734 3.469-4.51 7.823-6.728 13.108-6.728v-1.5zm-22.339 28.699c-1.671 9.397-1.558 16.595.485 21.481 1.03 2.462 2.556 4.349 4.591 5.613 2.031 1.26 4.514 1.867 7.408 1.867v-1.5c-2.686 0-4.878-.562-6.616-1.642-1.734-1.076-3.071-2.7-3.999-4.917-1.871-4.474-2.051-11.316-.392-20.639l-1.477-.263zm68.493 35.231l-.649.377.005.007.644-.384zm-4.32-36.45l-.739-.13v.001l.739.129zm15.93-34.965l.547.513-.547-.513zm56.295 1.35l-.649.377.002.003.647-.38zm4.32 36.315l.738.131v-.001l-.738-.13zm-15.93 34.965l-.548-.512-.002.003.55.509zm-5.67-36.315l-.739-.131.739.131zm-33.345 0l-.739-.131.739.131zm9.45 48.39c-12.015 0-20.66-4.572-26.086-13.674l-1.288.768c5.734 9.619 14.909 14.406 27.374 14.406v-1.5zm-26.082-13.666c-5.372-9.248-6.821-21.202-4.23-35.944l-1.477-.259c-2.629 14.958-1.197 27.304 4.41 36.956l1.297-.753zm-4.23-35.943c2.592-14.656 7.853-26.165 15.739-34.583l-1.095-1.025c-8.133 8.682-13.492 20.483-16.121 35.347l1.477.261zm15.739-34.583c7.867-8.397 17.569-12.588 29.153-12.588v-1.5c-11.996 0-22.095 4.36-30.248 13.063l1.095 1.025zm29.153-12.588c12.011 0 20.609 4.615 25.946 13.802l1.297-.753c-5.642-9.713-14.775-14.549-27.243-14.549v1.5zm25.948 13.805c5.37 9.156 6.819 21.063 4.228 35.806l1.477.259c2.629-14.957 1.198-27.26-4.411-36.824l-1.294.759zm4.228 35.805c-2.591 14.656-7.852 26.165-15.739 34.583l1.095 1.025c8.134-8.682 13.493-20.483 16.121-35.347l-1.477-.261zm-15.741 34.586c-7.777 8.394-17.431 12.584-29.015 12.584v1.5c11.996 0 22.051-4.36 30.115-13.065l-1.1-1.019zm-26.72-6.976c5.785 0 10.566-2.462 14.297-7.312 3.705-4.817 6.367-11.972 8.041-21.386l-1.477-.263c-1.655 9.306-4.258 16.191-7.753 20.734-3.469 4.51-7.824 6.727-13.108 6.727v1.5zm22.338-28.698c1.672-9.397 1.558-16.595-.485-21.481-1.03-2.463-2.556-4.349-4.591-5.613-2.03-1.26-4.513-1.868-7.407-1.868v1.5c2.686 0 4.877.563 6.616 1.643 1.733 1.076 3.071 2.699 3.998 4.917 1.872 4.474 2.051 11.316.392 20.639l1.477.263zm-12.483-28.962c-5.786 0-10.566 2.463-14.297 7.313-3.705 4.817-6.367 11.972-8.042 21.386l1.477.263c1.656-9.306 4.259-16.191 7.754-20.734 3.469-4.51 7.823-6.728 13.108-6.728v-1.5zm-22.339 28.699c-1.671 9.397-1.558 16.595.486 21.481 1.03 2.462 2.555 4.349 4.591 5.613 2.03 1.26 4.513 1.867 7.407 1.867v-1.5c-2.686 0-4.878-.562-6.616-1.642-1.734-1.076-3.071-2.7-3.999-4.917-1.871-4.474-2.05-11.316-.392-20.639l-1.477-.263zm68.493 35.231l-.649.377.005.007.644-.384zm-4.32-36.45l-.739-.13v.001l.739.129zm15.93-34.965l.547.513-.547-.513zm56.295 1.35l-.649.377.002.003.647-.38zm4.32 36.315l.738.131.001-.001-.739-.13zm-15.93 34.965l-.547-.512-.003.003.55.509zm-5.67-36.315l-.738-.131.738.131zm-33.345 0l-.738-.131.738.131zm9.45 48.39c-12.015 0-20.66-4.572-26.086-13.674l-1.288.768c5.734 9.619 14.909 14.406 27.374 14.406v-1.5zm-26.082-13.666c-5.372-9.248-6.82-21.202-4.229-35.944l-1.478-.259c-2.629 14.958-1.197 27.304 4.41 36.956l1.297-.753zm-4.23-35.943c2.592-14.656 7.853-26.165 15.739-34.583l-1.094-1.025c-8.134 8.682-13.493 20.483-16.122 35.347l1.477.261zm15.739-34.583c7.867-8.397 17.569-12.588 29.153-12.588v-1.5c-11.996 0-22.095 4.36-30.247 13.063l1.094 1.025zm29.153-12.588c12.011 0 20.609 4.615 25.946 13.802l1.297-.753c-5.642-9.713-14.774-14.549-27.243-14.549v1.5zm25.948 13.805c5.37 9.156 6.819 21.063 4.228 35.806l1.478.259c2.628-14.957 1.198-27.26-4.412-36.824l-1.294.759zm4.228 35.805c-2.591 14.656-7.852 26.165-15.738 34.583l1.094 1.025c8.134-8.682 13.493-20.483 16.121-35.347l-1.477-.261zm-15.741 34.586c-7.776 8.394-17.431 12.584-29.015 12.584v1.5c11.996 0 22.051-4.36 30.115-13.065l-1.1-1.019zm-26.72-6.976c5.785 0 10.566-2.462 14.297-7.312 3.705-4.817 6.367-11.972 8.041-21.386l-1.476-.263c-1.656 9.306-4.259 16.191-7.754 20.734-3.469 4.51-7.823 6.727-13.108 6.727v1.5zm22.338-28.698c1.672-9.397 1.559-16.595-.485-21.481-1.03-2.463-2.556-4.349-4.591-5.613-2.03-1.26-4.513-1.868-7.407-1.868v1.5c2.686 0 4.877.563 6.616 1.643 1.733 1.076 3.071 2.699 3.998 4.917 1.872 4.474 2.051 11.316.393 20.639l1.476.263zm-12.483-28.962c-5.785 0-10.566 2.463-14.297 7.313-3.705 4.817-6.367 11.972-8.041 21.386l1.476.263c1.656-9.306 4.259-16.191 7.754-20.734 3.469-4.51 7.823-6.728 13.108-6.728v-1.5zm-22.338 28.699c-1.672 9.397-1.559 16.595.485 21.481 1.03 2.462 2.555 4.349 4.591 5.613 2.03 1.26 4.513 1.867 7.407 1.867v-1.5c-2.686 0-4.878-.562-6.616-1.642-1.733-1.076-3.071-2.7-3.998-4.917-1.872-4.474-2.051-11.316-.393-20.639l-1.476-.263zm172.037-19.444l.741.12v-.004l-.741-.116zm-11.34 18.36l-.43-.614-.826.578.792.625.464-.589zm7.695 21.465l-.743-.101v.002l.743.099zm-10.935 19.575l-.467-.586.467.586zm-63.99 7.425l-.739-.129-.154.879h.893v-.75zm16.605-94.5v-.75h-.63l-.109.621.739.129zm56.16 7.83l-.535.526.005.005.53-.531zm-38.07 12.42v-.75h-.629l-.109.619.738.131zm-2.97 16.74l-.738-.131-.157.881h.895v-.75zm25.11-8.37l-.736-.141-.002.01.738.131zm-6.885 43.2l.475.581.003-.002-.478-.579zm3.78-6.615l.74.124-.74-.124zm-1.485-6.48l-.589.465.014.017.015.017.56-.499zm-23.895-2.565v-.75h-.628l-.11.618.738.132zm-3.24 18.09l-.738-.132-.158.882h.896v-.75zm52.72-46.694c-1.229 7.637-4.902 13.575-11.03 17.865l.86 1.229c6.472-4.531 10.359-10.832 11.651-18.855l-1.481-.239zm-11.064 19.068c6.147 4.848 8.647 11.722 7.416 20.775l1.486.202c1.29-9.486-1.34-16.923-7.973-22.154l-.929 1.177zm7.416 20.777c-1.056 7.914-4.606 14.262-10.659 19.088l.935 1.173c6.366-5.075 10.106-11.777 11.211-20.063l-1.487-.198zm-10.659 19.088c-6.036 4.811-14.4 7.261-25.183 7.261v1.5c10.997 0 19.733-2.499 26.118-7.588l-.935-1.173zm-25.183 7.261h-38.34v1.5h38.34v-1.5zm-37.601.88l16.605-94.5-1.478-.259-16.605 94.5 1.478.259zm15.866-93.88h35.64v-1.5h-35.64v1.5zm35.64 0c8.386 0 15.02 2.554 19.985 7.606l1.07-1.051c-5.295-5.388-12.34-8.055-21.055-8.055v1.5zm19.99 7.611c4.937 4.937 6.823 11.3 5.594 19.199l1.482.231c1.291-8.301-.693-15.168-6.016-20.491l-1.06 1.061zm-22.825 11.139h-14.715v1.5h14.715v-1.5zm-15.453.619l-2.97 16.74 1.477.262 2.97-16.74-1.477-.262zm-2.232 17.621h14.715v-1.5h-14.715v1.5zm14.715 0c2.852 0 5.319-.812 7.357-2.462l-.944-1.166c-1.741 1.41-3.865 2.128-6.413 2.128v1.5zm7.357-2.462c2.038-1.649 3.297-3.838 3.776-6.526l-1.476-.263c-.42 2.352-1.502 4.213-3.244 5.623l.944 1.166zm3.775-6.516c.483-2.514.055-4.723-1.36-6.542l-1.184.921c1.106 1.421 1.487 3.172 1.071 5.338l1.473.283zm-1.36-6.542c-1.453-1.869-3.789-2.72-6.802-2.72v1.5c2.747 0 4.551.769 5.618 2.141l1.184-.921zm-5.784 50.179c2.212-1.828 3.563-4.196 4.042-7.07l-1.48-.247c-.421 2.526-1.59 4.568-3.518 6.16l.956 1.157zm4.042-7.07c.476-2.86-.035-5.269-1.664-7.102l-1.121.997c1.25 1.407 1.729 3.318 1.305 5.858l1.48.247zm-1.636-7.068c-1.54-1.95-3.958-2.851-7.069-2.851v1.5c2.829 0 4.731.81 5.891 2.28l1.178-.929zm-7.069-2.851h-17.415v1.5h17.415v-1.5zm-18.153.618l-3.24 18.09 1.476.265 3.24-18.09-1.476-.265zm-2.502 18.972h17.415v-1.5h-17.415v1.5zm17.415 0c3.114 0 5.765-.852 7.9-2.599l-.95-1.161c-1.825 1.493-4.124 2.26-6.95 2.26v1.5zm124.531-75l.601.449.895-1.199h-1.496v.75zm-39.69 53.19l-.601-.448-.106.143-.031.175.738.13zm-7.29 41.31v.75h.63l.109-.619-.739-.131zm-21.6 0l-.738-.13-.155.88h.893v-.75zm7.29-41.445l.739.13.037-.209-.079-.197-.697.276zm-21.06-53.055v-.75h-1.104l.407 1.027.697-.277zm23.355 0l.709-.246-.175-.504h-.534v.75zm11.07 31.86l-.708.247.483 1.391.841-1.21-.616-.428zm22.14-31.86v-.75h-.392l-.224.322.616.428zm25.184-.448l-39.69 53.19 1.202.897 39.69-53.19-1.202-.897zm-39.827 53.508l-7.29 41.31 1.477.261 7.29-41.31-1.477-.261zm-6.552 40.69h-21.6v1.5h21.6v-1.5zm-20.861.88l7.29-41.445-1.477-.26-7.29 41.445 1.477.26zm7.248-41.851l-21.06-53.055-1.394.553 21.06 53.055 1.394-.553zm-21.757-52.029h23.355v-1.5h-23.355v1.5zm22.647-.503l11.07 31.86 1.417-.493-11.07-31.86-1.417.493zm12.394 32.041l22.14-31.86-1.232-.856-22.14 31.86 1.232.856zm21.524-31.538h25.785v-1.5H623.25v1.5zm17.328 93.75l-.739-.129-.155.879h.894v-.75zm16.605-94.5v-.75h-.63l-.109.621.739.129zm16.2 0l.667-.341-.208-.409h-.459v.75zm27.135 53.055l-.668.342 1.019 1.993.387-2.205-.738-.13zm9.315-53.055v-.75h-.63l-.109.621.739.129zm21.6 0l.738.13.155-.88h-.893v.75zm-16.605 94.5v.75h.629l.109-.62-.738-.13zm-16.2 0l-.669.341.209.409h.46v-.75zm-27-53.055l.668-.34-1.014-1.993-.393 2.202.739.131zm-9.45 53.055v.75h.628l.11-.618-.738-.132zm-20.862.13l16.605-94.5-1.477-.259-16.605 94.5 1.477.259zm15.867-93.88h16.2v-1.5h-16.2v1.5zm15.532-.408l27.135 53.055 1.335-.683-27.135-53.055-1.335.683zm28.541 52.843l9.315-53.055-1.477-.259-9.315 53.055 1.477.259zm8.577-52.435h21.6v-1.5h-21.6v1.5zm20.861-.879l-16.605 94.5 1.477.259 16.605-94.5-1.477-.259zm-15.866 93.879h-16.2v1.5h16.2v-1.5zm-15.532.41l-27-53.055-1.337.681 27 53.055 1.337-.681zm-28.407-52.846l-9.45 53.055 1.477.263 9.45-53.055-1.477-.263zm-8.711 52.436h-21.6v1.5h21.6v-1.5z" fill="#fff"/><g filter="url(#filter0_ddd)"><path d="M102.517 194.713l-1.971-.339-.403 2.339h2.374v-2zm2.7-15.66l-1.319-1.503-.531.467-.121.697 1.971.339zm37.53-32.94l1.32 1.504.002-.003-1.322-1.501zm12.555-16.74l-1.967-.357-.001.003 1.968.354zm-1.35-7.155l-1.591 1.212.015.019.015.019 1.561-1.25zm-21.87 7.83l-1.079 1.684 1.709 1.095 1.07-1.724-1.7-1.055zm-17.28-11.07l-1.701-1.052-1.035 1.675 1.657 1.061 1.079-1.684zm15.525-15.39l.976 1.746.008-.004-.984-1.742zm40.905 3.645l-1.468 1.358.005.005.005.006 1.458-1.369zm5.805 22.545l1.968.361.002-.013-1.97-.348zm-5.94 14.715l1.648 1.133.006-.007.005-.008-1.659-1.118zm-12.69 13.635l1.305 1.517.007-.007-1.312-1.51zm-18.36 15.795l-1.304-1.516-4.087 3.516h5.391v-2zm30.375 0l1.97.346.411-2.346h-2.381v2zm-3.645 20.79v2h1.68l.29-1.654-1.97-.346zm-62.289.34l2.7-15.66-3.942-.679-2.7 15.66 3.942.679zm2.049-14.496l37.53-32.94-2.639-3.007-37.53 32.94 2.639 3.007zm37.532-32.943c3.842-3.384 6.885-6.545 9.087-9.481 2.19-2.92 3.633-5.73 4.115-8.405l-3.937-.709c-.328 1.824-1.383 4.055-3.378 6.714-1.983 2.644-4.812 5.604-8.531 8.88l2.644 3.001zm13.201-17.883c.609-3.352.15-6.38-1.756-8.762l-3.123 2.499c.974 1.218 1.414 2.959.944 5.548l3.935.715zm-1.727-8.725c-1.9-2.493-4.714-3.623-8.071-3.623v4c2.404 0 3.909.761 4.889 2.047l3.182-2.424zm-8.071-3.623c-6.814 0-12.486 4.19-17.089 11.611l3.399 2.109c4.217-6.799 8.805-9.72 13.69-9.72v-4zm-14.311 10.981l-17.28-11.07-2.158 3.368 17.28 11.07 2.158-3.368zm-16.658-8.334c4.078-6.594 9.018-11.465 14.8-14.696l-1.951-3.492c-6.458 3.609-11.868 8.998-16.251 16.084l3.402 2.104zm14.808-14.7c5.911-3.341 12.232-5.007 18.996-5.007v-4c-7.456 0-14.455 1.845-20.964 5.524l1.968 3.483zm18.996-5.007c7.931 0 14.364 2.758 19.457 8.268l2.937-2.715c-5.888-6.37-13.405-9.553-22.394-9.553v4zm19.467 8.279c4.985 5.312 6.824 12.155 5.294 20.829l3.939.695c1.709-9.687-.321-17.873-6.316-24.261l-2.917 2.737zm5.296 20.816c-.942 5.138-2.82 9.784-5.632 13.958l3.318 2.235c3.129-4.646 5.211-9.81 6.249-15.472l-3.935-.721zm-5.621 13.942c-2.845 4.139-6.946 8.56-12.353 13.259l2.623 3.019c5.572-4.841 9.932-9.51 13.026-14.012l-3.296-2.266zm-12.346 13.252l-18.36 15.795 2.609 3.033 18.36-15.795-2.609-3.033zm-17.056 19.311h30.375v-4h-30.375v4zm28.405-2.345l-3.645 20.79 3.94.691 3.645-20.79-3.94-.691zm-1.675 19.135h-64.26v4h64.26v-4zm35.125-10.15l-1.73 1.005.006.01.006.01 1.718-1.025zm-4.32-36.45l-1.97-.348v.002l1.97.346zm15.93-34.965l1.459 1.368-1.459-1.368zm56.295 1.35l-1.73 1.005.004.007 1.726-1.012zm4.32 36.315l1.969.349v-.002l-1.969-.347zm-15.93 34.965l-1.46-1.367-.008.008 1.468 1.359zm-5.67-36.315l-1.97-.35 1.97.35zm-33.345 0l-1.97-.35 1.97.35zm9.45 47.14c-11.64 0-19.844-4.393-25.013-13.064l-3.435 2.049c5.991 10.049 15.607 15.015 28.448 15.015v-4zm-25.001-13.044c-5.177-8.911-6.639-20.538-4.08-35.099l-3.939-.693c-2.661 15.139-1.243 27.812 4.56 37.801l3.459-2.009zm-4.08-35.097c2.561-14.484 7.74-25.749 15.42-33.946l-2.919-2.735c-8.34 8.902-13.781 20.948-16.44 35.984l3.939.697zm15.42-33.946c7.629-8.144 17-12.193 28.241-12.193v-4c-12.34 0-22.769 4.501-31.16 13.458l2.919 2.735zm28.241-12.193c11.63 0 19.782 4.43 24.865 13.18l3.459-2.009c-5.897-10.151-15.475-15.17-28.324-15.17v3.999zm24.869 13.187c5.171 8.816 6.635 20.394 4.076 34.957l3.939.693c2.661-15.137 1.245-27.77-4.564-37.673l-3.451 2.023zm4.076 34.955c-2.561 14.484-7.74 25.748-15.42 33.946l2.919 2.735c8.34-8.903 13.781-20.948 16.44-35.984l-3.939-.697zm-15.428 33.954c-7.536 8.136-16.857 12.184-28.097 12.184v4c12.339 0 22.728-4.502 31.032-13.465l-2.935-2.719zm-25.802-4.876c6.202 0 11.338-2.666 15.287-7.8 3.881-5.045 6.591-12.425 8.282-21.929l-3.939-.701c-1.639 9.216-4.193 15.875-7.513 20.191-3.251 4.226-7.25 6.239-12.117 6.239v4zm23.569-29.729c1.682-9.458 1.624-16.954-.563-22.182-1.115-2.667-2.798-4.773-5.085-6.193-2.273-1.411-4.999-2.056-8.066-2.056v4c2.512 0 4.461.526 5.956 1.454 1.482.921 2.663 2.325 3.505 4.338 1.728 4.132 1.962 10.675.314 19.938l3.939.701zm-13.714-30.431c-6.203 0-11.339 2.667-15.288 7.801-3.88 5.044-6.591 12.425-8.282 21.929l3.939.701c1.639-9.216 4.194-15.876 7.513-20.191 3.251-4.226 7.25-6.24 12.118-6.24v-4zm-23.57 29.73c-1.682 9.457-1.624 16.954.563 22.182 1.116 2.667 2.798 4.773 5.085 6.193 2.273 1.411 4.999 2.055 8.067 2.055v-4c-2.513 0-4.462-.525-5.957-1.454-1.482-.92-2.662-2.324-3.505-4.337-1.728-4.132-1.962-10.676-.314-19.938l-3.939-.701zm69.724 35.45l-1.73 1.005.006.01.006.01 1.718-1.025zm-4.32-36.45l-1.97-.348v.002l1.97.346zm15.93-34.965l1.459 1.368-1.459-1.368zm56.295 1.35l-1.73 1.005.005.007 1.725-1.012zm4.32 36.315l1.969.349.001-.002-1.97-.347zm-15.93 34.965l-1.46-1.367-.007.008 1.467 1.359zm-5.67-36.315l-1.969-.35 1.969.35zm-33.345 0l-1.969-.35 1.969.35zm9.45 47.14c-11.64 0-19.843-4.393-25.012-13.064l-3.436 2.049c5.991 10.049 15.607 15.015 28.448 15.015v-4zm-25.001-13.044c-5.177-8.911-6.639-20.538-4.079-35.099l-3.94-.693c-2.661 15.139-1.243 27.812 4.56 37.801l3.459-2.009zm-4.08-35.097c2.561-14.484 7.74-25.749 15.42-33.946l-2.919-2.735c-8.34 8.902-13.781 20.948-16.44 35.984l3.939.697zm15.42-33.946c7.629-8.144 17-12.193 28.241-12.193v-4c-12.339 0-22.769 4.501-31.16 13.458l2.919 2.735zm28.241-12.193c11.63 0 19.782 4.43 24.865 13.18l3.459-2.009c-5.897-10.151-15.475-15.17-28.324-15.17v3.999zm24.87 13.187c5.171 8.816 6.635 20.394 4.075 34.957l3.94.693c2.66-15.137 1.244-27.77-4.565-37.673l-3.45 2.023zm4.075 34.955c-2.561 14.484-7.74 25.748-15.42 33.946l2.919 2.735c8.34-8.903 13.781-20.948 16.44-35.984l-3.939-.697zm-15.427 33.954c-7.537 8.136-16.858 12.184-28.098 12.184v4c12.339 0 22.729-4.502 31.032-13.465l-2.934-2.719zm-25.803-4.876c6.202 0 11.338-2.666 15.287-7.8 3.881-5.045 6.591-12.425 8.282-21.929l-3.938-.701c-1.64 9.216-4.194 15.875-7.514 20.191-3.251 4.226-7.25 6.239-12.117 6.239v4zm23.569-29.729c1.682-9.458 1.624-16.954-.563-22.182-1.115-2.667-2.798-4.773-5.085-6.193-2.273-1.411-4.999-2.056-8.066-2.056v4c2.512 0 4.461.526 5.956 1.454 1.482.921 2.663 2.325 3.505 4.338 1.728 4.132 1.962 10.675.315 19.938l3.938.701zm-13.714-30.431c-6.203 0-11.339 2.667-15.288 7.801-3.88 5.044-6.591 12.425-8.281 21.929l3.938.701c1.639-9.216 4.194-15.876 7.513-20.191 3.251-4.226 7.25-6.24 12.118-6.24v-4zm-23.569 29.73c-1.683 9.457-1.624 16.954.562 22.182 1.116 2.667 2.798 4.773 5.085 6.193 2.274 1.411 4.999 2.055 8.067 2.055v-4c-2.513 0-4.462-.525-5.957-1.454-1.482-.92-2.662-2.324-3.504-4.337-1.729-4.132-1.963-10.676-.315-19.938l-3.938-.701zm69.723 35.45l-1.729 1.005.005.01.006.01 1.718-1.025zm-4.32-36.45l-1.97-.348v.002l1.97.346zm15.93-34.965l1.459 1.368-1.459-1.368zm56.295 1.35l-1.729 1.005.004.007 1.725-1.012zm4.32 36.315l1.969.349.001-.002-1.97-.347zm-15.93 34.965l-1.46-1.367-.007.008 1.467 1.359zm-5.67-36.315l-1.969-.35 1.969.35zm-33.345 0l-1.969-.35 1.969.35zm9.45 47.14c-11.64 0-19.843-4.393-25.012-13.064l-3.436 2.049c5.991 10.049 15.607 15.015 28.448 15.015v-4zm-25.001-13.044c-5.176-8.911-6.638-20.538-4.079-35.099l-3.94-.693c-2.661 15.139-1.243 27.812 4.561 37.801l3.458-2.009zm-4.08-35.097c2.562-14.484 7.741-25.749 15.42-33.946l-2.919-2.735c-8.34 8.902-13.781 20.948-16.44 35.984l3.939.697zm15.42-33.946c7.63-8.144 17-12.193 28.241-12.193v-4c-12.339 0-22.769 4.501-31.16 13.458l2.919 2.735zm28.241-12.193c11.63 0 19.782 4.43 24.866 13.18l3.458-2.009c-5.897-10.151-15.474-15.17-28.324-15.17v3.999zm24.87 13.187c5.171 8.816 6.635 20.394 4.075 34.957l3.94.693c2.66-15.137 1.244-27.77-4.565-37.673l-3.45 2.023zm4.075 34.955c-2.561 14.484-7.74 25.748-15.42 33.946l2.919 2.735c8.341-8.903 13.782-20.948 16.44-35.984l-3.939-.697zm-15.427 33.954c-7.537 8.136-16.858 12.184-28.098 12.184v4c12.34 0 22.729-4.502 31.032-13.465l-2.934-2.719zm-25.803-4.876c6.202 0 11.338-2.666 15.288-7.8 3.88-5.045 6.59-12.425 8.281-21.929l-3.938-.701c-1.64 9.216-4.194 15.875-7.514 20.191-3.251 4.226-7.25 6.239-12.117 6.239v4zm23.569-29.729c1.682-9.458 1.624-16.954-.563-22.182-1.115-2.667-2.798-4.773-5.085-6.193-2.273-1.411-4.999-2.056-8.066-2.056v4c2.513 0 4.461.526 5.956 1.454 1.482.921 2.663 2.325 3.505 4.338 1.728 4.132 1.963 10.675.315 19.938l3.938.701zm-13.714-30.431c-6.203 0-11.339 2.667-15.288 7.801-3.88 5.044-6.591 12.425-8.281 21.929l3.938.701c1.639-9.216 4.194-15.876 7.514-20.191 3.25-4.226 7.249-6.24 12.117-6.24v-4zm-23.569 29.73c-1.682 9.457-1.624 16.954.563 22.182 1.115 2.667 2.797 4.773 5.084 6.193 2.274 1.411 5 2.055 8.067 2.055v-4c-2.513 0-4.461-.525-5.957-1.454-1.481-.92-2.662-2.324-3.504-4.337-1.728-4.132-1.963-10.676-.315-19.938l-3.938-.701zm173.268-19.225l1.975.318.001-.01-1.976-.308zm-11.34 18.36l-1.147-1.638-2.204 1.543 2.113 1.666 1.238-1.571zm7.695 21.465l-1.982-.269v.005l1.982.264zm-10.935 19.575l-1.247-1.564 1.247 1.564zm-63.99 7.425l-1.97-.346-.412 2.346h2.382v-2zm16.605-94.5v-2h-1.679l-.291 1.654 1.97.346zm56.16 7.83l-1.426 1.402.006.006.006.007 1.414-1.415zm-38.07 12.42v-2h-1.676l-.293 1.651 1.969.349zm-2.97 16.74l-1.969-.349-.417 2.349h2.386v-2zm25.11-8.37l-1.964-.377-.002.013-.003.013 1.969.351zm-6.885 43.2l1.267 1.548.007-.006-1.274-1.542zm3.78-6.615l1.973.329-1.973-.329zm-1.485-6.48l-1.57 1.24.036.045.039.044 1.495-1.329zm-23.895-2.565v-2h-1.674l-.295 1.648 1.969.352zm-3.24 18.09l-1.969-.352-.421 2.352h2.39v-2zm51.485-46.892c-1.177 7.314-4.67 12.95-10.512 17.039l2.294 3.277c6.759-4.731 10.825-11.336 12.168-19.681l-3.95-.635zm-10.603 20.248c5.741 4.528 8.133 10.932 6.951 19.625l3.964.539c1.338-9.847-1.4-17.754-8.438-23.305l-2.477 3.141zm6.951 19.63c-1.014 7.605-4.406 13.658-10.2 18.275l2.494 3.128c6.626-5.282 10.524-12.279 11.671-20.874l-3.965-.529zm-10.2 18.275c-5.744 4.579-13.799 6.989-24.403 6.989v4c11.176 0 20.221-2.54 26.897-7.861l-2.494-3.128zm-24.403 6.989h-38.34v4h38.34v-4zm-36.37 2.347l16.605-94.501-3.94-.692-16.605 94.5 3.94.693zm14.635-92.847h35.64v-4h-35.64v4zm35.64 0c8.111 0 14.403 2.459 19.094 7.232l2.853-2.803c-5.57-5.668-12.958-8.429-21.947-8.429v4zm19.106 7.245c4.615 4.615 6.419 10.559 5.243 18.123l3.952.615c1.344-8.637-.722-15.922-6.367-21.567l-2.828 2.829zm-21.941 9.005h-14.715v4h14.715v-4zm-16.684 1.651l-2.97 16.74 3.938.699 2.97-16.74-3.938-.699zm-1.001 19.089h14.715v-4h-14.715v4zm14.715 0c3.104 0 5.858-.89 8.143-2.74l-2.516-3.109c-1.495 1.21-3.331 1.849-5.627 1.849v4zm8.143-2.74c2.285-1.85 3.691-4.312 4.221-7.278l-3.938-.703c-.37 2.074-1.304 3.661-2.799 4.872l2.516 3.109zm4.216-7.252c.54-2.805.072-5.396-1.6-7.546l-3.158 2.456c.848 1.09 1.191 2.46.83 4.335l3.928.755zm-1.6-7.546c-1.776-2.282-4.555-3.202-7.789-3.202v4c2.526 0 3.887.701 4.631 1.658l3.158-2.456zm-5.975 51.91c2.449-2.023 3.951-4.663 4.479-7.828l-3.946-.657c-.372 2.234-1.39 4.005-3.081 5.401l2.548 3.084zm4.479-7.828c.521-3.125-.019-5.95-1.963-8.137l-2.99 2.657c.936 1.053 1.386 2.548 1.007 4.823l3.946.657zm-1.888-8.048c-1.855-2.35-4.705-3.326-8.05-3.326v4c2.595 0 4.066.735 4.91 1.805l3.14-2.479zm-8.05-3.326h-17.415v4h17.415v-4zm-19.384 1.648l-3.24 18.09 3.938.705 3.24-18.09-3.938-.705zm-1.271 20.442h17.415v-4h-17.415v4zm17.415 0c3.354 0 6.298-.923 8.692-2.882l-2.533-3.096c-1.567 1.282-3.573 1.978-6.159 1.978v4zm124.531-76.25l1.603 1.196 2.385-3.196h-3.988v2zm-39.69 53.19l-1.603-1.196-.284.381-.082.468 1.969.347zm-7.29 41.31v2h1.678l.292-1.652-1.97-.348zm-21.6 0l-1.969-.346-.413 2.346h2.382v-2zm7.29-41.445l1.97.347.098-.558-.209-.527-1.859.738zm-21.06-53.055v-2h-2.945l1.086 2.738 1.859-.738zm23.355 0l1.889-.656-.466-1.344h-1.423v2zm11.07 31.86l-1.889.657 1.29 3.711 2.242-3.226-1.643-1.142zm22.14-31.86v-2h-1.045l-.597.86 1.642 1.14zm24.182-1.196l-39.69 53.19 3.206 2.392 39.69-53.19-3.206-2.392zm-40.056 54.039l-7.29 41.31 3.939.695 7.29-41.31-3.939-.695zm-5.321 39.657h-21.6v4h21.6v-4zm-19.63 2.347l7.29-41.445-3.939-.693-7.29 41.445 3.939.693zm7.179-42.53l-21.06-53.055-3.718 1.476 21.06 53.055 3.718-1.476zm-22.919-50.317h23.355v-4h-23.355v4zm21.466-1.343l11.07 31.86 3.778-1.313-11.07-31.86-3.778 1.313zm14.602 32.345l22.14-31.86-3.285-2.283-22.14 31.86 3.285 2.283zm20.497-31.002h25.785v-4H623.25v4zm17.328 92.5l-1.97-.346-.412 2.346h2.382v-2zm16.605-94.5v-2h-1.679l-.291 1.654 1.97.346zm16.2 0l1.78-.91-.557-1.09h-1.223v2zm27.135 53.055l-1.781.911 2.718 5.315 1.033-5.88-1.97-.346zm9.315-53.055v-2h-1.68l-.29 1.655 1.97.345zm21.6 0l1.97.346.412-2.346h-2.382v2zm-16.605 94.5v2h1.679l.291-1.653-1.97-.347zm-16.2 0l-1.783.907.556 1.093h1.227v-2zm-27-53.055l1.782-.907-2.705-5.316-1.046 5.873 1.969.35zm-9.45 53.055v2h1.675l.294-1.649-1.969-.351zm-19.63.347l16.605-94.501-3.94-.692-16.605 94.5 3.94.693zm14.635-92.847h16.2v-4h-16.2v4zm14.419-1.089l27.135 53.055 3.561-1.821-27.135-53.055-3.561 1.821zm30.886 52.49l9.315-53.055-3.94-.691-9.315 53.055 3.94.691zm7.345-51.401h21.6v-4h-21.6v4zm19.63-2.346l-16.605 94.5 3.94.693 16.605-94.501-3.94-.692zm-14.635 92.846h-16.2v4h16.2v-4zm-14.418 1.093l-27-53.055-3.565 1.814 27 53.055 3.565-1.814zm-30.751-52.498l-9.45 53.055 3.938.701 9.45-53.055-3.938-.701zm-7.481 51.405h-21.6v4h21.6v-4z" fill="#fff"/></g><defs><filter id="filter0_ddd" x=".143" y=".323" width="833.672" height="302.28" filterUnits="userSpaceOnUse" color-interpolation-filters="sRGB"><feFlood flood-opacity="0" result="BackgroundImageFix"/><feColorMatrix in="SourceAlpha" values="0 0 0 0 0 0 0 0 0 0 0 0 0 0 0 0 0 0 127 0"/><feOffset dy="2"/><feGaussianBlur stdDeviation="5"/><feColorMatrix values="0 0 0 0 1 0 0 0 0 1 0 0 0 0 1 0 0 0 1 0"/><feBlend in2="BackgroundImageFix" result="effect1_dropShadow"/><feColorMatrix in="SourceAlpha" values="0 0 0 0 0 0 0 0 0 0 0 0 0 0 0 0 0 0 127 0"/><feOffset dy="4"/><feGaussianBlur stdDeviation="50"/><feColorMatrix values="0 0 0 0 1 0 0 0 0 1 0 0 0 0 1 0 0 0 1 0"/><feBlend in2="effect1_dropShadow" result="effect2_dropShadow"/><feColorMatrix in="SourceAlpha" values="0 0 0 0 0 0 0 0 0 0 0 0 0 0 0 0 0 0 127 0"/><feOffset dy="4"/><feGaussianBlur stdDeviation="10"/><feColorMatrix values="0 0 0 0 1 0 0 0 0 1 0 0 0 0 1 0 0 0 0.5 0"/><feBlend in2="effect2_dropShadow" result="effect3_dropShadow"/><feBlend in="SourceGraphic" in2="effect3_dropShadow" result="shape"/></filter></defs></svg>