<svg width="56" height="55" fill="none" xmlns="http://www.w3.org/2000/svg"><path d="M26.022 43.054h3.875v3.875h-3.875v-3.875zM8.584 25.616h3.876v3.875H8.584v-3.875zm34.876 0h3.874v3.875H43.46v-3.875z" fill="#fff"/><path d="M47.14 8.373A26.923 26.923 0 0029.897.497V.43h-3.875v11.625h3.875v-7.67c11.917.988 21.313 11.001 21.313 23.169 0 12.82-10.43 23.25-23.25 23.25S4.71 40.374 4.71 27.554a23.203 23.203 0 016.83-16.462l14.002 17.665 3.036-2.407-16.53-20.856-1.527 1.282A27.125 27.125 0 1047.14 8.373z" fill="#fff"/></svg>