<svg width="27" height="27" fill="none" xmlns="http://www.w3.org/2000/svg"><g clip-path="url(#clip0)"><path fill-rule="evenodd" clip-rule="evenodd" d="M12.784 26.047c6.974 0 12.627-5.654 12.627-12.628 0-6.973-5.653-12.627-12.627-12.627C5.811.792.157 6.446.157 13.42s5.654 12.628 12.627 12.628zm3.513-18.42h-4.499l-.683 7.199h3l2.182-7.198zm-5.832 11.298c.39.355.89.533 1.5.533.655 0 1.205-.206 1.65-.617.444-.422.666-.938.666-1.55 0-.51-.194-.938-.583-1.282-.389-.345-.889-.517-1.5-.517-.666 0-1.222.2-1.666.6-.433.4-.65.91-.65 1.533 0 .511.195.944.584 1.3z" fill="#fff"/></g><defs><clipPath id="clip0"><path fill="#fff" transform="translate(.157 .792)" d="M0 0h26v26H0z"/></clipPath></defs></svg>