<svg width="244" height="81" fill="none" xmlns="http://www.w3.org/2000/svg"><g clip-path="url(#clip0)"><path d="M17.065 38.677l1.103 4.883h8.08l2.718-4.545L26.76 50.96h10.72l5.99-32.379H32.198l-7.882 12.884-3.113-12.884H10.05L4.06 50.96h10.719l2.286-12.283zM72.041 50.96h13.321l6.108-7.4 4.138 7.4h11.469l-8.868-15.701 13.912-16.678h-13.32l-5.873 7.1-3.94-7.1H77.519l8.592 15.363L76.1 46.04l-4.06 4.92zm-20.729 0l3.35-7.4h5.36l.67 7.4h10.875l-.748-4.92-4.296-27.459h-9.38L40.16 50.96h11.153zm5.754-13.26l2.206-4.845.355 4.845h-2.562z" fill="#fff"/><path d="M120.87 54.49l4.335-23.212h-10.719l-5.99 32.303h24.197l1.695-9.09H120.87zm21.479-23.212l-5.991 32.303h10.72l5.99-32.303h-10.719zm32.789 0l-2.523 13.71-7.685-13.71h-8.197l-5.99 32.303h10.719l2.523-13.56 7.606 13.56h8.276l5.99-32.303h-10.719zm36.02 9.09l1.656-9.09h-23.292l-5.99 32.303h23.37l1.655-9.09h-12.611l.552-3.043h8.985l1.616-8.564h-8.985l.433-2.516h12.611zM3.35 54.491L0 63.581h104.752l1.694-9.09H3.35z" fill="#0A9F30"/><path d="M115.116 27.746l1.695-9.09h100.377l-3.705 9.09h-98.367zm109.339-8.165c.46 0 .921.092 1.381.275a4.44 4.44 0 011.151.732c.322.32.599.686.737 1.144.184.411.276.869.276 1.372 0 .64-.138 1.236-.46 1.739-.323.549-.737.96-1.29 1.28a3.449 3.449 0 01-1.749.458c-.645 0-1.243-.137-1.75-.457a3.462 3.462 0 01-1.749-3.02c0-.595.138-1.235.46-1.738.323-.55.737-.961 1.289-1.281.461-.366 1.059-.504 1.704-.504zm0 .687c-.507 0-.967.137-1.427.366a2.661 2.661 0 00-1.013 1.006c-.276.412-.369.915-.369 1.418 0 .504.139.961.369 1.419.276.412.598.777 1.059 1.006.414.229.921.366 1.427.366s1.013-.137 1.427-.366a2.661 2.661 0 001.013-1.006 2.96 2.96 0 00.368-1.419 2.96 2.96 0 00-.368-1.418 2.661 2.661 0 00-1.013-1.006c-.506-.23-.967-.366-1.473-.366zm-.829 4.666h-.782v-3.706h1.749c.276 0 .506.046.691.138.184.091.322.228.414.366.092.137.138.366.138.549a.928.928 0 01-.276.686c-.184.183-.415.32-.737.366.184.046.276.137.415.274.092.138.23.32.414.595l.46.732h-.92l-.323-.595c-.138-.274-.276-.457-.368-.594-.092-.138-.184-.23-.322-.275a.874.874 0 00-.369-.091h-.184v1.555zm0-3.11v1.006h.599c.276 0 .506-.046.644-.092a.48.48 0 00.23-.412.415.415 0 00-.184-.366c-.138-.091-.322-.137-.598-.137h-.691z" fill="#fff"/></g><defs><clipPath id="clip0"><path fill="#fff" transform="translate(0 .581)" d="M0 0h244v80H0z"/></clipPath></defs></svg>