<svg width="25" height="25" viewBox="0 0 25 25" fill="none" xmlns="http://www.w3.org/2000/svg">
<g clip-path="url(#clip0)">
<path d="M22.1589 8.92173C22.1562 8.88449 22.1535 8.84389 22.1502 8.80496C22.1351 8.63217 22.1166 8.46105 22.0877 8.2916C22.0837 8.2661 22.0783 8.2406 22.0743 8.2151C22.0468 8.05405 22.0142 7.89488 21.9766 7.73764C21.9709 7.71449 21.9662 7.69134 21.9605 7.66852C21.9165 7.49304 21.8658 7.32024 21.8098 7.14979C21.8037 7.13167 21.7973 7.11389 21.7913 7.09577C20.4889 3.23377 16.3004 1.15822 12.4362 2.45995C10.2504 3.19628 8.53453 4.91122 7.79779 7.09577C7.79175 7.11389 7.78537 7.13167 7.77933 7.14979C7.72326 7.32024 7.67257 7.49304 7.62859 7.66852C7.62288 7.69134 7.61818 7.71449 7.61248 7.73764C7.57488 7.89421 7.54231 8.05338 7.51478 8.2151C7.51075 8.2406 7.50538 8.2661 7.50135 8.2916C7.47416 8.45937 7.45402 8.63217 7.43891 8.80496C7.43555 8.84389 7.43286 8.88281 7.43018 8.92173C7.41742 9.09822 7.40869 9.27538 7.40869 9.45489C7.40869 9.47099 7.40869 9.48844 7.41071 9.51126C7.41877 10.6586 7.69477 11.7883 8.21677 12.8102L2.37283 12.8102C2.18743 12.8102 2.03711 12.9604 2.03711 13.1457L2.03711 20.5274C2.03711 20.7127 2.18743 20.8629 2.37283 20.8629L3.38 20.8629L3.38 21.8695C3.38 22.0548 3.53031 22.2051 3.71572 22.2051L19.1589 22.2051C19.3443 22.2051 19.4946 22.0548 19.4946 21.8695L19.4946 15.1458C21.1992 13.7479 22.1852 11.6586 22.1804 9.45489C22.1804 9.27538 22.1717 9.09822 22.1589 8.92173ZM20.536 5.99691C20.5565 6.02744 20.576 6.05798 20.5944 6.08952C20.6468 6.17877 20.6982 6.26869 20.7462 6.35995C20.8133 6.48725 20.8758 6.61663 20.9335 6.74816C20.9617 6.81091 20.9882 6.87432 21.0144 6.93774C21.0789 7.09611 21.1393 7.25649 21.1917 7.4209C21.2044 7.46016 21.2149 7.50042 21.2253 7.54035C21.277 7.71415 21.3236 7.88997 21.3616 8.06915C21.3649 8.08458 21.3693 8.09968 21.3723 8.11511C21.4119 8.30972 21.4395 8.50802 21.4633 8.70833C21.467 8.74188 21.4713 8.77544 21.4744 8.80899C21.4767 8.83315 21.4744 8.85831 21.4784 8.88281L19.9747 7.77254L20.536 5.99691ZM20.0546 5.29699L19.3137 7.64034L17.1959 8.40837L15.1302 6.93371L15.1302 4.59439L17.1258 3.16973C18.278 3.59837 19.2909 4.33406 20.0546 5.29699ZM15.9048 11.1325L13.6843 11.1325L12.8494 8.90697L14.7945 7.51854L16.7397 8.90697L15.9048 11.1325ZM15.9742 11.8036L16.7649 12.8102L12.8242 12.8102L13.6148 11.8036L15.9742 11.8036ZM13.3106 2.91506C13.3979 2.89493 13.4852 2.87748 13.5728 2.86104C13.732 2.83151 13.8918 2.80534 14.0543 2.78722C14.1049 2.78152 14.155 2.7785 14.2063 2.77414C14.3906 2.75803 14.5756 2.74662 14.764 2.74595C14.7844 2.74595 14.8046 2.74595 14.8251 2.74595C15.0131 2.74595 15.1984 2.75803 15.3827 2.77414C15.4334 2.7785 15.4834 2.78152 15.5348 2.78722C15.6973 2.80534 15.8571 2.83151 16.0162 2.86104C16.1038 2.87748 16.1911 2.89459 16.2784 2.91506C16.2908 2.91774 16.3026 2.92144 16.3147 2.92445L14.7945 4.00956L13.2744 2.92446C13.2865 2.92144 13.2982 2.91774 13.3106 2.91506ZM12.4633 3.16973L14.4588 4.59439L14.4588 6.93371L12.3931 8.40837L10.2754 7.64034L9.53444 5.29699C10.2982 4.33406 11.311 3.59837 12.4633 3.16973ZM8.11367 8.80866C8.11669 8.7751 8.12105 8.74155 8.12474 8.708C8.14724 8.50668 8.17611 8.30939 8.21573 8.11511C8.21908 8.09934 8.22311 8.08391 8.22647 8.06814C8.2644 7.8893 8.31107 7.71348 8.36277 7.54001C8.37486 7.50009 8.38526 7.45982 8.39802 7.42057C8.45039 7.25616 8.51082 7.09577 8.57528 6.9374C8.60147 6.87399 8.62799 6.81057 8.65619 6.74783C8.71461 6.61584 8.77705 6.48645 8.84352 6.35962C8.89153 6.26835 8.94424 6.17843 8.99527 6.08918C9.01373 6.05764 9.03321 6.02711 9.05201 5.99624L9.61333 7.77187L8.10964 8.88214C8.11132 8.85798 8.11064 8.83281 8.11367 8.80866ZM8.08949 9.73137L8.09017 9.73137L10.0608 8.2765L12.185 9.04822L13.0716 11.411L11.9708 12.8102L8.98285 12.8102C8.43978 11.8715 8.13318 10.8148 8.08949 9.73137ZM2.70855 20.1919L2.70855 13.4813L17.4803 13.4813L17.4803 20.1919L2.70855 20.1919ZM18.8232 21.534L4.05144 21.534L4.05144 20.8629L17.816 20.8629C18.0014 20.8629 18.1517 20.7127 18.1517 20.5274L18.1517 14.8234L18.8232 14.8234L18.8232 21.534ZM19.4298 14.3023C19.3701 14.2104 19.2685 14.1542 19.1589 14.1523L18.1517 14.1523L18.1517 13.8587L19.8663 13.8453C19.7282 14.0043 19.5827 14.1567 19.4298 14.3023ZM20.3866 13.1699L18.1517 13.1877L18.1517 13.1457C18.1517 12.9604 18.0014 12.8102 17.816 12.8102L17.6183 12.8102L16.5181 11.4094L17.4048 9.04655L19.5289 8.27483L21.5012 9.73103C21.4536 10.958 21.0679 12.148 20.3866 13.1699Z" fill="#11EC48"/>
<path d="M16.4735 15.4945C15.9173 15.4945 15.4663 15.0438 15.4663 14.4879C15.4663 14.3026 15.316 14.1524 15.1306 14.1524L11.9 14.1524C10.863 13.2576 9.32658 13.2576 8.28962 14.1524L5.05898 14.1524C4.87358 14.1524 4.72326 14.3026 4.72326 14.4879C4.72326 15.0438 4.27234 15.4945 3.71609 15.4945C3.53069 15.4945 3.38037 15.6447 3.38037 15.83L3.38037 17.8432C3.38037 18.0285 3.53069 18.1787 3.71609 18.1787C4.27234 18.1787 4.72326 18.6294 4.72326 19.1853C4.72326 19.3706 4.87358 19.5209 5.05898 19.5209L8.28962 19.5209C9.32658 20.4156 10.863 20.4156 11.9 19.5209L15.1306 19.5209C15.316 19.5209 15.4663 19.3706 15.4663 19.1853C15.4663 18.6294 15.9173 18.1787 16.4735 18.1787C16.6589 18.1787 16.8092 18.0285 16.8092 17.8432L16.8092 15.83C16.8092 15.6447 16.6589 15.4945 16.4735 15.4945ZM7.68365 18.8498L5.36113 18.8498C5.22558 18.1913 4.71071 17.6767 4.05181 17.5412L4.05181 16.132C4.71071 15.9965 5.22558 15.482 5.36113 14.8234L7.68365 14.8234C6.87032 16.0425 6.87032 17.6308 7.68365 18.8498ZM10.0948 19.5209C8.79891 19.5209 7.74475 18.3166 7.74475 16.8366C7.74475 15.3566 8.79891 14.1524 10.0948 14.1524C11.3907 14.1524 12.4448 15.3566 12.4448 16.8366C12.4448 18.3166 11.3907 19.5209 10.0948 19.5209ZM16.1378 17.5412C15.4789 17.6767 14.964 18.1913 14.8285 18.8498L12.5063 18.8498C13.3196 17.6308 13.3196 16.0425 12.5063 14.8234L14.8285 14.8234C14.964 15.482 15.4789 15.9965 16.1378 16.132L16.1378 17.5412Z" fill="#11EC48"/>
<path d="M10.0951 16.501C9.90965 16.501 9.75933 16.3508 9.75933 16.1655C9.75933 15.9802 9.90965 15.83 10.0951 15.83C10.2805 15.83 10.4308 15.9802 10.4308 16.1655L11.1022 16.1655C11.1005 15.7405 10.8318 15.3623 10.4308 15.2206L10.4308 14.8234L9.75933 14.8234L9.75933 15.2206C9.2359 15.4049 8.96103 15.9783 9.14543 16.5015C9.28727 16.9039 9.6681 17.1729 10.0951 17.1721C10.2805 17.1721 10.4308 17.3223 10.4308 17.5076C10.4308 17.6929 10.2805 17.8431 10.0951 17.8431C9.90965 17.8431 9.75933 17.6929 9.75933 17.5076L9.08789 17.5076C9.08965 17.9326 9.35836 18.3108 9.75933 18.4525L9.75933 18.8497L10.4308 18.8497L10.4308 18.4525C10.9542 18.2682 11.2291 17.6948 11.0447 17.1716C10.9029 16.7692 10.522 16.5002 10.0951 16.501Z" fill="#11EC48"/>
</g>
<defs>
<clipPath id="clip0">
<rect width="20.1451" height="20.1336" fill="white" transform="translate(2.03662 2.07141)"/>
</clipPath>
</defs>
</svg>
