<svg width="25" height="25" viewBox="0 0 25 25" fill="none" xmlns="http://www.w3.org/2000/svg">
<g clip-path="url(#clip0)">
<path d="M9.01956 24.1842C4.34825 24.1842 0.543945 20.3809 0.543945 15.7108C0.543945 11.0406 4.34825 7.2373 9.01956 7.2373C13.6909 7.2373 17.4952 11.0406 17.4952 15.7108C17.4952 20.3809 13.6909 24.1842 9.01956 24.1842ZM9.01956 8.02529C4.77913 8.02529 1.33213 11.4714 1.33213 15.7108C1.33213 19.9501 4.77913 23.3963 9.01956 23.3963C13.26 23.3963 16.707 19.9501 16.707 15.7108C16.707 11.4714 13.2547 8.02529 9.01956 8.02529Z" fill="#11EC48"/>
<path d="M9.01953 20.2233C6.52887 20.2233 4.50586 18.2008 4.50586 15.7108C4.50586 13.2207 6.52887 11.1982 9.01953 11.1982C11.5102 11.1982 13.5332 13.2207 13.5332 15.7108C13.5332 18.1956 11.5102 20.2233 9.01953 20.2233ZM9.01953 11.9862C6.965 11.9862 5.29404 13.6568 5.29404 15.7108C5.29404 17.7648 6.965 19.4353 9.01953 19.4353C11.0741 19.4353 12.745 17.7648 12.745 15.7108C12.745 13.6568 11.0741 11.9862 9.01953 11.9862Z" fill="#11EC48"/>
<path d="M9.00396 11.8916C8.78852 11.8916 8.60986 11.713 8.60986 11.4976L8.60986 7.71528C8.60986 7.4999 8.78852 7.32129 9.00396 7.32129C9.21939 7.32129 9.39805 7.4999 9.39805 7.71528L9.39805 11.4976C9.39805 11.7182 9.21939 11.8916 9.00396 11.8916Z" fill="#11EC48"/>
<path d="M9.00396 24.1316C8.78852 24.1316 8.60986 23.953 8.60986 23.7376L8.60986 19.9028C8.60986 19.6874 8.78852 19.5088 9.00396 19.5088C9.21939 19.5088 9.39805 19.6874 9.39805 19.9028L9.39805 23.7376C9.39805 23.9583 9.21939 24.1316 9.00396 24.1316Z" fill="#11EC48"/>
<path d="M4.00684 22.3929C3.92277 22.3929 3.83344 22.3666 3.75988 22.3088C3.59173 22.1722 3.56021 21.9253 3.69682 21.7572L6.06663 18.7786C6.20325 18.6105 6.45022 18.579 6.61836 18.7156C6.78651 18.8522 6.81804 19.0991 6.68142 19.2672L4.31161 22.2458C4.23804 22.3456 4.12244 22.3929 4.00684 22.3929Z" fill="#11EC48"/>
<path d="M11.6099 12.8425C11.5258 12.8425 11.4365 12.8162 11.3629 12.7584C11.1948 12.6218 11.1632 12.3749 11.2999 12.2068L13.6697 9.22823C13.8063 9.06012 14.0532 9.0286 14.2214 9.16519C14.3895 9.30177 14.4211 9.54867 14.2844 9.71678L11.9146 12.6954C11.8411 12.7899 11.7255 12.8425 11.6099 12.8425Z" fill="#11EC48"/>
<path d="M4.79508 15.9786C4.78982 15.9786 4.78982 15.9786 4.78457 15.9786L0.975008 15.884C0.759571 15.8788 0.58617 15.7002 0.591425 15.4795C0.59668 15.2642 0.775335 15.0908 0.996027 15.0961L4.80559 15.1906C5.02102 15.1959 5.19442 15.3745 5.18917 15.5951C5.18392 15.8052 5.01051 15.9786 4.79508 15.9786Z" fill="#11EC48"/>
<path d="M17.0011 16.2728C16.9959 16.2728 16.9959 16.2728 16.9906 16.2728L13.1811 16.1782C12.9656 16.173 12.7922 15.9944 12.7975 15.7737C12.8027 15.5584 12.9814 15.385 13.2021 15.3903L17.0116 15.4848C17.2271 15.4901 17.4005 15.6687 17.3952 15.8893C17.39 16.1047 17.2166 16.2728 17.0011 16.2728Z" fill="#11EC48"/>
<path d="M15.1676 21.2371C15.0783 21.2371 14.989 21.2056 14.9154 21.1478L11.9939 18.7051C11.8257 18.5632 11.8047 18.3163 11.9466 18.1482C12.0884 17.9801 12.3354 17.9591 12.5035 18.101L15.4251 20.5437C15.5932 20.6855 15.6142 20.9324 15.4724 21.1006C15.3883 21.1899 15.278 21.2371 15.1676 21.2371Z" fill="#11EC48"/>
<path d="M5.7931 13.4097C5.70377 13.4097 5.61444 13.3782 5.54088 13.3204L2.61934 10.8777C2.45119 10.7358 2.43017 10.4889 2.57205 10.3208C2.71392 10.1527 2.96089 10.1317 3.12903 10.2736L6.05057 12.7163C6.21872 12.8582 6.23973 13.1051 6.09786 13.2732C6.01904 13.3625 5.9087 13.4097 5.7931 13.4097Z" fill="#11EC48"/>
<path d="M18.1415 18.4004C17.9576 18.4004 17.7947 18.2743 17.7579 18.0852C17.7159 17.8698 17.8525 17.665 18.0627 17.6177C19.7651 17.2605 21.3152 16.3201 22.4239 14.9701C23.5484 13.599 24.1685 11.8706 24.1685 10.095C24.1685 5.86094 20.7215 2.41482 16.481 2.41482C15.1359 2.41482 13.8117 2.76678 12.6557 3.43394C11.5312 4.08009 10.5802 5.00992 9.90757 6.11835C9.79723 6.30221 9.55026 6.36525 9.36635 6.24968C9.18244 6.13936 9.11939 5.89246 9.23499 5.7086C9.97588 4.48459 11.0215 3.46546 12.2616 2.75102C13.5385 2.01557 14.9992 1.62683 16.481 1.62683C21.1523 1.62683 24.9567 5.43017 24.9567 10.1003C24.9567 12.0598 24.2736 13.9667 23.0335 15.4796C21.8092 16.9663 20.1014 18.0064 18.2256 18.3952C18.1993 18.4004 18.1678 18.4004 18.1415 18.4004Z" fill="#11EC48"/>
<path d="M18.3623 14.161C18.2205 14.161 18.0839 14.0822 18.0103 13.9457C17.9105 13.7513 17.9893 13.5149 18.1784 13.4151C19.429 12.7742 20.2014 11.5029 20.2014 10.1003C20.2014 8.04628 18.5305 6.37575 16.476 6.37575C15.3778 6.37575 14.3373 6.85905 13.628 7.69957C13.4861 7.86767 13.2391 7.88868 13.071 7.74685C12.9029 7.60501 12.8818 7.35811 13.0237 7.19C13.8907 6.17088 15.1518 5.58777 16.4812 5.58777C18.9719 5.58777 20.9949 7.61026 20.9949 10.1003C20.9949 11.8023 20.0543 13.3415 18.541 14.1138C18.4832 14.1453 18.4254 14.161 18.3623 14.161Z" fill="#11EC48"/>
<path d="M16.5176 6.32317C16.3022 6.32317 16.1235 6.14456 16.1235 5.92917L16.1235 2.09431C16.1235 1.87893 16.3022 1.70032 16.5176 1.70032C16.7331 1.70032 16.9117 1.87893 16.9117 2.09431L16.9117 5.92917C16.9117 6.14981 16.7331 6.32317 16.5176 6.32317Z" fill="#11EC48"/>
<path d="M19.0718 7.23198C18.9877 7.23198 18.8984 7.20571 18.8248 7.14793C18.6567 7.01134 18.6251 6.76444 18.7618 6.59634L21.1316 3.61775C21.2682 3.44965 21.5152 3.41813 21.6833 3.55471C21.8515 3.6913 21.883 3.9382 21.7464 4.1063L19.3766 7.08489C19.303 7.17945 19.1874 7.23198 19.0718 7.23198Z" fill="#11EC48"/>
<path d="M24.4679 10.6624C24.4627 10.6624 24.4627 10.6624 24.4574 10.6624L20.6479 10.5679C20.4324 10.5626 20.259 10.384 20.2643 10.1634C20.2695 9.94801 20.4482 9.77465 20.6689 9.7799L24.4784 9.87446C24.6939 9.87971 24.8673 10.0583 24.862 10.279C24.8568 10.4943 24.6781 10.6624 24.4679 10.6624Z" fill="#11EC48"/>
<path d="M22.629 15.6267C22.5397 15.6267 22.4504 15.5951 22.3768 15.5374L19.4553 13.0946C19.2871 12.9528 19.2661 12.7059 19.408 12.5378C19.5499 12.3697 19.7968 12.3486 19.965 12.4905L22.8865 14.9332C23.0547 15.0751 23.0757 15.322 22.9338 15.4901C22.855 15.5794 22.7446 15.6267 22.629 15.6267Z" fill="#11EC48"/>
<path d="M13.2599 7.79939C13.1706 7.79939 13.0812 7.76787 13.0077 7.71009L10.0861 5.26733C9.91799 5.1255 9.89697 4.87859 10.0388 4.71049C10.1807 4.54239 10.4277 4.52137 10.5958 4.66321L13.5174 7.10597C13.6855 7.2478 13.7065 7.4947 13.5647 7.66281C13.4858 7.75211 13.3702 7.79939 13.2599 7.79939Z" fill="#11EC48"/>
<path d="M8.85458 15.3719C9.26151 15.3719 9.60397 15.4947 9.88197 15.7403C10.16 15.9819 10.299 16.3202 10.299 16.7551C10.299 17.19 10.1519 17.5302 9.8578 17.7758C9.56771 18.0215 9.21114 18.1443 8.7881 18.1443C8.44563 18.1443 8.14345 18.0678 7.88157 17.9148C7.61968 17.7617 7.43032 17.5363 7.31348 17.2383L8.02661 16.8215C8.13137 17.1598 8.3852 17.3289 8.7881 17.3289C9.00163 17.3289 9.16682 17.2785 9.28367 17.1779C9.40454 17.0732 9.46497 16.9322 9.46497 16.7551C9.46497 16.5819 9.40655 16.443 9.28971 16.3383C9.17287 16.2336 9.01372 16.1813 8.81227 16.1813H7.53104L7.70026 13.8317L10.0995 13.8317L10.0995 14.6108H8.47383L8.41944 15.3719L8.85458 15.3719Z" fill="#11EC48"/>
</g>
<defs>
<clipPath id="clip0">
<rect width="24.1741" height="24.1603" fill="white" transform="translate(0.543945 0.825317)"/>
</clipPath>
</defs>
</svg>
