<svg width="25" height="25" viewBox="0 0 25 25" fill="none" xmlns="http://www.w3.org/2000/svg">
<path d="M10.8079 18.0818C8.86838 18.0818 6.90479 18.6403 6.90479 19.7072L6.90479 21.0075C6.90479 22.0744 8.86838 22.6328 10.8079 22.6328C12.7474 22.6328 14.711 22.0744 14.711 21.0075L14.711 19.7072C14.711 18.6403 12.7474 18.0818 10.8079 18.0818ZM10.8079 21.9827C8.85244 21.9827 7.5553 21.3956 7.5553 21.0075L7.5553 20.6437C8.29202 21.0975 9.55337 21.3325 10.8079 21.3325C12.0624 21.3325 13.3238 21.0975 14.0605 20.6437L14.0605 21.0075C14.0605 21.3956 12.7634 21.9827 10.8079 21.9827ZM10.8079 20.6824C8.85244 20.6824 7.5553 20.0953 7.5553 19.7072C7.5553 19.319 8.85244 18.7319 10.8079 18.7319C12.7634 18.7319 14.0605 19.319 14.0605 19.7072C14.0605 20.0953 12.7634 20.6824 10.8079 20.6824Z" fill="#11EC48"/>
<path d="M18.2889 15.4812C16.3493 15.4812 14.3857 16.0397 14.3857 17.1066L14.3857 18.4069C14.3857 19.4738 16.3493 20.0322 18.2889 20.0322C20.2284 20.0322 22.192 19.4738 22.192 18.4069L22.192 17.1066C22.192 16.0397 20.2284 15.4812 18.2889 15.4812ZM18.2889 16.1314C20.2443 16.1314 21.5414 16.7184 21.5414 17.1066C21.5414 17.4947 20.2443 18.0818 18.2889 18.0818C16.3334 18.0818 15.0363 17.4947 15.0363 17.1066C15.0363 16.7184 16.3334 16.1314 18.2889 16.1314ZM18.2889 19.3821C16.3334 19.3821 15.0363 18.795 15.0363 18.4069L15.0363 18.0431C15.773 18.4969 17.0343 18.7319 18.2889 18.7319C19.5434 18.7319 20.8047 18.4969 21.5414 18.0431L21.5414 18.4069C21.5414 18.795 20.2443 19.3821 18.2889 19.3821Z" fill="#11EC48"/>
<path d="M9.8321 16.7815L9.8321 7.0293C9.8321 5.96241 7.86851 5.40393 5.92899 5.40393C3.98947 5.40393 2.02588 5.96241 2.02588 7.0293L2.02588 16.7815C2.02588 17.8484 3.98947 18.4069 5.92899 18.4069C7.86851 18.4069 9.8321 17.8484 9.8321 16.7815ZM5.92899 6.05408C7.88445 6.05408 9.18158 6.64116 9.18158 7.0293C9.18158 7.41744 7.88445 8.00453 5.92899 8.00453C3.97353 8.00453 2.6764 7.41744 2.6764 7.0293C2.6764 6.64116 3.97353 6.05408 5.92899 6.05408ZM2.6764 7.96584C3.41311 8.41965 4.67446 8.65467 5.92899 8.65467C7.18351 8.65467 8.44487 8.41965 9.18158 7.96584L9.18158 8.97975C9.18158 9.36789 7.88445 9.95497 5.92899 9.95497C3.97353 9.95497 2.6764 9.36789 2.6764 8.97975L2.6764 7.96584ZM2.6764 9.91629C3.41311 10.3701 4.67446 10.6051 5.92899 10.6051C7.18351 10.6051 8.44487 10.3701 9.18158 9.91629L9.18158 10.9302C9.18158 11.3183 7.88445 11.9054 5.92899 11.9054C3.97353 11.9054 2.6764 11.3183 2.6764 10.9302L2.6764 9.91629ZM2.6764 11.8667C3.41311 12.3205 4.67446 12.5556 5.92899 12.5556C7.18351 12.5556 8.44487 12.3205 9.18158 11.8667L9.18158 12.8806C9.18158 13.2688 7.88445 13.8559 5.92899 13.8559C3.97353 13.8559 2.6764 13.2688 2.6764 12.8806L2.6764 11.8667ZM2.6764 13.8172C3.41311 14.271 4.67446 14.506 5.92899 14.506C7.18351 14.506 8.44487 14.271 9.18158 13.8172L9.18158 14.8311C9.18158 15.2192 7.88445 15.8063 5.92899 15.8063C3.97353 15.8063 2.6764 15.2192 2.6764 14.8311L2.6764 13.8172ZM5.92899 17.7568C3.97353 17.7568 2.6764 17.1697 2.6764 16.7815L2.6764 15.7676C3.41311 16.2214 4.67447 16.4565 5.92899 16.4565C7.18351 16.4565 8.44487 16.2214 9.18158 15.7676L9.18158 16.7815C9.18158 17.1697 7.88445 17.7568 5.92899 17.7568Z" fill="#11EC48"/>
<path d="M14.3855 15.4812C16.3251 15.4812 18.2886 14.9228 18.2886 13.8559L18.2886 4.10364C18.2886 3.03675 16.3251 2.47827 14.3855 2.47827C12.446 2.47827 10.4824 3.03675 10.4824 4.10364L10.4824 13.8559C10.4824 14.9228 12.446 15.4812 14.3855 15.4812ZM14.3855 14.8311C12.4301 14.8311 11.1329 14.244 11.1329 13.8559L11.1329 12.842C11.8697 13.2958 13.131 13.5308 14.3855 13.5308C15.6401 13.5308 16.9014 13.2958 17.6381 12.842L17.6381 13.8559C17.6381 14.244 16.341 14.8311 14.3855 14.8311ZM14.3855 3.12842C16.341 3.12842 17.6381 3.7155 17.6381 4.10364C17.6381 4.49178 16.341 5.07887 14.3855 5.07887C12.4301 5.07887 11.1329 4.49178 11.1329 4.10364C11.1329 3.7155 12.4301 3.12842 14.3855 3.12842ZM11.1329 5.04018C11.8697 5.49399 13.131 5.72902 14.3855 5.72902C15.6401 5.72902 16.9014 5.49399 17.6381 5.04018L17.6381 6.05409C17.6381 6.44223 16.341 7.02931 14.3855 7.02931C12.4301 7.02931 11.1329 6.44223 11.1329 6.05409L11.1329 5.04018ZM11.1329 6.99063C11.8697 7.44443 13.131 7.67946 14.3855 7.67946C15.6401 7.67946 16.9014 7.44443 17.6381 6.99063L17.6381 8.00454C17.6381 8.39268 16.341 8.97976 14.3855 8.97976C12.4301 8.97976 11.1329 8.39268 11.1329 8.00454L11.1329 6.99063ZM11.1329 8.94108C11.8697 9.39488 13.131 9.62991 14.3855 9.62991C15.6401 9.62991 16.9014 9.39488 17.6381 8.94108L17.6381 9.95498C17.6381 10.3431 16.341 10.9302 14.3855 10.9302C12.4301 10.9302 11.1329 10.3431 11.1329 9.95498L11.1329 8.94108ZM11.1329 10.8915C11.8697 11.3453 13.131 11.5804 14.3855 11.5804C15.6401 11.5804 16.9014 11.3453 17.6381 10.8915L17.6381 11.9054C17.6381 12.2936 16.341 12.8807 14.3855 12.8807C12.4301 12.8807 11.1329 12.2936 11.1329 11.9054L11.1329 10.8915Z" fill="#11EC48"/>
</svg>
