<svg width="25" height="25" viewBox="0 0 25 25" fill="none" xmlns="http://www.w3.org/2000/svg">
<g clip-path="url(#clip0)">
<path d="M9.01956 23.4172C4.34825 23.4172 0.543945 19.6138 0.543945 14.9437C0.543945 10.2736 4.34825 6.47021 9.01956 6.47021C13.6909 6.47021 17.4952 10.2736 17.4952 14.9437C17.4952 19.6138 13.6909 23.4172 9.01956 23.4172ZM9.01956 7.2582C4.77913 7.2582 1.33213 10.7043 1.33213 14.9437C1.33213 19.1831 4.77913 22.6292 9.01956 22.6292C13.26 22.6292 16.707 19.1831 16.707 14.9437C16.707 10.7043 13.2547 7.2582 9.01956 7.2582Z" fill="#11EC48"/>
<path d="M9.01953 19.4562C6.52887 19.4562 4.50586 17.4337 4.50586 14.9437C4.50586 12.4537 6.52887 10.4312 9.01953 10.4312C11.5102 10.4312 13.5332 12.4537 13.5332 14.9437C13.5332 17.4285 11.5102 19.4562 9.01953 19.4562ZM9.01953 11.2191C6.965 11.2191 5.29404 12.8897 5.29404 14.9437C5.29404 16.9977 6.965 18.6682 9.01953 18.6682C11.0741 18.6682 12.745 16.9977 12.745 14.9437C12.745 12.8897 11.0741 11.2191 9.01953 11.2191Z" fill="#11EC48"/>
<path d="M9.00396 11.1245C8.78852 11.1245 8.60986 10.9459 8.60986 10.7305L8.60986 6.94819C8.60986 6.73281 8.78852 6.5542 9.00396 6.5542C9.21939 6.5542 9.39805 6.73281 9.39805 6.94819L9.39805 10.7305C9.39805 10.9512 9.21939 11.1245 9.00396 11.1245Z" fill="#11EC48"/>
<path d="M9.00396 23.3646C8.78852 23.3646 8.60986 23.1859 8.60986 22.9706L8.60986 19.1357C8.60986 18.9203 8.78852 18.7417 9.00396 18.7417C9.21939 18.7417 9.39805 18.9203 9.39805 19.1357L9.39805 22.9706C9.39805 23.1912 9.21939 23.3646 9.00396 23.3646Z" fill="#11EC48"/>
<path d="M4.00684 21.6258C3.92277 21.6258 3.83344 21.5995 3.75988 21.5417C3.59173 21.4051 3.56021 21.1582 3.69682 20.9901L6.06663 18.0116C6.20325 17.8434 6.45022 17.8119 6.61836 17.9485C6.78651 18.0851 6.81804 18.332 6.68142 18.5001L4.31161 21.4787C4.23804 21.5785 4.12244 21.6258 4.00684 21.6258Z" fill="#11EC48"/>
<path d="M11.6099 12.0754C11.5258 12.0754 11.4365 12.0491 11.3629 11.9913C11.1948 11.8547 11.1632 11.6078 11.2999 11.4397L13.6697 8.46114C13.8063 8.29303 14.0532 8.26151 14.2214 8.3981C14.3895 8.53468 14.4211 8.78158 14.2844 8.94969L11.9146 11.9283C11.8411 12.0228 11.7255 12.0754 11.6099 12.0754Z" fill="#11EC48"/>
<path d="M4.79508 15.2115C4.78982 15.2115 4.78982 15.2115 4.78457 15.2115L0.975008 15.117C0.759571 15.1117 0.58617 14.9331 0.591425 14.7125C0.59668 14.4971 0.775335 14.3237 0.996027 14.329L4.80559 14.4235C5.02102 14.4288 5.19442 14.6074 5.18917 14.828C5.18392 15.0382 5.01051 15.2115 4.79508 15.2115Z" fill="#11EC48"/>
<path d="M17.0011 15.5057C16.9959 15.5057 16.9959 15.5057 16.9906 15.5057L13.1811 15.4111C12.9656 15.4059 12.7922 15.2273 12.7975 15.0066C12.8027 14.7913 12.9814 14.6179 13.2021 14.6232L17.0116 14.7177C17.2271 14.723 17.4005 14.9016 17.3952 15.1222C17.39 15.3376 17.2166 15.5057 17.0011 15.5057Z" fill="#11EC48"/>
<path d="M15.1676 20.47C15.0783 20.47 14.989 20.4385 14.9154 20.3807L11.9939 17.938C11.8257 17.7961 11.8047 17.5492 11.9466 17.3811C12.0884 17.213 12.3354 17.192 12.5035 17.3339L15.4251 19.7766C15.5932 19.9185 15.6142 20.1654 15.4724 20.3335C15.3883 20.4228 15.278 20.47 15.1676 20.47Z" fill="#11EC48"/>
<path d="M5.7931 12.6428C5.70377 12.6428 5.61444 12.6113 5.54088 12.5535L2.61934 10.1107C2.45119 9.96888 2.43017 9.72198 2.57205 9.55387C2.71392 9.38577 2.96089 9.36476 3.12903 9.50659L6.05057 11.9494C6.21872 12.0912 6.23973 12.3381 6.09786 12.5062C6.01904 12.5955 5.9087 12.6428 5.7931 12.6428Z" fill="#11EC48"/>
<path d="M18.1415 17.6333C17.9576 17.6333 17.7947 17.5073 17.7579 17.3182C17.7159 17.1028 17.8525 16.8979 18.0627 16.8506C19.7651 16.4934 21.3152 15.5531 22.4239 14.203C23.5484 12.8319 24.1685 11.1036 24.1685 9.32797C24.1685 5.09386 20.7215 1.64773 16.481 1.64773C15.1359 1.64773 13.8117 1.9997 12.6557 2.66686C11.5312 3.31301 10.5802 4.24283 9.90757 5.35126C9.79723 5.53513 9.55026 5.59817 9.36635 5.4826C9.18244 5.37228 9.11939 5.12537 9.23499 4.94151C9.97588 3.71751 11.0215 2.69838 12.2616 1.98394C13.5385 1.24848 14.9992 0.859741 16.481 0.859741C21.1523 0.859741 24.9567 4.66309 24.9567 9.33322C24.9567 11.2927 24.2736 13.1996 23.0335 14.7125C21.8092 16.1992 20.1014 17.2394 18.2256 17.6281C18.1993 17.6333 18.1678 17.6333 18.1415 17.6333Z" fill="#11EC48"/>
<path d="M18.3623 13.394C18.2205 13.394 18.0839 13.3152 18.0103 13.1786C17.9105 12.9842 17.9893 12.7478 18.1784 12.648C19.429 12.0071 20.2014 10.7358 20.2014 9.33321C20.2014 7.2792 18.5305 5.60866 16.476 5.60866C15.3778 5.60866 14.3373 6.09196 13.628 6.93248C13.4861 7.10058 13.2391 7.1216 13.071 6.97976C12.9029 6.83792 12.8818 6.59102 13.0237 6.42292C13.8907 5.40379 15.1518 4.82068 16.4812 4.82068C18.9719 4.82068 20.9949 6.84318 20.9949 9.33321C20.9949 11.0353 20.0543 12.5745 18.541 13.3467C18.4832 13.3782 18.4254 13.394 18.3623 13.394Z" fill="#11EC48"/>
<path d="M16.5176 5.55608C16.3022 5.55608 16.1235 5.37747 16.1235 5.16209L16.1235 1.32722C16.1235 1.11184 16.3022 0.933228 16.5176 0.933228C16.7331 0.933228 16.9117 1.11184 16.9117 1.32722L16.9117 5.16209C16.9117 5.38272 16.7331 5.55608 16.5176 5.55608Z" fill="#11EC48"/>
<path d="M19.0718 6.46489C18.9877 6.46489 18.8984 6.43863 18.8248 6.38084C18.6567 6.24426 18.6251 5.99735 18.7618 5.82925L21.1316 2.85066C21.2682 2.68256 21.5152 2.65104 21.6833 2.78762C21.8515 2.92421 21.883 3.17111 21.7464 3.33921L19.3766 6.3178C19.303 6.41236 19.1874 6.46489 19.0718 6.46489Z" fill="#11EC48"/>
<path d="M24.4679 9.89536C24.4627 9.89536 24.4627 9.89536 24.4574 9.89536L20.6479 9.8008C20.4324 9.79554 20.259 9.61693 20.2643 9.3963C20.2695 9.18092 20.4482 9.00756 20.6689 9.01281L24.4784 9.10737C24.6939 9.11262 24.8673 9.29123 24.862 9.51187C24.8568 9.72725 24.6781 9.89536 24.4679 9.89536Z" fill="#11EC48"/>
<path d="M22.629 14.8596C22.5397 14.8596 22.4504 14.8281 22.3768 14.7703L19.4553 12.3275C19.2871 12.1857 19.2661 11.9388 19.408 11.7707C19.5499 11.6026 19.7968 11.5816 19.965 11.7234L22.8865 14.1662C23.0547 14.308 23.0757 14.5549 22.9338 14.723C22.855 14.8123 22.7446 14.8596 22.629 14.8596Z" fill="#11EC48"/>
<path d="M13.2599 7.03231C13.1706 7.03231 13.0812 7.00079 13.0077 6.943L10.0861 4.50024C9.91799 4.35841 9.89697 4.1115 10.0388 3.9434C10.1807 3.7753 10.4277 3.75428 10.5958 3.89612L13.5174 6.33888C13.6855 6.48072 13.7065 6.72762 13.5647 6.89572C13.4858 6.98503 13.3702 7.03231 13.2599 7.03231Z" fill="#11EC48"/>
<path d="M9.29563 14.6794C9.58169 14.7639 9.81336 14.9129 9.99064 15.1263C10.1719 15.3357 10.2626 15.5894 10.2626 15.8874C10.2626 16.3223 10.1155 16.6625 9.82142 16.9082C9.53133 17.1538 9.17476 17.2766 8.75172 17.2766C8.42134 17.2766 8.1252 17.2021 7.86332 17.0531C7.60546 16.9001 7.41811 16.6766 7.30127 16.3827L8.01441 15.972C8.11916 16.2981 8.36493 16.4612 8.75172 16.4612C8.96525 16.4612 9.13044 16.4109 9.24728 16.3102C9.36816 16.2055 9.42859 16.0646 9.42859 15.8874C9.42859 15.7142 9.36816 15.5753 9.24728 15.4706C9.13044 15.3659 8.96525 15.3136 8.75172 15.3136L8.57041 15.3136L8.2501 14.8304L9.08411 13.7432L7.42818 13.7432L7.42818 12.964L10.0873 12.964L10.0873 13.6526L9.29563 14.6794Z" fill="#11EC48"/>
</g>
<defs>
<clipPath id="clip0">
<rect width="24.1741" height="24.1604" fill="white" transform="translate(0.543945 0.0582275)"/>
</clipPath>
</defs>
</svg>
