<svg width="437" height="61" viewBox="0 0 437 61" fill="none" xmlns="http://www.w3.org/2000/svg">
<path d="M8.37254 0.216309H436.953L428.581 60.2163H0L8.37254 0.216309Z" fill="url(#paint0_linear)"/>
<path d="M284.892 37.5595C285.575 37.5595 286.209 37.414 286.795 37.1232C287.38 36.8324 287.868 36.4931 288.258 36.0084C288.649 35.5237 288.99 34.9906 289.186 34.3605C289.381 33.7304 289.527 33.0518 289.527 32.3248C289.527 31.3554 289.234 30.5314 288.649 29.8528C288.063 29.1742 287.234 28.835 286.209 28.835C285.575 28.835 284.94 28.9804 284.355 29.2712C283.769 29.562 283.281 29.9498 282.842 30.4345C282.403 30.9191 282.11 31.5008 281.866 32.1309C281.622 32.761 281.476 33.4396 281.476 34.1666C281.476 35.1845 281.769 36.0084 282.403 36.687C282.989 37.2202 283.867 37.5595 284.892 37.5595Z" fill="white"/>
<path d="M302.36 28.5925C301.775 28.5925 301.238 28.6895 300.799 28.8833C300.311 29.0772 299.921 29.368 299.579 29.6589C299.238 29.9981 298.945 30.3374 298.701 30.7252C298.457 31.1129 298.311 31.5007 298.262 31.84H305.239C305.239 31.6946 305.288 31.5976 305.288 31.4522C305.288 31.3553 305.288 31.2099 305.288 31.1129C305.288 30.3859 305.044 29.7558 304.507 29.2711C304.019 28.8349 303.287 28.5925 302.36 28.5925Z" fill="white"/>
<path d="M308.216 32.7129C308.167 33.2461 308.069 33.7308 307.972 34.2155H297.92C297.92 34.3124 297.871 34.4094 297.871 34.5063C297.871 34.9425 297.969 35.3787 298.115 35.718C298.31 36.1058 298.554 36.3966 298.847 36.6874C299.189 36.9782 299.53 37.1721 299.969 37.3175C300.409 37.4629 300.848 37.5599 301.384 37.5599C302.263 37.5599 302.995 37.4145 303.58 37.0752C304.166 36.7359 304.751 36.3481 305.239 35.7665L307.142 37.5114C305.483 39.3048 303.434 40.1772 301.043 40.1772C300.116 40.1772 299.286 40.0318 298.506 39.7895C297.725 39.4986 297.091 39.1109 296.505 38.6262C295.919 38.1415 295.48 37.5114 295.188 36.7844C294.846 36.0573 294.7 35.1849 294.7 34.2639C294.7 33.1007 294.895 32.0344 295.285 31.0165C295.675 29.9986 296.212 29.1262 296.944 28.3992C297.627 27.6721 298.457 27.0905 299.433 26.6543C300.409 26.218 301.433 26.0242 302.604 26.0242C303.385 26.0242 304.166 26.1211 304.849 26.3634C305.532 26.6058 306.117 26.9451 306.654 27.3813C307.142 27.8175 307.532 28.3992 307.825 29.0777C308.118 29.7563 308.264 30.5318 308.264 31.4043C308.264 31.792 308.264 32.1798 308.216 32.7129ZM329.441 16.6211C326.318 9.30222 311.875 7.84814 292.114 16.0879C289.088 17.3481 286.356 18.6568 283.867 20.0624L282.257 28.593H282.306C282.843 27.8175 283.526 27.1874 284.404 26.7512C285.234 26.315 286.161 26.0726 287.185 26.0726C288.064 26.0726 288.844 26.218 289.527 26.5088C290.211 26.7997 290.845 27.1874 291.333 27.6721C291.821 28.2053 292.211 28.7869 292.504 29.5139C292.797 30.241 292.894 31.0165 292.894 31.8405C292.894 33.0037 292.699 34.0701 292.358 35.0879C291.967 36.1058 291.479 36.9782 290.845 37.7053C290.211 38.4808 289.43 39.0624 288.503 39.4986C287.576 39.9349 286.6 40.1772 285.526 40.1772C284.502 40.1772 283.575 39.9349 282.696 39.4986C281.818 39.0624 281.135 38.3838 280.696 37.5599H280.647L280.257 39.8379H277.134L280.257 22.2435C269.083 29.417 264.789 37.366 267.18 42.94C270.303 50.2588 286.795 50.3558 303.97 43.0854C306.752 41.9221 309.387 40.6134 311.875 39.2078C311.338 38.6747 311.046 37.9476 311.046 37.0752C311.046 36.8328 311.046 36.542 311.094 36.2027C311.143 35.9119 311.143 35.6211 311.241 35.3303L312.412 29.1262H309.972L310.46 26.4604H312.802L313.485 22.5344H316.755L316.071 26.4604H319.097L318.609 29.1262H315.632L314.461 35.3787C314.412 35.718 314.364 35.9604 314.364 36.2027C314.364 36.6874 314.51 37.0267 314.803 37.2206C314.852 37.269 314.949 37.3175 314.998 37.3175C325.733 30.4833 331.832 22.2435 329.441 16.6211Z" fill="white"/>
<path d="M332.271 33.9727C332.271 34.9421 332.564 35.7661 333.149 36.4447C333.735 37.1233 334.516 37.4625 335.589 37.4625C336.223 37.4625 336.858 37.3171 337.443 37.0263C338.029 36.7355 338.517 36.3477 338.956 35.8631C339.395 35.3784 339.688 34.8452 339.932 34.2151C340.176 33.585 340.322 32.9064 340.322 32.2278C340.322 31.21 340.029 30.386 339.395 29.7074C338.761 29.0773 337.931 28.7381 336.907 28.7381C336.223 28.7381 335.589 28.8835 335.004 29.1743C334.418 29.4651 333.93 29.8528 333.54 30.2891C333.149 30.7738 332.808 31.3069 332.613 31.937C332.417 32.5671 332.271 33.2457 332.271 33.9727ZM341.054 28.5442L341.396 26.5085H344.567L342.42 38.7712C342.225 39.9345 341.932 41.0008 341.542 41.9702C341.152 42.9396 340.615 43.7636 339.981 44.4421C339.346 45.1207 338.517 45.6539 337.541 46.0416C336.565 46.4294 335.394 46.6233 334.028 46.6233C333.442 46.6233 332.905 46.5748 332.271 46.4778C331.686 46.3809 331.1 46.2355 330.515 46.0416C329.929 45.8477 329.392 45.6054 328.856 45.2661C328.319 44.9753 327.88 44.636 327.538 44.2483L329.734 41.8733C330.271 42.5034 330.905 42.9396 331.686 43.2789C332.466 43.6182 333.247 43.7636 334.125 43.7636C334.955 43.7636 335.638 43.6666 336.223 43.4243C336.809 43.1819 337.297 42.8911 337.687 42.4549C338.078 42.0671 338.37 41.534 338.614 41.0008C338.858 40.4192 339.005 39.7891 339.2 39.159L339.444 38.0926H339.249C338.761 38.7227 338.126 39.2559 337.346 39.6437C336.565 40.0314 335.638 40.2253 334.613 40.2253C333.735 40.2253 332.954 40.0799 332.271 39.7891C331.588 39.4983 330.954 39.1105 330.466 38.6258C329.978 38.1411 329.587 37.511 329.295 36.8324C329.002 36.1054 328.904 35.3299 328.904 34.5059C328.904 33.3911 329.099 32.2763 329.441 31.3069C329.831 30.2891 330.319 29.4166 330.954 28.6896C331.588 27.9141 332.369 27.3324 333.296 26.8962C334.223 26.46 335.199 26.2661 336.272 26.2661C337.492 26.2661 338.517 26.5085 339.249 26.9447C339.981 27.3809 340.566 27.9625 340.908 28.6896H341.054V28.5442Z" fill="white"/>
<path d="M354.668 33.7304C354.033 33.7304 353.35 33.7304 352.667 33.7789C351.984 33.8274 351.35 33.9243 350.764 34.1182C350.179 34.2636 349.74 34.5059 349.349 34.8452C348.959 35.136 348.812 35.5723 348.812 36.1054C348.812 36.4447 348.861 36.687 349.008 36.8809C349.105 37.0748 349.3 37.2687 349.496 37.4141C349.691 37.5595 349.935 37.6564 350.179 37.7049C350.423 37.7534 350.715 37.8018 351.008 37.8018C351.496 37.8018 351.984 37.7049 352.423 37.5595C352.862 37.4141 353.253 37.1717 353.594 36.8809C353.936 36.5901 354.18 36.2508 354.424 35.8631C354.619 35.4753 354.814 35.0876 354.912 34.6029L355.058 33.7789H354.668V33.7304ZM355.351 31.4039C355.4 31.1615 355.4 31.0161 355.4 30.8707C355.4 30.7738 355.4 30.6284 355.4 30.5314C355.4 29.9013 355.204 29.4166 354.765 29.1258C354.326 28.835 353.741 28.6896 352.911 28.6896C352.277 28.6896 351.594 28.835 350.862 29.0774C350.179 29.3197 349.544 29.659 349.008 30.0467L347.739 27.8656C348.52 27.3325 349.398 26.8962 350.374 26.6054C351.35 26.3146 352.374 26.1207 353.399 26.1207C354.033 26.1207 354.668 26.1692 355.302 26.3146C355.936 26.46 356.473 26.7024 357.01 26.9932C357.498 27.3325 357.888 27.7202 358.181 28.2534C358.474 28.7865 358.62 29.4166 358.62 30.1437C358.62 30.2891 358.62 30.5314 358.571 30.7738C358.571 31.0161 358.522 31.21 358.474 31.4039L357.498 36.8325C357.4 37.3656 357.303 37.8988 357.254 38.4319C357.205 39.0136 357.156 39.4498 357.156 39.8376H354.131C354.131 39.3529 354.18 38.8197 354.277 38.2381H354.229C353.155 39.4983 351.74 40.1284 349.837 40.1284C349.349 40.1284 348.861 40.0799 348.373 39.983C347.885 39.886 347.397 39.6921 347.007 39.4013C346.617 39.1105 346.275 38.7712 345.982 38.335C345.738 37.8988 345.592 37.3172 345.592 36.6386C345.592 35.5238 345.885 34.6513 346.47 33.9728C347.056 33.2942 347.837 32.761 348.764 32.3733C349.691 31.9855 350.764 31.7432 351.886 31.5978C353.155 31.4524 354.277 31.4039 355.351 31.4039Z" fill="white"/>
<path d="M362.767 28.011C362.864 27.4294 362.913 26.9447 362.962 26.5085H366.036C366.036 26.7024 365.987 27.0416 365.939 27.4779C365.89 27.9141 365.841 28.3018 365.792 28.5927H365.841C366.231 27.9626 366.817 27.3809 367.451 26.8962C368.134 26.4115 368.964 26.1207 369.988 26.1207C371.111 26.1207 372.038 26.3631 372.721 26.8478C373.404 27.3325 373.843 27.9626 374.038 28.7381C374.624 27.9141 375.307 27.284 376.088 26.7993C376.868 26.3146 377.795 26.1207 378.82 26.1207C379.601 26.1207 380.284 26.2177 380.821 26.46C381.406 26.7024 381.845 26.9932 382.236 27.3325C382.626 27.7202 382.87 28.1564 383.065 28.6411C383.26 29.1743 383.309 29.7075 383.309 30.2406C383.309 30.7253 383.26 31.1131 383.212 31.5008L381.699 39.8376H378.43L379.747 32.4702C379.796 32.2279 379.796 32.034 379.845 31.7916C379.894 31.5493 379.894 31.3554 379.894 31.1131C379.894 30.8223 379.845 30.5314 379.796 30.2406C379.698 29.9498 379.601 29.7075 379.406 29.5136C379.259 29.3197 379.015 29.1258 378.723 29.0289C378.43 28.8835 378.088 28.835 377.649 28.835C377.112 28.835 376.673 28.932 376.234 29.1743C375.844 29.4166 375.453 29.7075 375.161 30.0467C374.868 30.386 374.624 30.7738 374.429 31.21C374.233 31.6462 374.087 32.0825 374.038 32.5187L372.77 39.8376H369.452L370.867 31.7432C370.916 31.4524 370.964 31.21 370.964 30.9677C370.964 30.3376 370.818 29.8044 370.476 29.4166C370.135 29.0289 369.598 28.835 368.915 28.835C368.427 28.835 367.939 28.932 367.549 29.1743C367.158 29.3682 366.817 29.659 366.475 29.9983C366.182 30.3376 365.939 30.7253 365.743 31.1615C365.548 31.5978 365.402 32.034 365.353 32.4702L364.036 39.8376H360.766L362.621 29.3197C362.621 29.0289 362.718 28.5442 362.767 28.011Z" fill="white"/>
<path d="M396.093 31.8886C396.093 31.7432 396.142 31.6463 396.142 31.5008C396.142 31.4039 396.142 31.2585 396.142 31.1616C396.142 30.4345 395.898 29.8044 395.361 29.3197C394.825 28.835 394.141 28.5442 393.166 28.5442C392.58 28.5442 392.043 28.6412 391.604 28.835C391.116 29.0289 390.726 29.3197 390.384 29.6105C390.043 29.9498 389.75 30.2891 389.506 30.6769C389.262 31.0646 389.116 31.4524 389.067 31.7917H396.093V31.8886ZM388.774 34.2151C388.774 34.3121 388.725 34.409 388.725 34.5059C388.725 34.9422 388.823 35.3784 388.969 35.7177C389.164 36.1054 389.408 36.3963 389.701 36.6871C390.043 36.9779 390.384 37.1718 390.823 37.3172C391.263 37.4626 391.702 37.5595 392.238 37.5595C393.117 37.5595 393.849 37.4141 394.434 37.0748C395.02 36.7355 395.605 36.3478 396.093 35.7662L397.996 37.5111C396.337 39.3044 394.288 40.1769 391.897 40.1769C390.97 40.1769 390.14 40.0315 389.36 39.7891C388.579 39.4983 387.945 39.1105 387.359 38.6258C386.774 38.1412 386.334 37.5111 386.042 36.784C385.7 36.057 385.554 35.1845 385.554 34.2636C385.554 33.1003 385.749 32.034 386.139 31.0162C386.53 29.9983 387.066 29.1258 387.798 28.3988C388.481 27.6718 389.311 27.0901 390.287 26.6539C391.263 26.2177 392.287 26.0238 393.458 26.0238C394.239 26.0238 395.02 26.1207 395.703 26.3631C396.386 26.6054 396.972 26.9447 397.508 27.3809C397.996 27.8172 398.387 28.3988 398.679 29.0774C398.972 29.7559 399.118 30.5315 399.118 31.4039C399.118 31.6947 399.07 32.1309 399.021 32.6641C398.972 33.1973 398.874 33.682 398.777 34.1667H388.774V34.2151Z" fill="white"/>
<path d="M402.192 36.0568C402.485 36.59 402.875 37.0262 403.461 37.317C403.998 37.6078 404.632 37.7533 405.315 37.7533C406.096 37.7533 406.681 37.6078 407.169 37.317C407.608 37.0262 407.852 36.59 407.852 36.1053C407.852 35.6206 407.657 35.2813 407.316 35.039C406.974 34.7966 406.389 34.5543 405.559 34.3119C404.925 34.118 404.388 33.8757 403.9 33.6818C403.412 33.4879 403.022 33.1971 402.729 32.9063C402.387 32.6155 402.192 32.2762 401.997 31.9369C401.851 31.5492 401.753 31.1129 401.753 30.6283C401.753 29.9982 401.9 29.368 402.192 28.8349C402.485 28.3017 402.924 27.817 403.412 27.4293C403.949 27.0415 404.534 26.7507 405.266 26.5084C405.998 26.3145 406.779 26.1691 407.608 26.1691C408.682 26.1691 409.609 26.3629 410.487 26.7507C411.317 27.1385 412 27.7201 412.488 28.4956L409.951 29.9982C409.707 29.6104 409.365 29.3196 408.975 29.0772C408.584 28.8349 408.048 28.6895 407.364 28.6895C407.072 28.6895 406.779 28.7379 406.486 28.7864C406.193 28.8349 405.949 28.9318 405.705 29.0288C405.462 29.1742 405.315 29.3196 405.169 29.5135C405.022 29.7073 404.974 29.9497 404.974 30.289C404.974 30.7252 405.169 31.016 405.51 31.2584C405.901 31.4522 406.437 31.6461 407.121 31.8885C408.389 32.2277 409.365 32.7124 410.048 33.3425C410.731 33.9242 411.073 34.7966 411.073 35.9114C411.073 36.6385 410.926 37.317 410.585 37.8987C410.243 38.4803 409.853 38.965 409.316 39.3527C408.78 39.7405 408.145 40.0313 407.462 40.2252C406.779 40.4191 405.998 40.516 405.218 40.516C403.754 40.516 402.583 40.2737 401.704 39.7405C400.826 39.2073 400.143 38.5772 399.655 37.8502L402.192 36.0568Z" fill="white"/>
<path d="M128.655 13.4902L127.44 20.4202H119.34L115.02 44.9902H107.82L112.14 20.4202H104.04L105.255 13.4902H128.655ZM146.387 13.4902H153.857L141.302 35.7202C139.922 38.1502 138.437 40.0852 136.847 41.5252C135.257 42.9352 133.637 43.8952 131.987 44.4052C130.337 44.9152 128.492 45.1102 126.452 44.9902L127.622 38.2402C130.502 38.5102 132.752 37.4302 134.372 35.0002L127.757 13.4902H134.687L138.737 27.2602L146.387 13.4902ZM166.158 13.4902C169.398 13.4902 171.918 14.5702 173.718 16.7302C175.518 18.8602 176.193 21.5302 175.743 24.7402C175.293 27.8302 173.913 30.3352 171.603 32.2552C169.323 34.1452 166.398 35.0902 162.828 35.0902H158.193L156.438 44.9902H149.238L154.773 13.4902H166.158ZM168.543 24.2902C168.783 23.0602 168.603 22.0852 168.003 21.3652C167.433 20.6152 166.428 20.2402 164.988 20.2402H160.803L159.363 28.3402H163.548C164.898 28.3402 166.008 27.9802 166.878 27.2602C167.748 26.5402 168.303 25.5502 168.543 24.2902ZM196.166 13.4902H203.366L197.831 44.9902H190.631L192.836 32.4802H182.936L180.731 44.9902H173.531L179.066 13.4902H186.266L184.151 25.5502H194.051L196.166 13.4902ZM200.988 44.9902L206.523 13.4902H213.723L210.798 30.0952L225.873 13.4902H231.273L225.738 44.9902H218.538L221.463 28.3852L206.388 44.9902H200.988ZM245.805 13.4902C249.045 13.4902 251.565 14.5702 253.365 16.7302C255.165 18.8602 255.84 21.5302 255.39 24.7402C254.94 27.8302 253.56 30.3352 251.25 32.2552C248.97 34.1452 246.045 35.0902 242.475 35.0902H237.84L236.085 44.9902H228.885L234.42 13.4902H245.805ZM248.19 24.2902C248.43 23.0602 248.25 22.0852 247.65 21.3652C247.08 20.6152 246.075 20.2402 244.635 20.2402H240.45L239.01 28.3402H243.195C244.545 28.3402 245.655 27.9802 246.525 27.2602C247.395 26.5402 247.95 25.5502 248.19 24.2902Z" fill="white"/>
<defs>
<linearGradient id="paint0_linear" x1="41.903" y1="30.2163" x2="778.173" y2="21.1148" gradientUnits="userSpaceOnUse">
<stop stop-color="#0A9F30" stop-opacity="0"/>
<stop offset="1" stop-color="#0A9F30"/>
</linearGradient>
</defs>
</svg>
