<svg width="163" height="50" fill="none" xmlns="http://www.w3.org/2000/svg"><path d="M161.894 43.489c0 3.125-2.78 5.732-6.303 5.732H6.817c-3.523 0-6.304-2.607-6.304-5.732V7.136c0-3.124 2.78-5.731 6.304-5.731H155.59c3.522 0 6.302 2.607 6.302 5.731l.001 36.353z" stroke="#fff" stroke-width=".996"/><path d="M65.269 32.684h-2.457l-1.346-4.018h-4.679l-1.282 4.018h-2.392l4.635-13.68h2.863l4.658 13.68zM61.06 26.98l-1.217-3.572c-.129-.365-.37-1.224-.726-2.577h-.043c-.142.582-.37 1.441-.684 2.577l-1.196 3.572h3.866zm16.13.65c0 1.678-.478 3.004-1.432 3.977-.855.867-1.916 1.3-3.183 1.3-1.368 0-2.35-.467-2.949-1.4h-.043v5.195h-2.307V26.067c0-1.054-.03-2.137-.085-3.247h2.028l.13 1.564h.042c.77-1.178 1.937-1.766 3.504-1.766 1.225 0 2.247.46 3.065 1.38.82.92 1.23 2.13 1.23 3.633zm-2.35.08c0-.96-.228-1.75-.684-2.374-.5-.65-1.17-.974-2.009-.974-.569 0-1.086.18-1.548.538-.463.36-.766.83-.908 1.41a2.736 2.736 0 00-.107.669v1.645c0 .717.232 1.322.695 1.817.463.494 1.064.74 1.805.74.868 0 1.545-.318 2.028-.953.485-.636.727-1.475.727-2.517zm14.291-.08c0 1.678-.477 3.004-1.432 3.977-.854.867-1.915 1.3-3.182 1.3-1.368 0-2.35-.467-2.948-1.4h-.043v5.195H79.22V26.067c0-1.054-.029-2.137-.085-3.247h2.028l.13 1.564h.043c.768-1.178 1.935-1.766 3.503-1.766 1.224 0 2.246.46 3.066 1.38.817.92 1.227 2.13 1.227 3.633zm-2.35.08c0-.96-.228-1.75-.685-2.374-.498-.65-1.166-.974-2.007-.974-.57 0-1.086.18-1.55.538-.462.36-.764.83-.906 1.41-.07.272-.107.494-.107.669v1.645c0 .717.232 1.322.693 1.817.463.493 1.064.74 1.806.74.87 0 1.546-.318 2.03-.953.484-.636.726-1.475.726-2.517zm15.702 1.138c0 1.163-.425 2.11-1.279 2.84-.938.8-2.244 1.198-3.922 1.198-1.55 0-2.791-.284-3.732-.852l.535-1.827a6.577 6.577 0 003.335.874c.868 0 1.545-.187 2.03-.559.484-.372.725-.872.725-1.494 0-.556-.199-1.023-.598-1.402-.397-.38-1.06-.732-1.986-1.058-2.522-.893-3.781-2.202-3.781-3.923 0-1.124.441-2.046 1.325-2.763.881-.719 2.056-1.078 3.526-1.078 1.31 0 2.398.217 3.267.65l-.576 1.787c-.812-.42-1.73-.63-2.756-.63-.812 0-1.446.19-1.9.569-.384.338-.577.75-.577 1.238 0 .541.22.988.661 1.34.384.325 1.082.676 2.095 1.055 1.239.474 2.149 1.028 2.734 1.663.583.634.874 1.426.874 2.372zm7.627-4.383h-2.542v4.789c0 1.218.448 1.826 1.346 1.826.412 0 .754-.034 1.024-.102l.064 1.664c-.454.162-1.053.243-1.794.243-.911 0-1.623-.264-2.137-.791-.512-.529-.769-1.415-.769-2.66v-4.971h-1.515v-1.645h1.515v-1.806l2.266-.65v2.456h2.542v1.647zm11.473 3.205c0 1.517-.457 2.761-1.368 3.735-.955 1.002-2.223 1.502-3.804 1.502-1.524 0-2.737-.48-3.641-1.44-.905-.96-1.357-2.172-1.357-3.633 0-1.528.465-2.78 1.399-3.754.932-.974 2.189-1.461 3.77-1.461 1.523 0 2.749.48 3.674 1.44.885.933 1.327 2.137 1.327 3.612zm-2.394.072c0-.91-.204-1.69-.619-2.34-.483-.788-1.175-1.18-2.071-1.18-.927 0-1.631.393-2.115 1.18-.414.65-.619 1.443-.619 2.38 0 .91.205 1.69.619 2.34.499.788 1.196 1.18 2.095 1.18.881 0 1.572-.4 2.071-1.2.425-.663.639-1.452.639-2.36zm9.892-2.995a4.209 4.209 0 00-.727-.06c-.812 0-1.439.29-1.881.873-.384.514-.576 1.164-.576 1.948v5.176h-2.306l.022-6.758c0-1.136-.03-2.171-.087-3.105h2.009l.085 1.887h.063a3.384 3.384 0 011.154-1.562 2.887 2.887 0 011.667-.528 3.9 3.9 0 01.577.04v2.09zm10.317 2.538c0 .393-.027.724-.085.994h-6.92c.027.975.361 1.72 1.004 2.234.583.46 1.337.69 2.264.69 1.024 0 1.959-.156 2.8-.467l.361 1.521c-.982.407-2.142.61-3.481.61-1.61 0-2.873-.45-3.793-1.35-.918-.9-1.377-2.107-1.377-3.622 0-1.488.427-2.726 1.283-3.714.896-1.054 2.106-1.582 3.63-1.582 1.496 0 2.629.528 3.398 1.582.61.838.916 1.874.916 3.104zm-2.2-.568c.015-.65-.135-1.211-.448-1.685-.399-.61-1.013-.914-1.838-.914-.754 0-1.368.298-1.836.894-.384.473-.613 1.042-.683 1.704h4.805zM33.24 25.275c-.027-3.083 2.532-4.583 2.65-4.653-1.45-2.107-3.697-2.395-4.487-2.418-1.887-.198-3.717 1.126-4.678 1.126-.98 0-2.461-1.107-4.056-1.075-2.053.032-3.974 1.217-5.027 3.058-2.174 3.753-.553 9.268 1.53 12.302 1.042 1.485 2.26 3.144 3.852 3.086 1.56-.064 2.142-.991 4.023-.991 1.864 0 2.41.991 4.036.954 1.673-.027 2.726-1.493 3.732-2.992 1.204-1.703 1.687-3.38 1.706-3.466-.039-.013-3.249-1.235-3.28-4.93zm-3.07-9.067c.839-1.046 1.413-2.468 1.253-3.912-1.213.054-2.73.837-3.605 1.86-.773.901-1.464 2.378-1.285 3.767 1.363.102 2.763-.686 3.637-1.715z" fill="#fff"/></svg>