<svg width="164" height="50" fill="none" xmlns="http://www.w3.org/2000/svg"><path d="M162.812 43.558c0 3.093-3.069 5.755-7.06 5.755H7.873c-3.992 0-7.061-2.662-7.061-5.755V7.067c0-3.093 3.069-5.754 7.061-5.754h147.878c3.992 0 7.06 2.661 7.06 5.754l.001 36.491z" stroke="#fff"/><path d="M76.79 32.813l-1.289-3.809H70.13l-1.29 3.809h-2.275l5.088-14.092h2.364l5.088 14.092H76.79zm-4.004-11.748l-2.1 6.181h4.258l-2.1-6.181h-.058zm7.617 11.748V22.539h2.012v1.72h.049a3.216 3.216 0 011.25-1.397c.547-.332 1.207-.498 1.982-.498 1.127 0 2.002.338 2.627 1.015.625.67.938 1.598.938 2.783v6.65h-2.12v-6.24c0-.78-.185-1.373-.556-1.777-.365-.41-.908-.615-1.63-.615-.743 0-1.335.24-1.778.723-.443.481-.664 1.123-.664 1.923v5.987h-2.11zm14.756.175c-1.302 0-2.347-.481-3.135-1.445-.787-.963-1.181-2.252-1.181-3.867 0-1.615.39-2.9 1.172-3.857.787-.964 1.83-1.446 3.125-1.446.722 0 1.367.17 1.933.508.567.332.996.788 1.29 1.367h.038v-5.527h2.12v14.092H98.47v-1.748h-.04a3.456 3.456 0 01-1.318 1.416c-.566.338-1.217.508-1.953.508zm.557-8.837c-.834 0-1.494.319-1.983.957-.488.631-.732 1.487-.732 2.568 0 1.087.244 1.947.732 2.578.489.632 1.15.947 1.983.947.814 0 1.468-.319 1.963-.957.495-.644.742-1.5.742-2.568 0-1.061-.248-1.914-.742-2.559-.495-.644-1.15-.966-1.963-.966zm6.972 8.662V22.539h2.012v1.748h.049c.169-.599.472-1.067.908-1.406.436-.338.957-.508 1.563-.508.202 0 .442.026.722.078v1.963c-.188-.078-.504-.117-.947-.117-.677 0-1.214.212-1.611.635-.391.423-.586 1-.586 1.728v6.153h-2.11zm14.073-1.23c-.886.95-2.067 1.425-3.545 1.425-1.478 0-2.66-.475-3.545-1.426-.886-.957-1.328-2.259-1.328-3.906 0-1.64.442-2.936 1.328-3.887.885-.957 2.067-1.435 3.545-1.435 1.478 0 2.659.478 3.545 1.435.885.95 1.328 2.246 1.328 3.887 0 1.647-.443 2.95-1.328 3.906zm-3.545-.313c.84 0 1.504-.316 1.992-.947.488-.632.732-1.514.732-2.647 0-1.126-.247-2.005-.742-2.637-.488-.631-1.149-.947-1.982-.947-.834 0-1.498.316-1.992.947-.489.632-.733 1.51-.733 2.637 0 1.133.244 2.015.733 2.647.494.631 1.158.947 1.992.947zm6.572 1.543V22.539h2.109v10.274h-2.109zm1.924-12.13a1.202 1.202 0 01-.869.352 1.2 1.2 0 01-.869-.351 1.155 1.155 0 01-.352-.85c0-.338.117-.625.352-.86a1.2 1.2 0 01.869-.35c.345 0 .635.117.869.35.241.235.361.522.361.86 0 .332-.12.616-.361.85zm6.201 12.306c-1.302 0-2.347-.482-3.135-1.446-.787-.963-1.181-2.252-1.181-3.867 0-1.615.39-2.9 1.172-3.857.787-.964 1.829-1.446 3.125-1.446.722 0 1.367.17 1.933.508a3.26 3.26 0 011.289 1.367h.039v-5.527h2.119v14.092h-2.05v-1.748h-.039a3.457 3.457 0 01-1.319 1.416c-.566.338-1.217.508-1.953.508zm.557-8.838c-.834 0-1.494.319-1.983.957-.488.631-.732 1.487-.732 2.568 0 1.087.244 1.947.732 2.578.489.632 1.149.947 1.983.947.814 0 1.468-.319 1.963-.957.494-.644.742-1.5.742-2.568 0-1.061-.248-1.914-.742-2.559-.495-.644-1.149-.966-1.963-.966z" fill="#fff"/><g clip-path="url(#clip0)"><path d="M34.118 27.958c0 .962-.67 1.75-1.49 1.75-.818 0-1.49-.787-1.49-1.75v-5.726c0-.962.67-1.75 1.49-1.75s1.49.788 1.49 1.75v5.726zm17.366 0c0 .962-.67 1.75-1.49 1.75s-1.49-.787-1.49-1.75v-5.726c0-.962.67-1.75 1.49-1.75s1.49.788 1.49 1.75v5.726zm-6.916-13.01l.956-1.715c.078-.14.054-.303-.051-.362-.106-.058-.258.007-.335.147l-.977 1.755a7.868 7.868 0 00-2.882-.535 7.87 7.87 0 00-2.901.544l-.983-1.763c-.078-.14-.229-.206-.334-.147-.106.06-.13.222-.051.362l.96 1.724c-1.998.938-3.344 2.7-3.344 4.72 0 .205.015.407.041.607h13.225c.027-.2.041-.401.041-.607 0-2.026-1.354-3.793-3.364-4.729h-.001zm-6.31 2.994a.583.583 0 11.001-1.165.583.583 0 010 1.165zm6.073 0a.583.583 0 110-1.165.583.583 0 010 1.165zm-9.707 2.92v9.754h.006c.068.824.826 1.478 1.744 1.478h9.808c.918 0 1.675-.654 1.744-1.478h.006v-9.753H34.625zm5.702 11.184v3.017c0 .962-.67 1.75-1.49 1.75s-1.49-.788-1.49-1.75v-3.015l2.98-.002zm4.965-.002v3.02c0 .961-.67 1.749-1.49 1.749s-1.49-.788-1.49-1.75v-3.019h2.98z" fill="#fff"/></g><defs><clipPath id="clip0"><path fill="#fff" transform="translate(29.311 12.813)" d="M0 0h24v24H0z"/></clipPath></defs></svg>