<svg width="168" height="56" fill="none" xmlns="http://www.w3.org/2000/svg"><g clip-path="url(#clip0)" fill="#fff"><path d="M11.714 26.676L12.47 30h5.546l1.866-3.093-1.514 8.13h7.358L29.838 13h-7.736l-5.41 8.768L14.553 13H6.9L2.787 35.035h7.358l1.569-8.359zm37.737 8.359h9.144L62.788 30l2.84 5.036H73.5L67.414 24.35 76.963 13h-9.144l-4.03 4.831L61.083 13h-7.872l5.898 10.455-6.872 8.232-2.786 3.348zm-14.229 0L37.52 30h3.68l.46 5.036h7.466l-.514-3.348L45.664 13h-6.439l-11.66 22.035h7.657zm3.95-9.023l1.514-3.298.243 3.298h-1.758zm43.796 11.427l2.976-15.798h-7.358l-4.112 21.984h16.61l1.163-6.186h-9.279zM97.711 21.64l-4.112 21.985h7.358l4.112-21.984h-7.358zm22.507 0l-1.731 9.331-5.275-9.33h-5.627l-4.112 21.984h7.358l1.732-9.228 5.221 9.228h5.68l4.112-21.984h-7.358zm24.726 6.187l1.136-6.186h-15.988l-4.112 21.984h16.042l1.136-6.186h-8.656l.379-2.071h6.167l1.109-5.828h-6.167l.297-1.713h8.657zM2.3 37.439L0 43.625h71.904l1.163-6.186H2.299zm76.719-18.202l1.163-6.186h68.901l-2.543 6.186H79.019zm75.052-5.557c.316 0 .632.063.948.187.284.125.537.28.79.498.221.218.411.467.506.779.126.28.189.591.189.934 0 .436-.095.84-.316 1.183a2.353 2.353 0 01-.885.872c-.379.218-.79.311-1.201.311-.442 0-.853-.093-1.2-.311a2.353 2.353 0 01-1.201-2.055c0-.405.094-.84.316-1.183.221-.374.505-.654.885-.872.316-.25.726-.343 1.169-.343zm0 .468c-.348 0-.664.093-.98.249a1.824 1.824 0 00-.695.685c-.19.28-.253.622-.253.965 0 .342.095.654.253.965.19.28.411.53.727.685.284.156.632.25.979.25.348 0 .696-.094.98-.25.285-.156.537-.405.695-.685a2 2 0 00.253-.965 2 2 0 00-.253-.965c-.158-.28-.41-.53-.695-.685-.347-.156-.664-.25-1.011-.25zm-.569 3.175h-.537v-2.522h1.201c.189 0 .347.031.474.094a.743.743 0 01.284.249.731.731 0 01.095.373.627.627 0 01-.19.468.86.86 0 01-.505.249c.126.03.189.093.284.186.063.094.158.218.285.405l.316.498h-.633l-.221-.404c-.095-.187-.189-.312-.253-.405a.422.422 0 00-.221-.187.602.602 0 00-.253-.062h-.126v1.058zm0-2.117v.685h.411c.189 0 .347-.031.442-.062a.325.325 0 00.158-.28.281.281 0 00-.126-.25c-.095-.062-.221-.093-.411-.093h-.474z"/></g><defs><clipPath id="clip0"><path fill="#fff" d="M0 0h168v55.082H0z"/></clipPath></defs></svg>