<svg width="41" height="46" viewBox="0 0 41 46" fill="none" xmlns="http://www.w3.org/2000/svg">
<path d="M20.3878 45.6298C12.4889 45.6298 6.06836 39.2193 6.06836 31.3327C6.06836 23.4883 12.4889 17.0778 20.3878 17.0778C28.2868 17.0778 34.7073 23.4883 34.7073 31.3749C34.7073 39.2193 28.2868 45.6298 20.3878 45.6298ZM20.3878 18.7647C13.4182 18.7647 7.75797 24.4161 7.75797 31.3749C7.75797 38.3336 13.4182 43.985 20.3878 43.985C27.3575 43.985 33.0177 38.3336 33.0177 31.3749C33.0177 24.4161 27.3575 18.7647 20.3878 18.7647Z" fill="#FF2748"/>
<path d="M40.3253 7.6729C40.1141 7.1668 39.7339 6.78723 39.227 6.57636L25.2877 0.756306C24.2739 0.334562 23.0912 0.79848 22.6688 1.85284L20.3878 7.37768L18.0646 1.85284C17.6422 0.840654 16.4595 0.334562 15.4457 0.756306L1.50643 6.57636C0.492659 6.99811 -0.0142248 8.17899 0.408178 9.19117L7.42007 25.9344C7.54679 26.2718 7.88471 26.4405 8.18039 26.4405C8.30711 26.4405 8.39159 26.4405 8.51832 26.3561C8.94072 26.1874 9.15192 25.6813 8.98296 25.2596L2.01331 8.55856C1.92883 8.38986 2.01331 8.22116 2.18227 8.13681L8.01143 5.6907L12.4889 15.4751C12.6156 15.7704 12.9535 15.9812 13.2492 15.9812C13.3759 15.9812 13.5027 15.9391 13.5872 15.8969C14.0096 15.686 14.1785 15.2221 14.0096 14.8004L9.57432 5.05809L16.1216 2.31676C16.2905 2.23241 16.4595 2.31676 16.544 2.48545L19.5008 9.52857L16.1216 17.626C15.9526 18.0478 16.1638 18.5539 16.5862 18.7226C17.0086 18.8913 17.5155 18.6804 17.6845 18.2587L21.2326 9.82379C21.2326 9.82379 21.2326 9.78161 21.2749 9.78161L24.3162 2.44328C24.4007 2.27458 24.5696 2.19023 24.7386 2.27458L31.2436 4.97374L26.7239 14.8004C26.5127 15.2221 26.7239 15.7282 27.1463 15.8969C27.273 15.9391 27.3997 15.9812 27.4842 15.9812C27.8221 15.9812 28.1178 15.8125 28.2445 15.4751L32.722 5.6907L38.5512 8.13681C38.6779 8.17899 38.7201 8.26334 38.7201 8.30551C38.7201 8.34769 38.7624 8.43203 38.7201 8.55856L31.7927 25.3018C31.6238 25.7235 31.835 26.2296 32.2574 26.3983C32.3841 26.4405 32.4686 26.4826 32.5953 26.4826C32.9332 26.4826 33.2289 26.2718 33.3556 25.9766L40.3253 9.27552C40.5365 8.72725 40.5365 8.17899 40.3253 7.6729Z" fill="#FF2748"/>
<path d="M21.1276 30.6588C21.9276 30.8088 22.5826 31.1538 23.0926 31.6938C23.6026 32.2338 23.8576 32.9188 23.8576 33.7488C23.8576 34.7688 23.5076 35.5738 22.8076 36.1638C22.1076 36.7538 21.2576 37.0488 20.2576 37.0488C19.4576 37.0488 18.7476 36.8688 18.1276 36.5088C17.5076 36.1388 17.0676 35.6088 16.8076 34.9188L17.9776 34.2288C18.2876 35.1988 19.0476 35.6838 20.2576 35.6838C20.9076 35.6838 21.4376 35.5138 21.8476 35.1738C22.2576 34.8338 22.4626 34.3588 22.4626 33.7488C22.4626 33.1388 22.2576 32.6638 21.8476 32.3238C21.4376 31.9738 20.9076 31.7988 20.2576 31.7988H19.8976L19.3426 30.9438L21.7726 27.6588H17.1076V26.3538H23.4076V27.5838L21.1276 30.6588Z" fill="#FF2748"/>
</svg>
