<svg width="42" height="46" viewBox="0 0 42 46" fill="none" xmlns="http://www.w3.org/2000/svg">
<path d="M20.9972 45.1683C13.0983 45.1683 6.67773 38.7579 6.67773 30.8713C6.67773 23.0268 13.0983 16.6163 20.9972 16.6163C28.8961 16.6163 35.3167 23.0268 35.3167 30.9134C35.3167 38.7579 28.8961 45.1683 20.9972 45.1683ZM20.9972 18.3033C14.0275 18.3033 8.36735 23.9547 8.36735 30.9134C8.36735 37.8722 14.0275 43.5235 20.9972 43.5235C27.9668 43.5235 33.627 37.8722 33.627 30.9134C33.627 23.9547 27.9668 18.3033 20.9972 18.3033Z" fill="#FF2748"/>
<path d="M40.9346 7.21147C40.7234 6.70538 40.3433 6.32581 39.8364 6.11494L25.8971 0.29488C24.8833 -0.126863 23.7006 0.337054 23.2782 1.39141L20.9972 6.91625L18.674 1.39141C18.2516 0.379229 17.0689 -0.126863 16.0551 0.29488L2.1158 6.11494C1.10203 6.53668 0.59515 7.71756 1.01755 8.72975L8.02944 25.473C8.15616 25.8103 8.49409 25.979 8.78977 25.979C8.91649 25.979 9.00097 25.979 9.12769 25.8947C9.55009 25.726 9.7613 25.2199 9.59233 24.7982L2.62268 8.09713C2.5382 7.92843 2.62268 7.75974 2.79165 7.67539L8.62081 5.22928L13.0983 15.0137C13.225 15.3089 13.5629 15.5198 13.8586 15.5198C13.9853 15.5198 14.112 15.4776 14.1965 15.4355C14.6189 15.2246 14.7879 14.7607 14.6189 14.3389L10.1837 4.59666L16.7309 1.85533C16.8999 1.77098 17.0689 1.85533 17.1533 2.02403L20.1102 9.06714L16.7309 17.1646C16.562 17.5864 16.7732 18.0924 17.1956 18.2611C17.618 18.4298 18.1249 18.219 18.2938 17.7972L21.842 9.36236C21.842 9.36236 21.842 9.32019 21.8843 9.32019L24.9256 1.98185C25.01 1.81316 25.179 1.72881 25.348 1.81316L31.853 4.51231L27.3333 14.3389C27.1221 14.7607 27.3333 15.2668 27.7557 15.4355C27.8824 15.4776 28.0091 15.5198 28.0936 15.5198C28.4315 15.5198 28.7272 15.3511 28.8539 15.0137L33.3314 5.22928L39.1605 7.67539C39.2873 7.71756 39.3295 7.80191 39.3295 7.84409C39.3295 7.88626 39.3717 7.97061 39.3295 8.09713L32.4021 24.8403C32.2331 25.2621 32.4443 25.7682 32.8667 25.9369C32.9935 25.979 33.0779 26.0212 33.2047 26.0212C33.5426 26.0212 33.8383 25.8103 33.965 25.5151L40.9346 8.81409C41.1458 8.26583 41.1458 7.71756 40.9346 7.21147Z" fill="#FF2748"/>
<path d="M24.3258 32.3543V33.6593H23.0508V35.6543H21.6558V33.6593H16.3008V32.3543L20.0658 25.1543H21.5658L17.8008 32.3543H21.6558V29.3843H23.0508V32.3543H24.3258Z" fill="#FF2748"/>
</svg>
