<svg width="120" height="36" fill="none" xmlns="http://www.w3.org/2000/svg"><path d="M119.078 31.384c0 2.212-1.973 4.08-4.5 4.08H5.211c-2.527 0-4.5-1.867-4.5-4.08V4.66C.71 2.448 2.683.58 5.21.58h109.367c2.527 0 4.499 1.868 4.499 4.08l.001 26.724z" fill="#000" stroke="#fff"/><path d="M48.18 23.44h-1.806l-.99-2.953h-3.438l-.943 2.954h-1.759l3.408-10.056h2.105l3.424 10.056zm-3.093-4.192l-.895-2.626c-.095-.268-.272-.9-.534-1.894h-.032a70.09 70.09 0 01-.502 1.894l-.88 2.626h2.843zm11.857.478c0 1.233-.351 2.208-1.053 2.924-.628.637-1.408.955-2.34.955-1.005 0-1.727-.343-2.167-1.03h-.032v3.82h-1.696v-7.818c0-.775-.021-1.57-.063-2.387h1.492l.094 1.15h.032c.566-.867 1.424-1.299 2.576-1.299.9 0 1.652.338 2.253 1.014.603.677.904 1.567.904 2.671zm-1.728.06c0-.707-.167-1.288-.503-1.746-.366-.478-.859-.717-1.476-.717a1.82 1.82 0 00-1.138.396c-.34.264-.563.61-.667 1.037a2.01 2.01 0 00-.08.491v1.21c0 .527.171.972.511 1.335.34.363.783.545 1.327.545.639 0 1.136-.234 1.492-.701.356-.468.534-1.085.534-1.85zm10.506-.06c0 1.233-.35 2.208-1.053 2.924-.627.637-1.407.955-2.339.955-1.005 0-1.727-.343-2.167-1.03h-.031v3.82h-1.696v-7.818c0-.775-.022-1.57-.063-2.387h1.491l.095 1.15h.032c.565-.867 1.423-1.299 2.575-1.299.9 0 1.652.338 2.254 1.014.601.677.903 1.567.903 2.671zm-1.727.06c0-.707-.168-1.288-.504-1.746-.366-.478-.857-.717-1.475-.717-.42 0-.799.133-1.14.396a1.82 1.82 0 00-.666 1.037c-.051.2-.078.363-.078.491v1.21c0 .527.17.972.509 1.335.34.363.782.545 1.328.545.639 0 1.136-.234 1.491-.701.357-.468.535-1.085.535-1.85zm11.543.834c0 .856-.313 1.552-.94 2.09-.69.586-1.65.88-2.884.88-1.139 0-2.052-.209-2.743-.627l.393-1.343a4.834 4.834 0 002.451.643c.639 0 1.136-.138 1.493-.411.356-.274.533-.641.533-1.099 0-.408-.146-.752-.44-1.03-.292-.28-.78-.538-1.46-.778-1.853-.657-2.78-1.619-2.78-2.883 0-.827.325-1.505.975-2.032.648-.528 1.511-.792 2.592-.792.963 0 1.763.16 2.402.478l-.424 1.313c-.597-.309-1.271-.463-2.026-.463-.597 0-1.063.14-1.397.418a1.168 1.168 0 00-.424.91c0 .398.162.727.486.985.283.239.796.497 1.54.776.91.348 1.58.756 2.01 1.223.429.465.643 1.048.643 1.743zm5.606-3.221h-1.869v3.52c0 .896.33 1.343.99 1.343.303 0 .554-.025.753-.075l.047 1.223c-.334.12-.774.179-1.319.179-.67 0-1.193-.194-1.57-.582-.377-.388-.566-1.04-.566-1.955v-3.654h-1.114v-1.21h1.114v-1.327l1.665-.478v1.806h1.87v1.21zm8.434 2.357c0 1.114-.335 2.03-1.005 2.745-.702.736-1.635 1.104-2.797 1.104-1.12 0-2.011-.353-2.676-1.059s-.998-1.596-.998-2.67c0-1.124.342-2.044 1.029-2.76.684-.716 1.609-1.074 2.77-1.074 1.12 0 2.022.353 2.702 1.06.65.685.975 1.57.975 2.654zm-1.76.052c0-.669-.15-1.242-.454-1.72-.356-.58-.864-.868-1.523-.868-.681 0-1.2.29-1.555.867-.304.48-.455 1.062-.455 1.751 0 .669.15 1.242.455 1.72.367.579.88.867 1.54.867.648 0 1.156-.294 1.523-.882.312-.488.47-1.067.47-1.735zm7.272-2.201a3.092 3.092 0 00-.534-.045c-.597 0-1.058.214-1.383.642-.282.378-.424.856-.424 1.432v3.805h-1.695l.016-4.967c0-.836-.021-1.597-.063-2.283h1.477l.062 1.387h.047a2.48 2.48 0 01.848-1.148c.377-.26.785-.389 1.225-.389.157 0 .299.01.424.03v1.536zm7.584 1.865c0 .289-.019.532-.062.731h-5.087c.02.716.266 1.264.738 1.642.429.338.983.507 1.664.507.753 0 1.441-.114 2.059-.343l.265 1.118c-.722.3-1.575.448-2.559.448-1.183 0-2.112-.33-2.788-.992-.675-.661-1.013-1.549-1.013-2.663 0-1.093.314-2.003.944-2.73.658-.775 1.548-1.162 2.668-1.162 1.1 0 1.933.387 2.499 1.162.447.616.672 1.378.672 2.282zm-1.617-.418c.012-.477-.099-.89-.329-1.238-.293-.448-.744-.672-1.351-.672-.555 0-1.006.219-1.35.657-.282.348-.45.766-.502 1.253h3.532zm-76.423-1.059c-.02-2.267 1.861-3.37 1.947-3.42-1.065-1.55-2.717-1.762-3.297-1.779-1.387-.145-2.733.828-3.44.828-.72 0-1.809-.814-2.981-.79-1.51.023-2.921.895-3.696 2.248-1.598 2.759-.406 6.813 1.125 9.043.766 1.093 1.661 2.312 2.832 2.27 1.146-.048 1.574-.73 2.957-.73 1.37 0 1.773.73 2.967.702 1.23-.02 2.005-1.098 2.744-2.2.885-1.251 1.24-2.484 1.254-2.548-.029-.01-2.388-.907-2.412-3.624zm-2.256-6.665c.616-.77 1.038-1.815.92-2.877-.891.04-2.007.616-2.65 1.368-.568.662-1.076 1.748-.945 2.77 1.003.074 2.031-.505 2.675-1.262z" fill="#fff"/></svg>