<svg width="120" height="36" fill="none" xmlns="http://www.w3.org/2000/svg"><path d="M119.5 31.384c0 2.168-2.162 4.08-5.036 4.08H6.171c-2.875 0-5.038-1.912-5.038-4.08V4.66c0-2.168 2.163-4.08 5.038-4.08h108.293c2.874 0 5.036 1.912 5.036 4.08v26.724z" fill="#000" stroke="#fff"/><path d="M56.64 23.515l-.945-2.79h-3.933l-.944 2.79h-1.666l3.725-10.32h1.731l3.726 10.32H56.64zm-2.933-8.604l-1.538 4.527h3.119l-1.538-4.527h-.043zm5.578 8.604V15.99h1.474v1.259h.035c.21-.439.515-.78.916-1.023.4-.243.884-.364 1.451-.364.825 0 1.466.247 1.924.743.458.491.687 1.17.687 2.038v4.87H64.22v-4.57c0-.571-.136-1.005-.408-1.3-.267-.301-.665-.451-1.194-.451-.544 0-.977.176-1.302.529-.324.353-.486.822-.486 1.409v4.384h-1.545zm10.806.128c-.953 0-1.718-.352-2.295-1.058-.577-.706-.866-1.65-.866-2.832s.286-2.124.858-2.825c.577-.706 1.34-1.058 2.289-1.058.53 0 1.001.124 1.416.372.415.243.73.576.944 1h.029v-4.047h1.551v10.32h-1.501v-1.28h-.03a2.53 2.53 0 01-.965 1.037c-.414.247-.891.371-1.43.371zm.408-6.472c-.61 0-1.094.234-1.452.701-.358.463-.536 1.09-.536 1.881 0 .796.178 1.425.536 1.888.358.462.842.694 1.452.694a1.73 1.73 0 001.437-.701c.363-.472.544-1.1.544-1.881 0-.777-.181-1.402-.544-1.874a1.724 1.724 0 00-1.437-.708zm5.106 6.344V15.99h1.473v1.28h.036c.124-.438.346-.782.665-1.03.32-.247.7-.371 1.144-.371.148 0 .325.019.53.057v1.437c-.139-.057-.37-.085-.694-.085-.496 0-.89.154-1.18.464-.286.31-.43.732-.43 1.266v4.506h-1.544zm10.305-.901c-.648.696-1.513 1.044-2.596 1.044-1.082 0-1.947-.348-2.596-1.044-.648-.701-.972-1.655-.972-2.861 0-1.201.324-2.15.972-2.846.649-.701 1.514-1.052 2.596-1.052 1.083 0 1.948.35 2.596 1.052.649.696.973 1.645.973 2.846 0 1.206-.324 2.16-.973 2.86zm-2.596-.23c.615 0 1.102-.23 1.46-.693.357-.462.536-1.108.536-1.938 0-.825-.182-1.468-.544-1.93-.358-.463-.841-.695-1.452-.695-.61 0-1.096.232-1.459.694-.357.463-.536 1.106-.536 1.931 0 .83.179 1.476.536 1.938.363.463.85.694 1.46.694zm4.813 1.131V15.99h1.545v7.524h-1.545zm1.41-8.883a.88.88 0 01-.637.258.88.88 0 01-.637-.258.847.847 0 01-.257-.622.88.88 0 01.894-.887c.252 0 .465.086.636.258a.844.844 0 01.265.63c0 .243-.088.45-.265.622zm4.54 9.011c-.953 0-1.718-.352-2.295-1.058-.577-.706-.866-1.65-.866-2.832s.286-2.124.859-2.825c.576-.706 1.34-1.058 2.288-1.058.53 0 1.001.124 1.416.372.415.243.73.576.944 1h.029v-4.047h1.552v10.32h-1.502v-1.28h-.029a2.53 2.53 0 01-.965 1.037 2.743 2.743 0 01-1.43.371zm.408-6.472c-.61 0-1.094.234-1.452.701-.357.463-.536 1.09-.536 1.881 0 .796.179 1.425.536 1.888.358.462.842.694 1.452.694a1.73 1.73 0 001.437-.701c.363-.472.544-1.1.544-1.881 0-.777-.181-1.402-.544-1.874a1.724 1.724 0 00-1.437-.708z" fill="#fff"/><g clip-path="url(#clip0)"><path d="M25.39 19.96c0 .704-.491 1.28-1.09 1.28-.6 0-1.092-.576-1.092-1.28v-4.194c0-.704.491-1.28 1.091-1.28s1.09.576 1.09 1.28v4.193zm12.717 0c0 .704-.49 1.28-1.09 1.28-.6 0-1.092-.576-1.092-1.28v-4.194c0-.704.491-1.28 1.091-1.28s1.091.576 1.091 1.28v4.193zm-5.064-9.528l.7-1.255c.057-.103.04-.223-.038-.266-.077-.043-.188.005-.245.108l-.716 1.285a5.763 5.763 0 00-2.11-.392c-.761 0-1.482.144-2.125.398l-.719-1.29c-.057-.103-.168-.152-.245-.108-.077.043-.095.163-.037.265l.703 1.262c-1.463.688-2.449 1.978-2.449 3.457 0 .15.011.298.03.444h9.685c.02-.146.03-.293.03-.444 0-1.484-.992-2.777-2.463-3.463h-.001zm-4.62 2.193a.426.426 0 110-.853.426.426 0 010 .853zm4.446 0a.426.426 0 110-.853.426.426 0 010 .853zm-7.108 2.139v7.142h.004c.05.603.605 1.083 1.277 1.083h7.183c.672 0 1.227-.48 1.277-1.083h.004v-7.142h-9.745zm4.175 8.19v2.209c0 .704-.49 1.28-1.09 1.28-.601 0-1.091-.576-1.091-1.28v-2.208l2.181-.002zm3.636-.002v2.21c0 .705-.49 1.282-1.091 1.282-.6 0-1.091-.577-1.091-1.281v-2.211h2.182z" fill="#fff"/></g><defs><clipPath id="clip0"><path fill="#fff" transform="translate(21.87 8.868)" d="M0 0h17.576v17.576H0z"/></clipPath></defs></svg>