<svg width="927" height="303" viewBox="0 0 927 303" fill="none" xmlns="http://www.w3.org/2000/svg">
<path d="M102.517 194.713L101.778 194.586L101.627 195.463H102.517V194.713ZM105.217 179.053L104.723 178.49L104.523 178.665L104.478 178.926L105.217 179.053ZM142.747 146.113L143.242 146.677L143.243 146.676L142.747 146.113ZM155.302 129.373L154.564 129.239L154.564 129.241L155.302 129.373ZM153.952 122.218L153.356 122.673L153.361 122.68L153.367 122.687L153.952 122.218ZM132.082 130.048L131.678 130.68L132.319 131.09L132.72 130.444L132.082 130.048ZM114.802 118.978L114.164 118.584L113.776 119.212L114.398 119.61L114.802 118.978ZM130.327 103.588L130.693 104.243L130.696 104.241L130.327 103.588ZM171.232 107.233L170.682 107.742L170.685 107.747L171.232 107.233ZM177.037 129.778L177.775 129.914L177.776 129.909L177.037 129.778ZM171.097 144.493L171.715 144.918L171.719 144.912L171.097 144.493ZM158.407 158.128L158.896 158.697L158.899 158.695L158.407 158.128ZM140.047 173.923L139.558 173.355L138.025 174.673H140.047V173.923ZM170.422 173.923L171.161 174.053L171.315 173.173H170.422V173.923ZM166.777 194.713V195.463H167.407L167.516 194.843L166.777 194.713ZM103.256 194.841L105.956 179.181L104.478 178.926L101.778 194.586L103.256 194.841ZM105.712 179.617L143.242 146.677L142.253 145.55L104.723 178.49L105.712 179.617ZM143.243 146.676C147.046 143.326 150.022 140.228 152.156 137.383C154.285 134.545 155.607 131.916 156.04 129.506L154.564 129.241C154.188 131.331 153.012 133.742 150.956 136.483C148.905 139.219 146.008 142.241 142.252 145.551L143.243 146.676ZM156.04 129.508C156.606 126.394 156.153 123.768 154.538 121.75L153.367 122.687C154.632 124.269 155.078 126.412 154.564 129.239L156.04 129.508ZM154.549 121.764C152.936 119.648 150.531 118.633 147.472 118.633V120.133C150.174 120.133 152.088 121.009 153.356 122.673L154.549 121.764ZM147.472 118.633C141.261 118.633 135.927 122.426 131.445 129.653L132.72 130.444C137.057 123.45 141.984 120.133 147.472 120.133V118.633ZM132.487 129.417L115.207 118.347L114.398 119.61L131.678 130.68L132.487 129.417ZM115.44 119.373C119.613 112.625 124.7 107.592 130.693 104.243L129.961 102.934C123.715 106.425 118.452 111.652 114.164 118.584L115.44 119.373ZM130.696 104.241C136.794 100.795 143.327 99.0734 150.307 99.0734V97.5734C143.068 97.5734 136.28 99.362 129.958 102.935L130.696 104.241ZM150.307 99.0734C158.569 99.0734 165.341 101.964 170.682 107.742L171.783 106.724C166.144 100.623 158.966 97.5734 150.307 97.5734V99.0734ZM170.685 107.747C175.986 113.395 177.885 120.658 176.299 129.648L177.776 129.909C179.429 120.539 177.459 112.772 171.779 106.72L170.685 107.747ZM176.3 129.643C175.328 134.945 173.386 139.753 170.475 144.074L171.719 144.912C174.749 140.414 176.767 135.412 177.775 129.914L176.3 129.643ZM170.479 144.068C167.556 148.321 163.375 152.819 157.915 157.562L158.899 158.695C164.42 153.898 168.699 149.306 171.715 144.918L170.479 144.068ZM157.918 157.56L139.558 173.355L140.536 174.492L158.896 158.697L157.918 157.56ZM140.047 174.673H170.422V173.173H140.047V174.673ZM169.684 173.794L166.039 194.584L167.516 194.843L171.161 174.053L169.684 173.794ZM166.777 193.963H102.517V195.463H166.777V193.963ZM201.902 182.563L201.253 182.94L201.257 182.947L201.902 182.563ZM197.582 146.113L196.843 145.983L196.843 145.984L197.582 146.113ZM213.512 111.148L214.059 111.661L213.512 111.148ZM269.807 112.498L269.158 112.875L269.16 112.878L269.807 112.498ZM274.127 148.813L274.865 148.944L274.865 148.943L274.127 148.813ZM258.197 183.778L257.649 183.266L257.646 183.269L258.197 183.778ZM252.527 147.463L251.788 147.332L252.527 147.463ZM219.182 147.463L218.443 147.332L219.182 147.463ZM228.632 195.853C216.617 195.853 207.972 191.281 202.546 182.179L201.257 182.947C206.991 192.566 216.166 197.353 228.632 197.353V195.853ZM202.55 182.187C197.178 172.939 195.729 160.985 198.32 146.243L196.843 145.984C194.214 160.942 195.646 173.288 201.253 182.94L202.55 182.187ZM198.32 146.244C200.912 131.588 206.173 120.079 214.059 111.661L212.964 110.636C204.83 119.318 199.471 131.119 196.843 145.983L198.32 146.244ZM214.059 111.661C221.926 103.264 231.627 99.0734 243.212 99.0734V97.5734C231.216 97.5734 221.117 101.933 212.964 110.636L214.059 111.661ZM243.212 99.0734C255.223 99.0734 263.821 103.688 269.158 112.875L270.455 112.122C264.812 102.409 255.68 97.5734 243.212 97.5734V99.0734ZM269.16 112.878C274.53 122.034 275.979 133.941 273.388 148.684L274.865 148.943C277.494 133.986 276.063 121.683 270.453 112.119L269.16 112.878ZM273.388 148.683C270.796 163.339 265.535 174.848 257.649 183.266L258.744 184.291C266.878 175.609 272.237 163.808 274.865 148.944L273.388 148.683ZM257.646 183.269C249.87 191.663 240.215 195.853 228.632 195.853V197.353C240.628 197.353 250.683 192.993 258.747 184.288L257.646 183.269ZM230.927 176.293C236.712 176.293 241.493 173.831 245.224 168.981C248.929 164.164 251.59 157.009 253.265 147.595L251.788 147.332C250.133 156.638 247.529 163.523 244.035 168.066C240.566 172.576 236.211 174.793 230.927 174.793V176.293ZM253.265 147.595C254.936 138.198 254.823 131 252.78 126.114C251.75 123.651 250.224 121.765 248.189 120.501C246.158 119.241 243.676 118.633 240.782 118.633V120.133C243.468 120.133 245.659 120.696 247.398 121.776C249.131 122.852 250.468 124.475 251.396 126.693C253.267 131.167 253.447 138.009 251.788 147.332L253.265 147.595ZM240.782 118.633C234.996 118.633 230.216 121.096 226.485 125.946C222.779 130.763 220.118 137.918 218.443 147.332L219.92 147.595C221.575 138.289 224.179 131.404 227.674 126.861C231.143 122.351 235.497 120.133 240.782 120.133V118.633ZM218.443 147.332C216.772 156.729 216.885 163.927 218.928 168.813C219.958 171.275 221.484 173.162 223.519 174.426C225.55 175.686 228.033 176.293 230.927 176.293V174.793C228.241 174.793 226.049 174.231 224.311 173.151C222.577 172.075 221.24 170.451 220.312 168.234C218.441 163.76 218.261 156.918 219.92 147.595L218.443 147.332ZM286.936 182.563L286.287 182.94L286.292 182.947L286.936 182.563ZM282.616 146.113L281.877 145.983L281.877 145.984L282.616 146.113ZM298.546 111.148L299.093 111.661L298.546 111.148ZM354.841 112.498L354.192 112.875L354.194 112.878L354.841 112.498ZM359.161 148.813L359.899 148.944L359.899 148.943L359.161 148.813ZM343.231 183.778L342.683 183.266L342.681 183.269L343.231 183.778ZM337.561 147.463L336.822 147.332L337.561 147.463ZM304.216 147.463L303.477 147.332L304.216 147.463ZM313.666 195.853C301.651 195.853 293.006 191.281 287.58 182.179L286.292 182.947C292.026 192.566 301.201 197.353 313.666 197.353V195.853ZM287.584 182.187C282.212 172.939 280.763 160.985 283.354 146.243L281.877 145.984C279.248 160.942 280.68 173.288 286.287 182.94L287.584 182.187ZM283.354 146.244C285.946 131.588 291.207 120.079 299.093 111.661L297.998 110.636C289.865 119.318 284.506 131.119 281.877 145.983L283.354 146.244ZM299.093 111.661C306.96 103.264 316.662 99.0734 328.246 99.0734V97.5734C316.25 97.5734 306.151 101.933 297.998 110.636L299.093 111.661ZM328.246 99.0734C340.257 99.0734 348.855 103.688 354.192 112.875L355.489 112.122C349.847 102.409 340.714 97.5734 328.246 97.5734V99.0734ZM354.194 112.878C359.564 122.034 361.013 133.941 358.422 148.684L359.899 148.943C362.528 133.986 361.097 121.683 355.488 112.119L354.194 112.878ZM358.422 148.683C355.831 163.339 350.57 174.848 342.683 183.266L343.778 184.291C351.912 175.609 357.271 163.808 359.899 148.944L358.422 148.683ZM342.681 183.269C334.904 191.663 325.25 195.853 313.666 195.853V197.353C325.662 197.353 335.717 192.993 343.781 184.288L342.681 183.269ZM315.961 176.293C321.746 176.293 326.527 173.831 330.258 168.981C333.963 164.164 336.625 157.009 338.299 147.595L336.822 147.332C335.167 156.638 332.564 163.523 329.069 168.066C325.6 172.576 321.245 174.793 315.961 174.793V176.293ZM338.299 147.595C339.971 138.198 339.857 131 337.814 126.114C336.784 123.651 335.258 121.765 333.223 120.501C331.193 119.241 328.71 118.633 325.816 118.633V120.133C328.502 120.133 330.693 120.696 332.432 121.776C334.165 122.852 335.503 124.475 336.43 126.693C338.302 131.167 338.481 138.009 336.822 147.332L338.299 147.595ZM325.816 118.633C320.03 118.633 315.25 121.096 311.519 125.946C307.814 130.763 305.152 137.918 303.477 147.332L304.954 147.595C306.61 138.289 309.213 131.404 312.708 126.861C316.177 122.351 320.531 120.133 325.816 120.133V118.633ZM303.477 147.332C301.806 156.729 301.919 163.927 303.963 168.813C304.993 171.275 306.518 173.162 308.554 174.426C310.584 175.686 313.067 176.293 315.961 176.293V174.793C313.275 174.793 311.083 174.231 309.345 173.151C307.611 172.075 306.274 170.451 305.346 168.234C303.475 163.76 303.296 156.918 304.954 147.595L303.477 147.332ZM371.97 182.563L371.321 182.94L371.326 182.947L371.97 182.563ZM367.65 146.113L366.911 145.983L366.911 145.984L367.65 146.113ZM383.58 111.148L384.127 111.661L383.58 111.148ZM439.875 112.498L439.226 112.875L439.228 112.878L439.875 112.498ZM444.195 148.813L444.933 148.944L444.934 148.943L444.195 148.813ZM428.265 183.778L427.718 183.266L427.715 183.269L428.265 183.778ZM422.595 147.463L421.857 147.332L422.595 147.463ZM389.25 147.463L388.512 147.332L389.25 147.463ZM398.7 195.853C386.685 195.853 378.04 191.281 372.614 182.179L371.326 182.947C377.06 192.566 386.235 197.353 398.7 197.353V195.853ZM372.618 182.187C367.246 172.939 365.798 160.985 368.389 146.243L366.911 145.984C364.282 160.942 365.714 173.288 371.321 182.94L372.618 182.187ZM368.388 146.244C370.98 131.588 376.241 120.079 384.127 111.661L383.033 110.636C374.899 119.318 369.54 131.119 366.911 145.983L368.388 146.244ZM384.127 111.661C391.994 103.264 401.696 99.0734 413.28 99.0734V97.5734C401.284 97.5734 391.185 101.933 383.033 110.636L384.127 111.661ZM413.28 99.0734C425.291 99.0734 433.889 103.688 439.226 112.875L440.523 112.122C434.881 102.409 425.749 97.5734 413.28 97.5734V99.0734ZM439.228 112.878C444.598 122.034 446.047 133.941 443.456 148.684L444.934 148.943C447.562 133.986 446.132 121.683 440.522 112.119L439.228 112.878ZM443.456 148.683C440.865 163.339 435.604 174.848 427.718 183.266L428.812 184.291C436.946 175.609 442.305 163.808 444.933 148.944L443.456 148.683ZM427.715 183.269C419.939 191.663 410.284 195.853 398.7 195.853V197.353C410.696 197.353 420.751 192.993 428.815 184.288L427.715 183.269ZM400.995 176.293C406.78 176.293 411.561 173.831 415.292 168.981C418.997 164.164 421.659 157.009 423.333 147.595L421.857 147.332C420.201 156.638 417.598 163.523 414.103 168.066C410.634 172.576 406.28 174.793 400.995 174.793V176.293ZM423.333 147.595C425.005 138.198 424.892 131 422.848 126.114C421.818 123.651 420.292 121.765 418.257 120.501C416.227 119.241 413.744 118.633 410.85 118.633V120.133C413.536 120.133 415.727 120.696 417.466 121.776C419.199 122.852 420.537 124.475 421.464 126.693C423.336 131.167 423.515 138.009 421.857 147.332L423.333 147.595ZM410.85 118.633C405.065 118.633 400.284 121.096 396.553 125.946C392.848 130.763 390.186 137.918 388.512 147.332L389.988 147.595C391.644 138.289 394.247 131.404 397.742 126.861C401.211 122.351 405.565 120.133 410.85 120.133V118.633ZM388.512 147.332C386.84 156.729 386.953 163.927 388.997 168.813C390.027 171.275 391.552 173.162 393.588 174.426C395.618 175.686 398.101 176.293 400.995 176.293V174.793C398.309 174.793 396.117 174.231 394.379 173.151C392.646 172.075 391.308 170.451 390.381 168.234C388.509 163.76 388.33 156.918 389.988 147.595L388.512 147.332ZM560.549 127.888L561.29 128.008L561.29 128.004L560.549 127.888ZM549.209 146.248L548.779 145.634L547.953 146.212L548.745 146.837L549.209 146.248ZM556.904 167.713L556.161 167.612L556.161 167.614L556.904 167.713ZM545.969 187.288L545.502 186.702L545.969 187.288ZM481.979 194.713L481.24 194.584L481.086 195.463H481.979V194.713ZM498.584 100.213V99.4634H497.954L497.845 100.084L498.584 100.213ZM554.744 108.043L554.209 108.569L554.214 108.574L554.744 108.043ZM516.674 120.463V119.713H516.045L515.936 120.332L516.674 120.463ZM513.704 137.203L512.966 137.072L512.809 137.953H513.704V137.203ZM538.814 128.833L538.078 128.692L538.076 128.702L538.814 128.833ZM531.929 172.033L532.404 172.614L532.407 172.612L531.929 172.033ZM535.709 165.418L536.449 165.542L535.709 165.418ZM534.224 158.938L533.635 159.403L533.649 159.42L533.664 159.437L534.224 158.938ZM510.329 156.373V155.623H509.701L509.591 156.241L510.329 156.373ZM507.089 174.463L506.351 174.331L506.193 175.213H507.089V174.463ZM559.809 127.769C558.58 135.406 554.907 141.344 548.779 145.634L549.639 146.863C556.111 142.332 559.998 136.031 561.29 128.008L559.809 127.769ZM548.745 146.837C554.892 151.685 557.392 158.559 556.161 167.612L557.647 167.814C558.937 158.328 556.307 150.891 549.674 145.66L548.745 146.837ZM556.161 167.614C555.105 175.528 551.555 181.876 545.502 186.702L546.437 187.875C552.803 182.8 556.543 176.098 557.648 167.812L556.161 167.614ZM545.502 186.702C539.466 191.513 531.102 193.963 520.319 193.963V195.463C531.316 195.463 540.052 192.964 546.437 187.875L545.502 186.702ZM520.319 193.963H481.979V195.463H520.319V193.963ZM482.718 194.843L499.323 100.343L497.845 100.084L481.24 194.584L482.718 194.843ZM498.584 100.963H534.224V99.4634H498.584V100.963ZM534.224 100.963C542.61 100.963 549.244 103.517 554.209 108.569L555.279 107.518C549.984 102.13 542.939 99.4634 534.224 99.4634V100.963ZM554.214 108.574C559.151 113.511 561.037 119.874 559.808 127.773L561.29 128.004C562.581 119.703 560.597 112.836 555.274 107.513L554.214 108.574ZM531.389 119.713H516.674V121.213H531.389V119.713ZM515.936 120.332L512.966 137.072L514.443 137.334L517.413 120.594L515.936 120.332ZM513.704 137.953H528.419V136.453H513.704V137.953ZM528.419 137.953C531.271 137.953 533.738 137.141 535.776 135.491L534.832 134.325C533.091 135.735 530.967 136.453 528.419 136.453V137.953ZM535.776 135.491C537.814 133.842 539.073 131.653 539.552 128.965L538.076 128.702C537.656 131.054 536.574 132.915 534.832 134.325L535.776 135.491ZM539.551 128.975C540.034 126.461 539.606 124.252 538.191 122.433L537.007 123.354C538.113 124.775 538.494 126.526 538.078 128.692L539.551 128.975ZM538.191 122.433C536.738 120.564 534.402 119.713 531.389 119.713V121.213C534.136 121.213 535.94 121.982 537.007 123.354L538.191 122.433ZM532.407 172.612C534.619 170.784 535.97 168.416 536.449 165.542L534.969 165.295C534.548 167.821 533.379 169.863 531.451 171.455L532.407 172.612ZM536.449 165.542C536.925 162.682 536.414 160.273 534.785 158.44L533.664 159.437C534.914 160.844 535.393 162.755 534.969 165.295L536.449 165.542ZM534.813 158.474C533.273 156.524 530.855 155.623 527.744 155.623V157.123C530.573 157.123 532.475 157.933 533.635 159.403L534.813 158.474ZM527.744 155.623H510.329V157.123H527.744V155.623ZM509.591 156.241L506.351 174.331L507.827 174.596L511.067 156.506L509.591 156.241ZM507.089 175.213H524.504V173.713H507.089V175.213ZM524.504 175.213C527.618 175.213 530.269 174.361 532.404 172.614L531.454 171.453C529.629 172.946 527.33 173.713 524.504 173.713V175.213ZM649.035 100.213L649.636 100.662L650.531 99.4634H649.035V100.213ZM609.345 153.403L608.744 152.955L608.638 153.098L608.607 153.273L609.345 153.403ZM602.055 194.713V195.463H602.685L602.794 194.844L602.055 194.713ZM580.455 194.713L579.717 194.583L579.562 195.463H580.455V194.713ZM587.745 153.268L588.484 153.398L588.521 153.189L588.442 152.992L587.745 153.268ZM566.685 100.213V99.4634H565.581L565.988 100.49L566.685 100.213ZM590.04 100.213L590.749 99.9672L590.574 99.4634H590.04V100.213ZM601.11 132.073L600.402 132.32L600.885 133.711L601.726 132.501L601.11 132.073ZM623.25 100.213V99.4634H622.858L622.634 99.7854L623.25 100.213ZM648.434 99.7648L608.744 152.955L609.946 153.852L649.636 100.662L648.434 99.7648ZM608.607 153.273L601.317 194.583L602.794 194.844L610.084 153.534L608.607 153.273ZM602.055 193.963H580.455V195.463H602.055V193.963ZM581.194 194.843L588.484 153.398L587.007 153.138L579.717 194.583L581.194 194.843ZM588.442 152.992L567.382 99.9367L565.988 100.49L587.048 153.545L588.442 152.992ZM566.685 100.963H590.04V99.4634H566.685V100.963ZM589.332 100.46L600.402 132.32L601.819 131.827L590.749 99.9672L589.332 100.46ZM601.726 132.501L623.866 100.641L622.634 99.7854L600.494 131.645L601.726 132.501ZM623.25 100.963H649.035V99.4634H623.25V100.963ZM640.578 194.713L639.839 194.584L639.684 195.463H640.578V194.713ZM657.183 100.213V99.4634H656.553L656.444 100.084L657.183 100.213ZM673.383 100.213L674.05 99.8719L673.842 99.4634H673.383V100.213ZM700.518 153.268L699.85 153.61L700.869 155.603L701.256 153.398L700.518 153.268ZM709.833 100.213V99.4634H709.203L709.094 100.084L709.833 100.213ZM731.433 100.213L732.171 100.343L732.326 99.4634H731.433V100.213ZM714.828 194.713V195.463H715.457L715.566 194.843L714.828 194.713ZM698.628 194.713L697.959 195.054L698.168 195.463H698.628V194.713ZM671.628 141.658L672.296 141.318L671.282 139.325L670.889 141.527L671.628 141.658ZM662.178 194.713V195.463H662.806L662.916 194.845L662.178 194.713ZM641.316 194.843L657.921 100.343L656.444 100.084L639.839 194.584L641.316 194.843ZM657.183 100.963H673.383V99.4634H657.183V100.963ZM672.715 100.555L699.85 153.61L701.185 152.927L674.05 99.8719L672.715 100.555ZM701.256 153.398L710.571 100.343L709.094 100.084L699.779 153.139L701.256 153.398ZM709.833 100.963H731.433V99.4634H709.833V100.963ZM730.694 100.084L714.089 194.584L715.566 194.843L732.171 100.343L730.694 100.084ZM714.828 193.963H698.628V195.463H714.828V193.963ZM699.296 194.373L672.296 141.318L670.959 141.999L697.959 195.054L699.296 194.373ZM670.889 141.527L661.439 194.582L662.916 194.845L672.366 141.79L670.889 141.527ZM662.178 193.963H640.578V195.463H662.178V193.963Z" fill="white"/>
<g filter="url(#filter0_ddd)">
<path d="M102.517 194.713L100.546 194.374L100.143 196.713H102.517V194.713ZM105.217 179.053L103.898 177.55L103.367 178.017L103.246 178.714L105.217 179.053ZM142.747 146.113L144.067 147.617L144.069 147.614L142.747 146.113ZM155.302 129.373L153.335 129.016L153.334 129.019L155.302 129.373ZM153.952 122.218L152.361 123.43L152.376 123.449L152.391 123.468L153.952 122.218ZM132.082 130.048L131.003 131.732L132.712 132.827L133.782 131.103L132.082 130.048ZM114.802 118.978L113.101 117.926L112.066 119.601L113.723 120.662L114.802 118.978ZM130.327 103.588L131.303 105.334L131.311 105.33L130.327 103.588ZM171.232 107.233L169.764 108.591L169.769 108.596L169.774 108.602L171.232 107.233ZM177.037 129.778L179.005 130.139L179.007 130.126L177.037 129.778ZM171.097 144.493L172.745 145.626L172.751 145.619L172.756 145.611L171.097 144.493ZM158.407 158.128L159.712 159.645L159.719 159.638L158.407 158.128ZM140.047 173.923L138.743 172.407L134.656 175.923H140.047V173.923ZM170.422 173.923L172.392 174.269L172.803 171.923H170.422V173.923ZM166.777 194.713V196.713H168.457L168.747 195.059L166.777 194.713ZM104.488 195.053L107.188 179.393L103.246 178.714L100.546 194.374L104.488 195.053ZM106.537 180.557L144.067 147.617L141.428 144.61L103.898 177.55L106.537 180.557ZM144.069 147.614C147.911 144.23 150.954 141.069 153.156 138.133C155.346 135.213 156.789 132.403 157.271 129.728L153.334 129.019C153.006 130.843 151.951 133.074 149.956 135.733C147.973 138.377 145.144 141.337 141.425 144.613L144.069 147.614ZM157.27 129.731C157.879 126.379 157.42 123.351 155.514 120.969L152.391 123.468C153.365 124.686 153.805 126.427 153.335 129.016L157.27 129.731ZM155.543 121.006C153.643 118.513 150.829 117.383 147.472 117.383V121.383C149.876 121.383 151.381 122.144 152.361 123.43L155.543 121.006ZM147.472 117.383C140.658 117.383 134.986 121.573 130.383 128.994L133.782 131.103C137.999 124.304 142.587 121.383 147.472 121.383V117.383ZM133.161 128.364L115.881 117.294L113.723 120.662L131.003 131.732L133.161 128.364ZM116.503 120.03C120.581 113.436 125.521 108.565 131.303 105.334L129.352 101.842C122.894 105.451 117.484 110.84 113.101 117.926L116.503 120.03ZM131.311 105.33C137.222 101.989 143.543 100.323 150.307 100.323V96.3234C142.851 96.3234 135.852 98.1681 129.343 101.847L131.311 105.33ZM150.307 100.323C158.238 100.323 164.671 103.081 169.764 108.591L172.701 105.876C166.813 99.5055 159.296 96.3234 150.307 96.3234V100.323ZM169.774 108.602C174.759 113.914 176.598 120.757 175.068 129.431L179.007 130.126C180.716 120.439 178.686 112.253 172.691 105.865L169.774 108.602ZM175.07 129.418C174.128 134.556 172.25 139.202 169.438 143.376L172.756 145.611C175.885 140.965 177.967 135.801 179.005 130.139L175.07 129.418ZM169.449 143.36C166.604 147.499 162.503 151.92 157.096 156.619L159.719 159.638C165.291 154.797 169.651 150.128 172.745 145.626L169.449 143.36ZM157.103 156.612L138.743 172.407L141.352 175.44L159.712 159.645L157.103 156.612ZM140.047 175.923H170.422V171.923H140.047V175.923ZM168.452 173.578L164.807 194.368L168.747 195.059L172.392 174.269L168.452 173.578ZM166.777 192.713H102.517V196.713H166.777V192.713ZM201.902 182.563L200.172 183.568L200.178 183.578L200.184 183.588L201.902 182.563ZM197.582 146.113L195.612 145.765L195.612 145.767L197.582 146.113ZM213.512 111.148L214.971 112.516L213.512 111.148ZM269.807 112.498L268.077 113.503L268.081 113.51L269.807 112.498ZM274.127 148.813L276.096 149.162L276.096 149.16L274.127 148.813ZM258.197 183.778L256.737 182.411L256.729 182.419L258.197 183.778ZM252.527 147.463L250.557 147.113L252.527 147.463ZM219.182 147.463L217.212 147.113L219.182 147.463ZM228.632 194.603C216.992 194.603 208.788 190.21 203.619 181.539L200.184 183.588C206.175 193.637 215.791 198.603 228.632 198.603V194.603ZM203.631 181.559C198.454 172.648 196.992 161.021 199.551 146.46L195.612 145.767C192.951 160.906 194.369 173.579 200.172 183.568L203.631 181.559ZM199.551 146.462C202.112 131.978 207.291 120.713 214.971 112.516L212.052 109.781C203.712 118.683 198.271 130.729 195.612 145.765L199.551 146.462ZM214.971 112.516C222.6 104.372 231.971 100.323 243.212 100.323V96.3234C230.872 96.3234 220.443 100.824 212.052 109.781L214.971 112.516ZM243.212 100.323C254.842 100.323 262.994 104.753 268.077 113.503L271.536 111.494C265.639 101.343 256.061 96.3234 243.212 96.3234V100.323ZM268.081 113.51C273.252 122.326 274.716 133.904 272.157 148.467L276.096 149.16C278.757 134.023 277.341 121.39 271.532 111.487L268.081 113.51ZM272.157 148.465C269.596 162.949 264.417 174.213 256.737 182.411L259.656 185.146C267.996 176.243 273.437 164.198 276.096 149.162L272.157 148.465ZM256.729 182.419C249.193 190.555 239.872 194.603 228.632 194.603V198.603C240.971 198.603 251.36 194.101 259.664 185.138L256.729 182.419ZM230.927 177.543C237.129 177.543 242.265 174.877 246.214 169.743C250.095 164.698 252.805 157.318 254.496 147.814L250.557 147.113C248.918 156.329 246.364 162.988 243.044 167.304C239.793 171.53 235.794 173.543 230.927 173.543V177.543ZM254.496 147.814C256.178 138.356 256.12 130.86 253.933 125.632C252.818 122.965 251.135 120.859 248.848 119.439C246.575 118.028 243.849 117.383 240.782 117.383V121.383C243.294 121.383 245.243 121.909 246.738 122.837C248.22 123.758 249.401 125.162 250.243 127.175C251.971 131.307 252.205 137.85 250.557 147.113L254.496 147.814ZM240.782 117.383C234.579 117.383 229.443 120.05 225.494 125.184C221.614 130.228 218.903 137.609 217.212 147.113L221.151 147.814C222.79 138.598 225.345 131.938 228.664 127.623C231.915 123.397 235.914 121.383 240.782 121.383V117.383ZM217.212 147.113C215.53 156.57 215.588 164.067 217.775 169.295C218.891 171.962 220.573 174.068 222.86 175.488C225.133 176.899 227.859 177.543 230.927 177.543V173.543C228.414 173.543 226.465 173.018 224.97 172.089C223.488 171.169 222.308 169.765 221.465 167.752C219.737 163.62 219.503 157.076 221.151 147.814L217.212 147.113ZM286.936 182.563L285.206 183.568L285.212 183.578L285.218 183.588L286.936 182.563ZM282.616 146.113L280.646 145.765L280.646 145.767L282.616 146.113ZM298.546 111.148L300.005 112.516H300.005L298.546 111.148ZM354.841 112.498L353.111 113.503L353.116 113.51L354.841 112.498ZM359.161 148.813L361.13 149.162L361.131 149.16L359.161 148.813ZM343.231 183.778L341.771 182.411L341.764 182.419L343.231 183.778ZM337.561 147.463L335.592 147.113L337.561 147.463ZM304.216 147.463L302.247 147.113L304.216 147.463ZM313.666 194.603C302.026 194.603 293.823 190.21 288.654 181.539L285.218 183.588C291.209 193.637 300.825 198.603 313.666 198.603V194.603ZM288.665 181.559C283.488 172.648 282.026 161.021 284.586 146.46L280.646 145.767C277.985 160.906 279.403 173.579 285.206 183.568L288.665 181.559ZM284.585 146.462C287.146 131.978 292.325 120.713 300.005 112.516L297.086 109.781C288.746 118.683 283.305 130.729 280.646 145.765L284.585 146.462ZM300.005 112.516C307.634 104.372 317.005 100.323 328.246 100.323V96.3234C315.907 96.3234 305.477 100.824 297.086 109.781L300.005 112.516ZM328.246 100.323C339.876 100.323 348.028 104.753 353.111 113.503L356.57 111.494C350.673 101.343 341.095 96.3234 328.246 96.3234V100.323ZM353.116 113.51C358.287 122.326 359.751 133.904 357.191 148.467L361.131 149.16C363.791 134.023 362.375 121.39 356.566 111.487L353.116 113.51ZM357.191 148.465C354.63 162.949 349.451 174.213 341.771 182.411L344.69 185.146C353.03 176.243 358.471 164.198 361.13 149.162L357.191 148.465ZM341.764 182.419C334.227 190.555 324.906 194.603 313.666 194.603V198.603C326.005 198.603 336.395 194.101 344.698 185.138L341.764 182.419ZM315.961 177.543C322.163 177.543 327.299 174.877 331.248 169.743C335.129 164.698 337.839 157.318 339.53 147.814L335.592 147.113C333.952 156.329 331.398 162.988 328.078 167.304C324.827 171.53 320.828 173.543 315.961 173.543V177.543ZM339.53 147.814C341.212 138.356 341.154 130.86 338.967 125.632C337.852 122.965 336.169 120.859 333.882 119.439C331.609 118.028 328.883 117.383 325.816 117.383V121.383C328.328 121.383 330.277 121.909 331.772 122.837C333.254 123.758 334.435 125.162 335.277 127.175C337.005 131.307 337.239 137.85 335.592 147.113L339.53 147.814ZM325.816 117.383C319.613 117.383 314.477 120.05 310.528 125.184C306.648 130.228 303.937 137.609 302.247 147.113L306.185 147.814C307.824 138.598 310.379 131.938 313.698 127.623C316.949 123.397 320.948 121.383 325.816 121.383V117.383ZM302.247 147.113C300.564 156.57 300.623 164.067 302.809 169.295C303.925 171.962 305.607 174.068 307.894 175.488C310.168 176.899 312.893 177.543 315.961 177.543V173.543C313.448 173.543 311.499 173.018 310.004 172.089C308.522 171.169 307.342 169.765 306.5 167.752C304.771 163.62 304.537 157.076 306.185 147.814L302.247 147.113ZM371.97 182.563L370.241 183.568L370.246 183.578L370.252 183.588L371.97 182.563ZM367.65 146.113L365.68 145.765L365.68 145.767L367.65 146.113ZM383.58 111.148L385.039 112.516L383.58 111.148ZM439.875 112.498L438.146 113.503L438.15 113.51L439.875 112.498ZM444.195 148.813L446.164 149.162L446.165 149.16L444.195 148.813ZM428.265 183.778L426.805 182.411L426.798 182.419L428.265 183.778ZM422.595 147.463L420.626 147.113L422.595 147.463ZM389.25 147.463L387.281 147.113L389.25 147.463ZM398.7 194.603C387.06 194.603 378.857 190.21 373.688 181.539L370.252 183.588C376.243 193.637 385.859 198.603 398.7 198.603V194.603ZM373.699 181.559C368.523 172.648 367.061 161.021 369.62 146.46L365.68 145.767C363.019 160.906 364.437 173.579 370.241 183.568L373.699 181.559ZM369.619 146.462C372.181 131.978 377.36 120.713 385.039 112.516L382.12 109.781C373.78 118.683 368.339 130.729 365.68 145.765L369.619 146.462ZM385.039 112.516C392.669 104.372 402.039 100.323 413.28 100.323V96.3234C400.941 96.3234 390.511 100.824 382.12 109.781L385.039 112.516ZM413.28 100.323C424.91 100.323 433.062 104.753 438.146 113.503L441.604 111.494C435.707 101.343 426.13 96.3234 413.28 96.3234V100.323ZM438.15 113.51C443.321 122.326 444.785 133.904 442.225 148.467L446.165 149.16C448.825 134.023 447.409 121.39 441.6 111.487L438.15 113.51ZM442.225 148.465C439.664 162.949 434.485 174.213 426.805 182.411L429.724 185.146C438.065 176.243 443.506 164.198 446.164 149.162L442.225 148.465ZM426.798 182.419C419.261 190.555 409.94 194.603 398.7 194.603V198.603C411.04 198.603 421.429 194.101 429.732 185.138L426.798 182.419ZM400.995 177.543C407.197 177.543 412.333 174.877 416.283 169.743C420.163 164.698 422.873 157.318 424.564 147.814L420.626 147.113C418.986 156.329 416.432 162.988 413.112 167.304C409.861 171.53 405.862 173.543 400.995 173.543V177.543ZM424.564 147.814C426.246 138.356 426.188 130.86 424.001 125.632C422.886 122.965 421.203 120.859 418.916 119.439C416.643 118.028 413.917 117.383 410.85 117.383V121.383C413.363 121.383 415.311 121.909 416.806 122.837C418.288 123.758 419.469 125.162 420.311 127.175C422.039 131.307 422.274 137.85 420.626 147.113L424.564 147.814ZM410.85 117.383C404.647 117.383 399.511 120.05 395.562 125.184C391.682 130.228 388.971 137.609 387.281 147.113L391.219 147.814C392.858 138.598 395.413 131.938 398.733 127.623C401.983 123.397 405.982 121.383 410.85 121.383V117.383ZM387.281 147.113C385.599 156.57 385.657 164.067 387.844 169.295C388.959 171.962 390.641 174.068 392.928 175.488C395.202 176.899 397.928 177.543 400.995 177.543V173.543C398.482 173.543 396.534 173.018 395.038 172.089C393.557 171.169 392.376 169.765 391.534 167.752C389.806 163.62 389.571 157.076 391.219 147.814L387.281 147.113ZM560.549 127.888L562.524 128.206L562.525 128.196L560.549 127.888ZM549.209 146.248L548.062 144.61L545.858 146.153L547.971 147.819L549.209 146.248ZM556.904 167.713L554.922 167.444L554.922 167.449L556.904 167.713ZM545.969 187.288L544.722 185.724L545.969 187.288ZM481.979 194.713L480.009 194.367L479.597 196.713H481.979V194.713ZM498.584 100.213V98.2134H496.905L496.614 99.8672L498.584 100.213ZM554.744 108.043L553.318 109.445L553.324 109.451L553.33 109.458L554.744 108.043ZM516.674 120.463V118.463H514.998L514.705 120.114L516.674 120.463ZM513.704 137.203L511.735 136.854L511.318 139.203H513.704V137.203ZM538.814 128.833L536.85 128.456L536.848 128.469L536.845 128.482L538.814 128.833ZM531.929 172.033L533.196 173.581L533.203 173.575L531.929 172.033ZM535.709 165.418L537.682 165.747L535.709 165.418ZM534.224 158.938L532.654 160.178L532.69 160.223L532.729 160.267L534.224 158.938ZM510.329 156.373V154.373H508.655L508.36 156.021L510.329 156.373ZM507.089 174.463L505.12 174.111L504.699 176.463H507.089V174.463ZM558.574 127.571C557.397 134.885 553.904 140.521 548.062 144.61L550.356 147.887C557.115 143.156 561.181 136.551 562.524 128.206L558.574 127.571ZM547.971 147.819C553.712 152.347 556.104 158.751 554.922 167.444L558.886 167.983C560.224 158.136 557.486 150.229 550.448 144.678L547.971 147.819ZM554.922 167.449C553.908 175.054 550.516 181.107 544.722 185.724L547.216 188.852C553.842 183.57 557.74 176.573 558.887 167.978L554.922 167.449ZM544.722 185.724C538.978 190.303 530.923 192.713 520.319 192.713V196.713C531.495 196.713 540.54 194.173 547.216 188.852L544.722 185.724ZM520.319 192.713H481.979V196.713H520.319V192.713ZM483.949 195.06L500.554 100.559L496.614 99.8672L480.009 194.367L483.949 195.06ZM498.584 102.213H534.224V98.2134H498.584V102.213ZM534.224 102.213C542.335 102.213 548.627 104.672 553.318 109.445L556.171 106.642C550.601 100.974 543.213 98.2134 534.224 98.2134V102.213ZM553.33 109.458C557.945 114.073 559.749 120.017 558.573 127.581L562.525 128.196C563.869 119.559 561.803 112.274 556.158 106.629L553.33 109.458ZM531.389 118.463H516.674V122.463H531.389V118.463ZM514.705 120.114L511.735 136.854L515.673 137.553L518.643 120.813L514.705 120.114ZM513.704 139.203H528.419V135.203H513.704V139.203ZM528.419 139.203C531.523 139.203 534.277 138.313 536.562 136.463L534.046 133.354C532.551 134.564 530.715 135.203 528.419 135.203V139.203ZM536.562 136.463C538.847 134.613 540.253 132.151 540.783 129.185L536.845 128.482C536.475 130.556 535.541 132.143 534.046 133.354L536.562 136.463ZM540.778 129.211C541.318 126.406 540.85 123.815 539.178 121.665L536.02 124.121C536.868 125.211 537.211 126.581 536.85 128.456L540.778 129.211ZM539.178 121.665C537.402 119.383 534.623 118.463 531.389 118.463V122.463C533.915 122.463 535.276 123.164 536.02 124.121L539.178 121.665ZM533.203 173.575C535.652 171.552 537.154 168.912 537.682 165.747L533.736 165.09C533.364 167.324 532.346 169.095 530.655 170.491L533.203 173.575ZM537.682 165.747C538.203 162.622 537.663 159.797 535.719 157.61L532.729 160.267C533.665 161.32 534.115 162.815 533.736 165.09L537.682 165.747ZM535.794 157.699C533.939 155.349 531.089 154.373 527.744 154.373V158.373C530.339 158.373 531.81 159.108 532.654 160.178L535.794 157.699ZM527.744 154.373H510.329V158.373H527.744V154.373ZM508.36 156.021L505.12 174.111L509.058 174.816L512.298 156.726L508.36 156.021ZM507.089 176.463H524.504V172.463H507.089V176.463ZM524.504 176.463C527.858 176.463 530.802 175.54 533.196 173.581L530.663 170.485C529.096 171.767 527.09 172.463 524.504 172.463V176.463ZM649.035 100.213L650.638 101.409L653.023 98.2134H649.035V100.213ZM609.345 153.403L607.742 152.207L607.458 152.588L607.376 153.056L609.345 153.403ZM602.055 194.713V196.713H603.733L604.025 195.061L602.055 194.713ZM580.455 194.713L578.486 194.367L578.073 196.713H580.455V194.713ZM587.745 153.268L589.715 153.615L589.813 153.057L589.604 152.53L587.745 153.268ZM566.685 100.213V98.2134H563.74L564.826 100.951L566.685 100.213ZM590.04 100.213L591.929 99.557L591.463 98.2134H590.04V100.213ZM601.11 132.073L599.221 132.73L600.511 136.441L602.753 133.215L601.11 132.073ZM623.25 100.213V98.2134H622.205L621.608 99.0721L623.25 100.213ZM647.432 99.0173L607.742 152.207L610.948 154.599L650.638 101.409L647.432 99.0173ZM607.376 153.056L600.086 194.366L604.025 195.061L611.315 153.751L607.376 153.056ZM602.055 192.713H580.455V196.713H602.055V192.713ZM582.425 195.06L589.715 153.615L585.776 152.922L578.486 194.367L582.425 195.06ZM589.604 152.53L568.544 99.4755L564.826 100.951L585.886 154.006L589.604 152.53ZM566.685 102.213H590.04V98.2134H566.685V102.213ZM588.151 100.87L599.221 132.73L602.999 131.417L591.929 99.557L588.151 100.87ZM602.753 133.215L624.893 101.355L621.608 99.0721L599.468 130.932L602.753 133.215ZM623.25 102.213H649.035V98.2134H623.25V102.213ZM640.578 194.713L638.608 194.367L638.196 196.713H640.578V194.713ZM657.183 100.213V98.2134H655.504L655.213 99.8672L657.183 100.213ZM673.383 100.213L675.163 99.3027L674.606 98.2134H673.383V100.213ZM700.518 153.268L698.737 154.179L701.455 159.494L702.488 153.614L700.518 153.268ZM709.833 100.213V98.2134H708.153L707.863 99.8675L709.833 100.213ZM731.433 100.213L733.403 100.559L733.815 98.2134H731.433V100.213ZM714.828 194.713V196.713H716.507L716.798 195.06L714.828 194.713ZM698.628 194.713L696.845 195.62L697.401 196.713H698.628V194.713ZM671.628 141.658L673.41 140.751L670.705 135.435L669.659 141.308L671.628 141.658ZM662.178 194.713V196.713H663.853L664.147 195.064L662.178 194.713ZM642.548 195.06L659.153 100.559L655.213 99.8672L638.608 194.367L642.548 195.06ZM657.183 102.213H673.383V98.2134H657.183V102.213ZM671.602 101.124L698.737 154.179L702.298 152.358L675.163 99.3027L671.602 101.124ZM702.488 153.614L711.803 100.559L707.863 99.8675L698.548 152.923L702.488 153.614ZM709.833 102.213H731.433V98.2134H709.833V102.213ZM729.463 99.8672L712.858 194.367L716.798 195.06L733.403 100.559L729.463 99.8672ZM714.828 192.713H698.628V196.713H714.828V192.713ZM700.41 193.806L673.41 140.751L669.845 142.565L696.845 195.62L700.41 193.806ZM669.659 141.308L660.209 194.363L664.147 195.064L673.597 142.009L669.659 141.308ZM662.178 192.713H640.578V196.713H662.178V192.713Z" fill="white"/>
</g>
<defs>
<filter id="filter0_ddd" x="0.143066" y="0.323364" width="833.672" height="302.28" filterUnits="userSpaceOnUse" color-interpolation-filters="sRGB">
<feFlood flood-opacity="0" result="BackgroundImageFix"/>
<feColorMatrix in="SourceAlpha" type="matrix" values="0 0 0 0 0 0 0 0 0 0 0 0 0 0 0 0 0 0 127 0"/>
<feOffset dy="2"/>
<feGaussianBlur stdDeviation="5"/>
<feColorMatrix type="matrix" values="0 0 0 0 1 0 0 0 0 1 0 0 0 0 1 0 0 0 1 0"/>
<feBlend mode="normal" in2="BackgroundImageFix" result="effect1_dropShadow"/>
<feColorMatrix in="SourceAlpha" type="matrix" values="0 0 0 0 0 0 0 0 0 0 0 0 0 0 0 0 0 0 127 0"/>
<feOffset dy="4"/>
<feGaussianBlur stdDeviation="50"/>
<feColorMatrix type="matrix" values="0 0 0 0 1 0 0 0 0 1 0 0 0 0 1 0 0 0 1 0"/>
<feBlend mode="normal" in2="effect1_dropShadow" result="effect2_dropShadow"/>
<feColorMatrix in="SourceAlpha" type="matrix" values="0 0 0 0 0 0 0 0 0 0 0 0 0 0 0 0 0 0 127 0"/>
<feOffset dy="4"/>
<feGaussianBlur stdDeviation="10"/>
<feColorMatrix type="matrix" values="0 0 0 0 1 0 0 0 0 1 0 0 0 0 1 0 0 0 0.5 0"/>
<feBlend mode="normal" in2="effect2_dropShadow" result="effect3_dropShadow"/>
<feBlend mode="normal" in="SourceGraphic" in2="effect3_dropShadow" result="shape"/>
</filter>
</defs>
</svg>
