<svg width="56" height="55" viewBox="0 0 56 55" fill="none" xmlns="http://www.w3.org/2000/svg">
<path d="M26.022 43.0537H29.897V46.9287H26.022V43.0537Z" fill="white"/>
<path d="M8.58447 25.6162H12.4595V29.4912H8.58447V25.6162Z" fill="white"/>
<path d="M43.4595 25.6162H47.3345V29.4912H43.4595V25.6162Z" fill="white"/>
<path d="M47.1398 8.37343C42.537 3.74455 36.4093 0.945568 29.897 0.497371V0.428711H26.022V12.0537H29.897V4.38509C41.8138 5.37297 51.2095 15.3861 51.2095 27.5537C51.2095 40.3738 40.7796 50.8037 27.9595 50.8037C15.1394 50.8037 4.70949 40.3738 4.70949 27.5537C4.70682 24.495 5.30894 21.466 6.48121 18.6408C7.65348 15.8157 9.37276 13.2502 11.5401 11.092L25.5415 28.7571L28.5783 26.3503L12.0478 5.49382L10.5213 6.7762C6.33485 10.2898 3.30751 14.9862 1.83593 20.2498C0.364358 25.5135 0.517201 31.0989 2.27443 36.2742C4.03166 41.4495 7.31131 45.9733 11.6836 49.2527C16.0559 52.5321 21.3169 54.4143 26.7772 54.6524C32.2375 54.8906 37.6424 53.4737 42.2837 50.5874C46.9249 47.7012 50.586 43.4801 52.7871 38.4775C54.9883 33.4748 55.6269 27.9239 54.6192 22.5521C53.6115 17.1803 51.0046 12.2382 47.14 8.37343H47.1398Z" fill="white"/>
</svg>
