<svg width="27" height="27" viewBox="0 0 27 27" fill="none" xmlns="http://www.w3.org/2000/svg">
<g clip-path="url(#clip0)">
<path fill-rule="evenodd" clip-rule="evenodd" d="M12.7842 26.0465C19.7579 26.0465 25.4112 20.3932 25.4112 13.4195C25.4112 6.44577 19.7579 0.79248 12.7842 0.79248C5.81053 0.79248 0.157227 6.44577 0.157227 13.4195C0.157227 20.3932 5.81053 26.0465 12.7842 26.0465ZM16.2972 7.62765H11.7984L11.1153 14.8257H14.1145L16.2972 7.62765ZM10.4655 18.9246C10.8542 19.2801 11.3541 19.4578 11.965 19.4578C12.6204 19.4578 13.1703 19.2523 13.6146 18.8413C14.0589 18.4192 14.2811 17.9027 14.2811 17.2917C14.2811 16.7808 14.0867 16.3531 13.6979 16.0088C13.3091 15.6644 12.8093 15.4922 12.1983 15.4922C11.5318 15.4922 10.9764 15.6922 10.5321 16.0921C10.0989 16.492 9.88231 17.0029 9.88231 17.625C9.88231 18.136 10.0767 18.5692 10.4655 18.9246Z" fill="white"/>
</g>
<defs>
<clipPath id="clip0">
<rect width="26" height="26" fill="white" transform="translate(0.157227 0.79248)"/>
</clipPath>
</defs>
</svg>
