<svg width="244" height="81" viewBox="0 0 244 81" fill="none" xmlns="http://www.w3.org/2000/svg">
<g clip-path="url(#clip0)">
<path d="M17.0646 38.677L18.1681 43.56H26.2471L28.9664 39.015L26.7594 50.9598H37.4789L43.4692 18.5813H32.198L24.316 31.4651L21.2026 18.5813H10.0496L4.05933 50.9598H14.7788L17.0646 38.677Z" fill="white"/>
<path d="M72.0413 50.9598H73.46H76.8887H85.3618L91.4703 43.56L95.6084 50.9598H107.077L98.2094 35.2588L112.121 18.5813H98.8006L92.9285 25.6805L88.9875 18.5813H77.5192L86.1106 33.9442L76.1005 46.0391L72.0413 50.9598Z" fill="white"/>
<path d="M51.3117 50.9598L54.6615 43.56H60.0213L60.6913 50.9598H68.1397H71.5684L70.8196 46.0391L66.5239 18.5813H57.1444L40.1587 50.9598H51.3117ZM57.0655 37.7004L59.2725 32.8549L59.6272 37.7004H57.0655Z" fill="white"/>
<path d="M120.87 54.4909L125.205 31.2776H114.486L108.496 63.5809H132.693L134.388 54.4909H120.87Z" fill="#0A9F30"/>
<path d="M142.349 31.2776L136.358 63.5809H147.078L153.068 31.2776H142.349Z" fill="#0A9F30"/>
<path d="M175.138 31.2776L172.615 44.9877L164.93 31.2776H156.733L150.743 63.5809H161.462L163.985 50.021L171.591 63.5809H179.867L185.857 31.2776H175.138Z" fill="#0A9F30"/>
<path d="M211.158 40.3676L212.814 31.2776H189.522L183.532 63.5809H206.902L208.557 54.4909H195.946L196.498 51.4484H205.483L207.099 42.8842H198.114L198.547 40.3676H211.158Z" fill="#0A9F30"/>
<path d="M3.34984 54.4913L0 63.5813H104.752L106.446 54.4913H3.34984Z" fill="#0A9F30"/>
<path d="M115.116 27.746L116.811 18.656L217.188 18.656L213.483 27.746H115.116Z" fill="white"/>
<path d="M224.455 19.5813C224.915 19.5813 225.376 19.6728 225.836 19.8558C226.25 20.0388 226.619 20.2676 226.987 20.5878C227.309 20.9081 227.586 21.2741 227.724 21.7316C227.908 22.1434 228 22.6009 228 23.1042C228 23.7447 227.862 24.3395 227.54 24.8427C227.217 25.3918 226.803 25.8035 226.25 26.1238C225.698 26.444 225.099 26.5813 224.501 26.5813C223.856 26.5813 223.258 26.444 222.751 26.1238C222.199 25.8035 221.785 25.3918 221.462 24.8427C221.14 24.2937 221.002 23.6989 221.002 23.1042C221.002 22.5094 221.14 21.8689 221.462 21.3656C221.785 20.8166 222.199 20.4048 222.751 20.0846C223.212 19.7186 223.81 19.5813 224.455 19.5813ZM224.455 20.2676C223.948 20.2676 223.488 20.4048 223.028 20.6336C222.613 20.8623 222.245 21.2284 222.015 21.6401C221.739 22.0519 221.646 22.5552 221.646 23.0584C221.646 23.5617 221.785 24.0192 222.015 24.4767C222.291 24.8885 222.613 25.2545 223.074 25.4833C223.488 25.712 223.995 25.8493 224.501 25.8493C225.007 25.8493 225.514 25.712 225.928 25.4833C226.343 25.2545 226.711 24.8885 226.941 24.4767C227.171 24.065 227.309 23.5617 227.309 23.0584C227.309 22.5552 227.171 22.0519 226.941 21.6401C226.711 21.2284 226.343 20.8623 225.928 20.6336C225.422 20.4048 224.961 20.2676 224.455 20.2676ZM223.626 24.9342H222.844V21.2284H224.593C224.869 21.2284 225.099 21.2741 225.284 21.3656C225.468 21.4571 225.606 21.5944 225.698 21.7316C225.79 21.8689 225.836 22.0976 225.836 22.2806C225.836 22.5552 225.744 22.7839 225.56 22.9669C225.376 23.1499 225.145 23.2872 224.823 23.3329C225.007 23.3787 225.099 23.4702 225.238 23.6074C225.33 23.7447 225.468 23.9277 225.652 24.2022L226.112 24.9342H225.192L224.869 24.3395C224.731 24.065 224.593 23.882 224.501 23.7447C224.409 23.6074 224.317 23.5159 224.179 23.4702C224.087 23.4244 223.948 23.3787 223.81 23.3787H223.626V24.9342ZM223.626 21.8231V22.8297H224.225C224.501 22.8297 224.731 22.7839 224.869 22.7382C225.007 22.6467 225.099 22.5094 225.099 22.3264C225.099 22.1891 225.053 22.0519 224.915 21.9604C224.777 21.8689 224.593 21.8231 224.317 21.8231H223.626Z" fill="white"/>
</g>
<defs>
<clipPath id="clip0">
<rect width="244" height="80" fill="white" transform="translate(0 0.581299)"/>
</clipPath>
</defs>
</svg>
